<?xml version="1.0" encoding="utf-8"?>
<!-- Generator: Adobe Illustrator 27.5.0, SVG Export Plug-In . SVG Version: 6.00 Build 0)  -->
<svg version="1.1" xmlns="http://www.w3.org/2000/svg" xmlns:xlink="http://www.w3.org/1999/xlink" x="0px" y="0px"
	 viewBox="0 0 750 500" style="enable-background:new 0 0 750 500;" xml:space="preserve">
<g id="BACKGROUND">
	<g>
		<rect style="fill:#FFFFFF;" width="750" height="500"/>
	</g>
</g>
<g id="OBJECTS">
	<g>
		<path style="fill:#BFD6FF;" d="M118.028,437.098c0,0-53.801-91.42-31.994-197.393c24.564-119.37,92.994-176.649,295.494-176.649
			s271.808,108.028,284.494,197.333c13.283,93.509-20.994,176.709-20.994,176.709H118.028z"/>
		<g>
			<g>
				<path style="fill:#FFFFFF;" d="M244.941,371.375H84.795c-3.297,0-5.97-2.673-5.97-5.97v-175.73c0-3.297,2.673-5.97,5.97-5.97
					h160.146c3.297,0,5.97,2.673,5.97,5.97v175.73C250.91,368.702,248.238,371.375,244.941,371.375z"/>
				<g>
					<rect x="87.977" y="193.193" style="fill:#8DC1E8;" width="73.41" height="80.66"/>
					<rect x="168.358" y="193.193" style="fill:#8DC1E8;" width="73.4" height="80.66"/>
					<rect x="87.978" y="280.483" style="fill:#8DC1E8;" width="73.41" height="80.66"/>
					<rect x="168.358" y="280.483" style="fill:#8DC1E8;" width="73.4" height="80.66"/>
				</g>
				<g>
					<path style="fill:#7BADDE;" d="M87.978,280.483h30.43v80.66h-18.51v-73.48c-3.42-1.03-6.4-3.27-8.56-6.29
						c-1.06,0.55-2.19,0.98-3.36,1.27V280.483z"/>
					<path style="fill:#7BADDE;" d="M120.118,280.483h20.18c-2.28,3.52-5.95,5.81-10.1,5.81
						C126.058,286.293,122.388,284.003,120.118,280.483z"/>
					<path style="fill:#7BADDE;" d="M141.178,280.483h13.56c-1.35,2.67-3.87,4.46-6.78,4.46
						C145.058,284.943,142.518,283.143,141.178,280.483z"/>
					<path style="fill:#7BADDE;" d="M161.387,263.073c-0.39,0.38-0.81,0.69-1.25,0.96c1.26,2.52,1.41,5.68,0.15,8.44
						c-0.23,0.5-0.49,0.96-0.79,1.38h-71.52v-60.27c2-4.8,6.31-8.13,11.31-8.13c4.58,0,8.57,2.78,10.75,6.93
						c1.34-1.22,3.04-1.95,4.89-1.95c3.5,0,6.46,2.6,7.46,6.19c0.5,0.14,0.99,0.34,1.47,0.61c3.61-5.36,10.2-7.18,15.66-3.98
						c4.07,2.38,6.49,6.94,6.73,11.76c1.69-0.39,3.5-0.16,5.15,0.81c3.83,2.24,5.33,7.58,3.35,11.93c-0.17,0.36-0.36,0.7-0.57,1.03
						c2.08,2.17,2.96,5.48,2.28,8.6c1.21,0,2.44,0.31,3.58,0.98c0.49,0.29,0.94,0.62,1.35,1.01V263.073z"/>
					<path style="fill:#7BADDE;" d="M173.358,273.853c0.31-0.26,0.65-0.48,1.02-0.67c-0.95-4.74,1.2-9.7,5.3-11.65
						c2.54-1.21,5.3-0.99,7.58,0.33c0.58-0.24,1.2-0.39,1.84-0.4c0.75-4.79,4.43-8.42,8.87-8.42c3.3,0,6.18,2.01,7.75,5
						c0.96-0.88,2.19-1.41,3.53-1.41c2.52,0,4.65,1.88,5.37,4.46c0.36,0.11,0.72,0.25,1.06,0.44c2.6-3.86,7.35-5.17,11.29-2.86
						c2.93,1.71,4.68,5,4.85,8.47c1.22-0.28,2.52-0.11,3.71,0.58c2.07,1.21,3.19,3.66,3.03,6.13H173.358z"/>
					<path style="fill:#7BADDE;" d="M241.758,283.983v17.73c-0.72,1.37-1.84,2.33-3.09,2.79c-0.24,3.27-2.66,5.85-5.62,5.85
						c-2.3,0-4.29-1.57-5.16-3.82c-1.59,2.88-4.41,4.79-7.64,4.79c-3.66,0-6.81-2.47-8.21-6.02c-0.09,0.2-0.19,0.4-0.29,0.6v55.24
						h-13.34v-48.83c-2.47-0.74-4.62-2.35-6.18-4.54c-1.5,0.78-3.17,1.22-4.93,1.22c-3.99,0-7.52-2.25-9.66-5.68
						c-1,0.99-2.3,1.6-3.74,1.6c-1.67,0-3.17-0.83-4.2-2.14c-0.47-0.12-0.92-0.3-1.34-0.55v-20.47c0.42-0.39,0.9-0.73,1.43-0.98
						c0.26-0.12,0.53-0.22,0.81-0.29h68.62c0.17,0.91,0.16,1.86-0.04,2.79C240.048,283.273,240.938,283.503,241.758,283.983z"/>
				</g>
			</g>
			<g>
				<path style="fill:#FFFFFF;" d="M505.059,371.375h160.146c3.297,0,5.97-2.673,5.97-5.97v-175.73c0-3.297-2.673-5.97-5.97-5.97
					H505.059c-3.297,0-5.97,2.673-5.97,5.97v175.73C499.089,368.702,501.762,371.375,505.059,371.375z"/>
				<g>
					<rect x="588.613" y="193.193" style="fill:#8DC1E8;" width="73.41" height="80.66"/>
					<rect x="508.242" y="193.193" style="fill:#8DC1E8;" width="73.4" height="80.66"/>
					<rect x="588.612" y="280.483" style="fill:#8DC1E8;" width="73.41" height="80.66"/>
					<rect x="508.242" y="280.483" style="fill:#8DC1E8;" width="73.4" height="80.66"/>
				</g>
				<g>
					<path style="fill:#7BADDE;" d="M662.022,280.483h-30.43v80.66h18.51v-73.48c3.42-1.03,6.4-3.27,8.56-6.29
						c1.06,0.55,2.19,0.98,3.36,1.27V280.483z"/>
					<path style="fill:#7BADDE;" d="M629.882,280.483h-20.18c2.28,3.52,5.95,5.81,10.1,5.81
						C623.942,286.293,627.612,284.003,629.882,280.483z"/>
					<path style="fill:#7BADDE;" d="M608.822,280.483h-13.56c1.35,2.67,3.87,4.46,6.78,4.46
						C604.942,284.943,607.482,283.143,608.822,280.483z"/>
					<path style="fill:#7BADDE;" d="M588.613,263.073c0.39,0.38,0.81,0.69,1.25,0.96c-1.26,2.52-1.41,5.68-0.15,8.44
						c0.23,0.5,0.49,0.96,0.79,1.38h71.52v-60.27c-2-4.8-6.31-8.13-11.31-8.13c-4.58,0-8.57,2.78-10.75,6.93
						c-1.34-1.22-3.04-1.95-4.89-1.95c-3.5,0-6.46,2.6-7.46,6.19c-0.5,0.14-0.99,0.34-1.47,0.61c-3.61-5.36-10.2-7.18-15.66-3.98
						c-4.07,2.38-6.49,6.94-6.73,11.76c-1.69-0.39-3.5-0.16-5.15,0.81c-3.83,2.24-5.33,7.58-3.35,11.93
						c0.17,0.36,0.36,0.7,0.57,1.03c-2.08,2.17-2.96,5.48-2.28,8.6c-1.21,0-2.44,0.31-3.58,0.98c-0.49,0.29-0.94,0.62-1.35,1.01
						V263.073z"/>
					<path style="fill:#7BADDE;" d="M576.642,273.853c-0.31-0.26-0.65-0.48-1.02-0.67c0.95-4.74-1.2-9.7-5.3-11.65
						c-2.54-1.21-5.3-0.99-7.58,0.33c-0.58-0.24-1.2-0.39-1.84-0.4c-0.75-4.79-4.43-8.42-8.87-8.42c-3.3,0-6.18,2.01-7.75,5
						c-0.96-0.88-2.19-1.41-3.53-1.41c-2.52,0-4.65,1.88-5.37,4.46c-0.36,0.11-0.72,0.25-1.06,0.44c-2.6-3.86-7.35-5.17-11.29-2.86
						c-2.93,1.71-4.68,5-4.85,8.47c-1.22-0.28-2.52-0.11-3.71,0.58c-2.07,1.21-3.19,3.66-3.03,6.13H576.642z"/>
					<path style="fill:#7BADDE;" d="M508.242,283.983v17.73c0.72,1.37,1.84,2.33,3.09,2.79c0.24,3.27,2.66,5.85,5.62,5.85
						c2.3,0,4.29-1.57,5.16-3.82c1.59,2.88,4.41,4.79,7.64,4.79c3.66,0,6.81-2.47,8.21-6.02c0.09,0.2,0.19,0.4,0.29,0.6v55.24h13.34
						v-48.83c2.47-0.74,4.62-2.35,6.18-4.54c1.5,0.78,3.17,1.22,4.93,1.22c3.99,0,7.52-2.25,9.66-5.68c1,0.99,2.3,1.6,3.74,1.6
						c1.67,0,3.17-0.83,4.2-2.14c0.47-0.12,0.92-0.3,1.34-0.55v-20.47c-0.42-0.39-0.9-0.73-1.43-0.98
						c-0.26-0.12-0.53-0.22-0.81-0.29h-68.62c-0.17,0.91-0.16,1.86,0.04,2.79C509.952,283.273,509.062,283.503,508.242,283.983z"/>
				</g>
			</g>
		</g>
		<g>
			<g>
				<path style="fill:#EF6E4B;" d="M536.4,400.383l-2.83,3.28l-13.42,15.51l-37.83,1.7c0,0-6,0.59-9.9,0.36
					c-1.61-0.1-2.87-0.33-3.19-0.8c-1.11-1.62-4.76-10.93,2.67-14.86c7.42-3.93,14.4,1.58,14.4,1.58
					c11.35-3.27,23.59-3.13,23.59-3.13l12.45-17.85L536.4,400.383z"/>
				<path style="fill:#DB5F42;" d="M533.57,403.663l-13.42,15.51l-37.83,1.7c0,0-6,0.59-9.9,0.36c0.23-1.36,0.29-3.18-0.52-4.66
					c-1.5-2.75-1.15-6.37,1.5-8c0,0,2.74-1.5,7.68,0s4.67,6.61,4.67,6.61s23.02,2.68,28.77,0.35c5.75-2.34,16.5-15.45,16.5-15.45
					L533.57,403.663z"/>
				<path style="fill:#DA2E69;" d="M542.491,369.604c0,0-3.856-0.742-12.721,2.898c-9,3.695-12.311,12.396-12.089,20.35
					c0,0,7.054,7.238,20.698,6.055C552.023,397.724,542.491,369.604,542.491,369.604z"/>
				<path style="fill:#FFB6D2;" d="M565.281,363.162c0,0,30.906-3.198,34.403,9.159c3.497,12.357-5.211,55.093-5.211,55.093
					s-45.798,11.011-58.227-5.735c0,0-13.93-34.817-8.824-43.469C536.229,363.286,565.281,363.162,565.281,363.162z"/>
				<path style="fill:#EF6E4B;" d="M569.892,341.313c0,0-4.266,8.758,2.028,20.014c0,0-8.515,14.995-24.65,10.245
					c0,0,2.058-11.128-4.631-17.983L569.892,341.313z"/>
				<path style="fill:#212E42;" d="M593.166,331.56c0,0,3.034,25.207-12.217,36.876c0,0-5,12.29-1.58,22.629
					c0,0-8.266,2.377-12.941-2.188c0,0,1.439-15.087,9.295-19.818c0,0-9.024-10.078-6.732-23.25S593.166,331.56,593.166,331.56z"/>
				<path style="fill:#212E42;" d="M554.708,332.728c0,0,3.034,25.207-12.217,36.876c0,0-5,12.29-1.58,22.629
					c0,0-8.266,2.377-12.941-2.188c0,0,1.439-15.087,9.295-19.818c0,0-9.023-10.078-6.732-23.25S554.708,332.728,554.708,332.728z"
					/>
				<g>
					<path style="fill:#FF8B66;" d="M572.143,304.343c-8.749-10.981-34.8-12.812-48.09,2.889c-8.221,9.712,1.688,26.748-3.808,34.76
						c-5.496,8.012-1.463,23.323,28.547,21.958C582.097,362.435,585.329,320.892,572.143,304.343z"/>
					<path style="fill:#212E42;" d="M546.659,332.286c0.177,2.629,1.694,4.668,3.388,4.554c1.694-0.114,2.923-2.338,2.746-4.967
						c-0.177-2.629-1.694-4.668-3.388-4.554C547.712,327.432,546.482,329.657,546.659,332.286z"/>
					<path style="fill:#212E42;" d="M523.332,333.857c0.177,2.629,1.694,4.668,3.388,4.554c1.694-0.114,2.923-2.338,2.746-4.967
						c-0.177-2.629-1.694-4.668-3.388-4.554C524.384,329.004,523.155,331.228,523.332,333.857z"/>
					<path style="fill:#212E42;" d="M530.244,331.942c0,0-0.577-4.837-4.323-5.375c-3.746-0.538-4.018,5.937-4.018,5.937
						l-2.307-1.821l1.779,0.275c0,0,0.488-5.831,4.475-5.441C529.838,325.908,530.244,331.942,530.244,331.942z"/>
					<path style="fill:#212E42;" d="M554.158,330.998c0,0-0.577-4.837-4.323-5.375c-3.746-0.538-4.018,5.937-4.018,5.937
						l-2.307-1.821l1.779,0.276c0,0,0.488-5.831,4.475-5.441C553.751,324.964,554.158,330.998,554.158,330.998z"/>
					<path style="fill:#212E42;" d="M522.647,297.557c0,0,3.992-14.973,37.737-12.845c24.245,1.529,37.086,22.284,33.493,43.61
						c-3.593,21.326-23.63,22.536-23.63,22.536s11.12-11.919-1.891-10.745c0,0-9.451-11.948-8.594-29.136
						c0,0-3.435,4.975-3.994,11.602c0,0-2.966-0.368-7.503-0.553c-0.216-1.058-0.384-2.375-0.401-3.724
						c-0.017-0.389,0.006-0.777,0.016-1.161c0.002-0.385,0.055-0.759,0.081-1.126c0.022-0.368,0.094-0.715,0.137-1.05
						c0.042-0.336,0.109-0.648,0.173-0.936c0.11-0.582,0.249-1.056,0.347-1.388c0.095-0.334,0.15-0.525,0.15-0.525
						s-0.08,0.181-0.221,0.499c-0.144,0.317-0.349,0.772-0.542,1.339c-0.105,0.281-0.217,0.587-0.307,0.92
						c-0.091,0.332-0.214,0.678-0.289,1.047c-0.078,0.368-0.187,0.746-0.244,1.139c-0.066,0.392-0.145,0.79-0.184,1.193
						c-0.166,1.303-0.194,2.615-0.14,3.724c-3.013-0.088-6.581-0.082-10.369,0.149c-0.345-0.965-0.673-2.085-0.911-3.241
						c-0.099-0.411-0.147-0.83-0.222-1.24c-0.071-0.411-0.1-0.82-0.15-1.215c-0.05-0.396-0.054-0.78-0.082-1.145
						c-0.03-0.366-0.023-0.711-0.025-1.031c-0.015-0.641,0.023-1.174,0.046-1.549c0.022-0.375,0.034-0.589,0.034-0.589
						s-0.04,0.211-0.109,0.58c-0.071,0.37-0.178,0.898-0.246,1.542c-0.04,0.321-0.092,0.67-0.109,1.041
						c-0.02,0.371-0.066,0.764-0.068,1.17c-0.001,0.406-0.025,0.829-0.007,1.257c0.021,0.427,0.016,0.866,0.062,1.3
						c0.083,1.117,0.25,2.219,0.455,3.212c-1.897,0.141-3.835,0.34-5.779,0.616c-0.549-0.926-1.139-2.074-1.61-3.295
						c-0.297-0.738-0.54-1.499-0.731-2.224c-0.108-0.36-0.178-0.716-0.249-1.053c-0.077-0.337-0.137-0.658-0.172-0.957
						c-0.1-0.597-0.142-1.1-0.16-1.453c-0.026-0.354-0.041-0.556-0.041-0.556s-0.013,0.202-0.035,0.556
						c-0.03,0.355-0.057,0.863-0.039,1.476c-0.005,0.307,0.01,0.639,0.041,0.99c0.024,0.351,0.047,0.724,0.106,1.104
						c0.093,0.765,0.236,1.58,0.436,2.382c0.273,1.154,0.65,2.279,1.035,3.246c-3.018,0.487-6.018,1.166-8.853,2.095
						c-0.178-0.456-0.355-0.944-0.525-1.482c-0.233-0.755-0.445-1.575-0.594-2.409c-0.147-0.833-0.258-1.679-0.275-2.476
						c-0.021-0.399-0.027-0.786-0.001-1.152c0.017-0.367,0.02-0.717,0.073-1.034c0.041-0.32,0.079-0.613,0.112-0.873
						c0.058-0.256,0.108-0.479,0.149-0.663c0.084-0.37,0.132-0.581,0.132-0.581s-0.074,0.203-0.205,0.559
						c-0.065,0.179-0.144,0.397-0.235,0.646c-0.067,0.257-0.143,0.547-0.226,0.864c-0.096,0.316-0.144,0.668-0.209,1.04
						c-0.074,0.371-0.119,0.767-0.15,1.179c-0.088,0.823-0.086,1.709-0.044,2.593c0.044,0.885,0.154,1.768,0.297,2.589
						c0.107,0.598,0.231,1.145,0.359,1.658c-1.068,0.388-2.109,0.815-3.112,1.284C514.637,326.888,505.314,305.313,522.647,297.557z
						"/>
					<path style="fill:#FF8B66;" d="M571.283,332.637c0,0,8.341-7.542,10.828-3.521c5.08,8.215-1.743,24.742-11.864,21.744
						C570.247,350.859,565.507,336.594,571.283,332.637z"/>
					<path style="fill:none;stroke:#D3583C;stroke-width:2;stroke-miterlimit:10;" d="M534.843,338.855c0,0-9.476,0.369-3.162,6.183
						"/>
					<path style="fill:#212E42;" d="M526.744,349.689c0,0,5.908,2.214,16.198-1.803c0,0-0.5,9.78-6.959,9.313
						C528.462,356.657,526.744,349.689,526.744,349.689z"/>
				</g>
				<g>
					<path style="fill:#8DC1E8;" d="M469.078,426.782h55.75l4.395-4.531c0,0-19.395-8.132-40.895-2.526
						c0,0-13.299-4.097-31.025,1.754L469.078,426.782z"/>
					<path style="fill:#FFFFFF;" d="M508.364,423.479c0,0-13.035-7.557-30.035-1.228c0,0-8.25-2.358-13.75-2.014
						c-5.5,0.343-14.5,3.242-14.5,3.242l1.5,3.303h55.25L508.364,423.479z"/>
				</g>
				<path style="fill:#693E7B;" d="M461.278,386.035l15.376,31.222l4.035,3.171l-0.322-4.205l-14.924-31.979
					C465.443,384.243,463.468,383.652,461.278,386.035z"/>
				<path style="fill:#FF8B66;" d="M599.155,369.714c-13.449-6.366-15.034,22.546-27.823,40.246l-36.81-0.824
					c0,0-6.929-9.286-14.925-7.202c-7.997,2.084-12.027,9.987-8.299,11.651c0,0,0,10.034,8.299,10.724
					c11.934,0.992,14.925-1.835,14.925-1.835s43.979,7.64,50.199,3.801C590.939,422.436,614.478,376.967,599.155,369.714z"/>
				<path style="fill:#DA2E69;" d="M596.717,367.957c-8.444-3.357-22.889,8.366-16.219,26.071c0,0,6.022,6.342,19.768,6.043
					C600.266,400.071,619.02,376.823,596.717,367.957z"/>
				<path style="fill:#EF6E4B;" d="M482.645,406.573c0,0-2.625,0-4.5,1.75s-4.625,5.75-3.625,6.875s6.17-1.125,6.17-1.125
					s0.205,1.63,3.83,1.44S490.412,408.687,482.645,406.573z"/>
			</g>
			<g>
				<path style="fill:#C4A351;" d="M244.153,384.82c3.481,5.179-12.368,19.739-18.872,13.62
					C218.777,392.32,239.28,377.57,244.153,384.82z"/>
				<path style="fill:#EF6E4B;" d="M238.027,378.302l14.25,20.434c0,0,14-0.167,27,3.583c0,0,9.5-1.5,18,3s8.77,10.485,7.5,12.33
					c-1.27,1.846-20.948,0.364-20.948,0.364l-43.302-1.944l-18.592-21.5L238.027,378.302z"/>
				<path style="fill:#EACA71;" d="M212.137,352.682c11.14,2.388,16.143,4.638,32.016,32.138c0,0-12.89-1.5-16.008,9.75
					L212.137,352.682z"/>
				<path style="fill:#FFE48F;" d="M184.013,348.735c0,0-33.672-1.421-37.475,12.124c-3.803,13.546,5.714,76.239,5.714,76.239
					s58.221-2.727,80.735-12.246c0,0-2.154-53.391-7.721-62.38C215.663,346.965,184.013,348.735,184.013,348.735z"/>
				<path style="fill:#EF6E4B;" d="M174.975,328.415c0,0,5.36,9.094-0.473,21.793c0,0,10.398,14.531,25.993,9.665
					c0,0-1.665-12.558,4.972-20.536L174.975,328.415z"/>
				<g>
					<path style="fill:#FF8B66;" d="M173.877,287.216c9.48-11.899,37.709-13.883,52.11,3.131c8.908,10.524-0.161,31.381,1.958,38.47
						c3.015,10.087,3.754,24.469-28.766,22.989C163.091,350.164,159.589,305.149,173.877,287.216z"/>
					<path style="fill:#212E42;" d="M190.141,294.319c0,0,44.992,24.654,52.182-14.378c0,0-10.079,6.74-16.497,0
						c-6.418-6.74-26.188-20.292-47.911-7.638c0,0-14.471-3.422-21.861,16.752c-6.373,17.396,1.797,42.459,15.998,47.147
						c0,0,3.357-11.656,11.428-22.276C191.55,303.306,190.141,294.319,190.141,294.319z"/>
					<path style="fill:#212E42;" d="M201.491,317.495c-0.192,2.849-1.835,5.059-3.671,4.935c-1.835-0.124-3.168-2.533-2.976-5.383
						c0.192-2.849,1.836-5.059,3.671-4.935C200.35,312.236,201.683,314.646,201.491,317.495z"/>
					<path style="fill:#212E42;" d="M226.768,319.198c-0.192,2.849-1.835,5.058-3.671,4.935c-1.836-0.124-3.168-2.534-2.976-5.383
						c0.192-2.849,1.835-5.059,3.671-4.935C225.628,313.939,226.96,316.349,226.768,319.198z"/>
					<path style="fill:#FF8B66;" d="M174.809,317.875c0,0-9.039-8.173-11.733-3.816c-5.505,8.902,1.889,26.81,12.856,23.561
						C175.932,337.62,181.068,322.163,174.809,317.875z"/>
					<path style="fill:none;stroke:#D3583C;stroke-width:2;stroke-miterlimit:10;" d="M215.775,325.395c0,0,5.423,0.425,4.961,2.675
						s-4.961,3.243-4.961,3.243"/>
					<path style="fill:#212E42;" d="M221.935,336.695c0,0-13.954,1.204-22.245,0c0,0,0.502,7.64,9.229,8.949
						C217.646,346.953,221.935,336.695,221.935,336.695z"/>
				</g>
				<path style="fill:#C4A351;" d="M174.833,382.403c2.027,3.667-20.594,22.98-23.973,16.333
					c-3.379-6.647,0.833-15.667,8.667-19.333C167.36,375.736,174.833,382.403,174.833,382.403z"/>
				<g>
					<path style="fill:#8DC1E8;" d="M287.783,423.773h-55.75l-4.395-4.531c0,0,19.395-8.132,40.895-2.526
						c0,0,13.299-4.097,31.025,1.754L287.783,423.773z"/>
					<path style="fill:#FFFFFF;" d="M248.498,420.47c0,0,13.035-7.557,30.035-1.228c0,0,8.25-2.358,13.75-2.014
						c5.5,0.343,14.5,3.242,14.5,3.242l-1.5,3.303h-55.25L248.498,420.47z"/>
				</g>
				<path style="fill:#693E7B;" d="M236.153,382.993l19,29.159l0.667,5.088l-3.452-2.424l-19.882-29.157
					C232.487,385.66,232.987,383.66,236.153,382.993z"/>
				<path style="fill:#FF8B66;" d="M150.729,356.9c15.137-7.165,17.358,29.443,36.568,44.836l36.174-0.469
					c0,0,7.798-10.451,16.798-8.105c9,2.346,13.535,11.24,9.34,13.113c0,0,0,11.293-9.34,12.069
					c-13.431,1.116-16.798-2.065-16.798-2.065s-49.497,8.599-56.497,4.278C159.975,416.236,133.483,365.063,150.729,356.9z"/>
				<path style="fill:#EACA71;" d="M154.463,353.473c8.117-2.231,15.176,14.263,20.369,28.93c0,0-19.806,1.167-23.973,16.333
					c0,0-5.5-8.462-8-21.981C140.36,363.236,147.683,355.336,154.463,353.473z"/>
			</g>
		</g>
		<path style="fill:#542F68;" d="M646.74,447.326H103.26c-6.813,0-12.336-5.523-12.336-12.336l0,0
			c0-6.813,5.523-12.336,12.336-12.336h543.48c6.813,0,12.336,5.523,12.336,12.336l0,0
			C659.076,441.802,653.553,447.326,646.74,447.326z"/>
		<g>
			<path style="fill:#693E7B;" d="M445.263,423.017H304.737c-2.079,0-3.764-1.685-3.764-3.764v-8.513h148.054v8.513
				C449.027,421.332,447.342,423.017,445.263,423.017z"/>
			<path style="fill:#866B96;" d="M441.541,419.879H308.459c-3.198,0-5.791-2.593-5.791-5.791v-75.047
				c0-3.198,2.593-5.791,5.791-5.791h133.081c3.198,0,5.791,2.593,5.791,5.791v75.047
				C447.331,417.286,444.739,419.879,441.541,419.879z"/>
			<path style="fill:#FFFFFF;" d="M375.021,362.029c0-0.278,0.021-0.55,0.042-0.822c-0.014,0-0.027-0.002-0.042-0.002
				c-6.099,0-11.043,4.944-11.043,11.043c0,6.098,4.944,11.042,11.043,11.042c5.821,0,10.579-4.507,11.001-10.22
				C379.943,373.047,375.021,368.114,375.021,362.029z"/>
		</g>
		<g>
			<g>
				<path style="fill:#EACA71;" d="M544.372,221.062H205.628c-8.644,0-15.651-7.007-15.651-15.651V69.814
					c0-8.644,7.007-15.651,15.651-15.651h338.743c8.644,0,15.651,7.007,15.651,15.651v135.597
					C560.022,214.055,553.015,221.062,544.372,221.062z"/>
				<polygon style="fill:#EACA71;" points="384.789,211.062 375,260.006 384.789,260.006 371.859,314.062 393.859,255.062 
					386.859,255.062 400.359,211.062 				"/>
			</g>
			<g>
				<defs>
					<path id="SVGID_1_" d="M205.628,217.062c-6.424,0-11.651-5.227-11.651-11.651V69.815c0-6.424,5.227-11.651,11.651-11.651
						h338.744c6.424,0,11.65,5.227,11.65,11.651v135.596c0,6.424-5.227,11.651-11.65,11.651H205.628z"/>
				</defs>
				<clipPath id="SVGID_00000087377458832938052290000007312364761940395692_">
					<use xlink:href="#SVGID_1_"  style="overflow:visible;"/>
				</clipPath>
				
					<rect x="145.641" y="37.056" style="clip-path:url(#SVGID_00000087377458832938052290000007312364761940395692_);fill:#FFE48F;" width="438.191" height="196.517"/>
				<g style="clip-path:url(#SVGID_00000087377458832938052290000007312364761940395692_);">
					<g>
						<path style="fill:#866B96;" d="M275.149,116.766c0,9.94-4.47,18.83-11.51,24.79c-7.05-5.95-11.52-14.85-11.52-24.79
							s4.47-18.84,11.52-24.79C270.679,97.926,275.149,106.826,275.149,116.766z"/>
						<path style="fill:#FFFFFF;" d="M418.495,198.077H192.179c-1.508,0-2.73-1.222-2.73-2.73V52.934c0-1.508,1.222-2.73,2.73-2.73
							h226.316c1.508,0,2.73,1.222,2.73,2.73v142.413C421.226,196.855,420.003,198.077,418.495,198.077z"/>
						<path style="fill:#866B96;" d="M275.149,116.766c0,9.94-4.47,18.83-11.51,24.79c-7.05-5.95-11.52-14.85-11.52-24.79
							s4.47-18.84,11.52-24.79C270.679,97.926,275.149,106.826,275.149,116.766z"/>
						
							<ellipse transform="matrix(0.1618 -0.9868 0.9868 0.1618 88.2108 337.383)" style="fill:none;stroke:#866B96;stroke-width:2;stroke-miterlimit:10;" cx="242.711" cy="116.765" rx="32.438" ry="32.438"/>
						
							<ellipse transform="matrix(0.1618 -0.9868 0.9868 0.1618 123.2883 378.6808)" style="fill:none;stroke:#866B96;stroke-width:2;stroke-miterlimit:10;" cx="284.561" cy="116.765" rx="32.438" ry="32.438"/>
						
							<text transform="matrix(1 0 0 1 234.8176 122.2855)" style="fill:#866B96; font-family:'Cabin-Regular'; font-size:15.0681px;">A</text>
						
							<text transform="matrix(1 0 0 1 285.6924 122.2855)" style="fill:#866B96; font-family:'Cabin-Regular'; font-size:15.0681px;">B</text>
						
							<text transform="matrix(1 0 0 1 258.3023 122.2855)" style="fill:#FFFFFF; font-family:'Cabin-Regular'; font-size:15.0681px;">C</text>
						<g>
							<path style="fill:#866B96;" d="M313.715,160.936H212.118c-1.019,0-1.845-0.826-1.845-1.845l0,0
								c0-1.019,0.826-1.845,1.845-1.845h101.596c1.019,0,1.845,0.826,1.845,1.845l0,0
								C315.56,160.11,314.734,160.936,313.715,160.936z"/>
							<path style="fill:#866B96;" d="M313.715,169.909H212.118c-1.019,0-1.845-0.826-1.845-1.845l0,0
								c0-1.019,0.826-1.845,1.845-1.845h101.596c1.019,0,1.845,0.826,1.845,1.845l0,0
								C315.56,169.083,314.734,169.909,313.715,169.909z"/>
							<path style="fill:#866B96;" d="M293.702,178.882h-81.584c-1.019,0-1.845-0.826-1.845-1.845l0,0
								c0-1.019,0.826-1.845,1.845-1.845h81.584c1.019,0,1.845,0.826,1.845,1.845l0,0
								C295.547,178.056,294.721,178.882,293.702,178.882z"/>
						</g>
						<path style="fill:#866B96;" d="M397.737,76.12H212.947c-1.477,0-2.673-1.197-2.673-2.673l0,0c0-1.477,1.197-2.674,2.673-2.674
							h184.791c1.477,0,2.673,1.197,2.673,2.674l0,0C400.411,74.923,399.214,76.12,397.737,76.12z"/>
						<rect x="341.859" y="93.044" style="fill:#866B96;" width="50.5" height="31.56"/>
						<rect x="341.859" y="133.423" style="fill:#866B96;" width="50.5" height="31.56"/>
					</g>
					<g>
						<path style="fill:#542F68;" d="M470.637,221.985c8.155-20.729,13.506-61.224,13.506-61.224
							c-12.744,0.613-35.244,48.26-35.244,48.26s-23.407-27.222-27.983-26.582c-4.576,0.641-5.073,9.513-5.073,9.513
							s10.409,18.283,18.367,30.033H470.637z"/>
						<path style="fill:#693E7B;" d="M460.62,221.985h60.047c10.156-17.351,20.588-40.446,12.462-51.778
							c-0.769-1.073-1.843-1.872-2.85-2.684c-15.243-12.494-41.404-7.749-46.136-6.763c-0.484,0.1-3.448,0.302-6.014,3.803
							c-1.06,1.446-4.582,5.52-4.582,5.52s-13.576,15.176-16.177,22.003c-3.176,8.339,3.441,26.993,3.441,26.993L460.62,221.985z"/>
						<g>
							<path style="fill:#212E42;" d="M488.869,131.934c2.471,7.053,12.13,8.442,16.124,7.868
								c3.994-0.575,22.347-5.349,22.347-5.349s-7.208,19.421,7.955,27.009c15.163,7.588,2.457-10.775,4.045-17.476
								c1.588-6.701,7.588-12.584,6.176-20.848c-1.412-8.264-6.116-15.28-15.234-11.419c0,0-13.185-8.267-23.152-7.762
								C497.163,104.462,481.987,112.289,488.869,131.934z"/>
							<path style="fill:#FF8B66;" d="M526.04,107.572c0,0-24.51-11.552-31.766,5.808c-7.257,17.36-4.825,36.86,7.303,37.004
								C518.64,150.588,544.669,120.015,526.04,107.572z"/>
							<path style="fill:#DB614D;" d="M510.213,131.292c-0.014,1.089-1.129,1.959-2.491,1.942c-1.362-0.017-2.456-0.914-2.443-2.003
								c0.013-1.09,1.129-1.959,2.491-1.942C509.133,129.306,510.226,130.202,510.213,131.292z"/>
							<g>
								<path style="fill:#212E42;" d="M509.531,120.042c-0.163-0.029-0.31-0.133-0.387-0.293c-0.865-1.785-2.947-1.834-2.967-1.832
									c-0.297-0.003-0.531-0.246-0.527-0.54c0.003-0.295,0.245-0.531,0.54-0.527c0.111,0.001,2.764,0.061,3.914,2.434
									c0.129,0.265,0.018,0.584-0.247,0.713C509.752,120.047,509.637,120.061,509.531,120.042z"/>
							</g>
							<g>
								<path style="fill:#212E42;" d="M498.091,115.929c-0.108-0.019-0.21-0.072-0.292-0.157c-1.359-1.427-3.304-0.865-3.386-0.84
									c-0.283,0.085-0.58-0.075-0.665-0.357c-0.085-0.281,0.072-0.578,0.353-0.664c0.108-0.033,2.651-0.785,4.47,1.125
									c0.203,0.214,0.195,0.551-0.018,0.755C498.426,115.912,498.254,115.958,498.091,115.929z"/>
							</g>
							<path style="fill:#212E42;" d="M493.281,134.453c0,0,3.559,2.936,10.546,1.555c0,0-2.964,7.74-7.124,6.222
								C492.544,140.711,493.281,134.453,493.281,134.453z"/>
							<path style="fill:#212E42;" d="M514.789,115.608c0,0,4.962,8.129,3.523,17.756c0,0,4.901-4.742,6.602,0.081
								c1.702,4.823-8.052,10.426-8.052,10.426s14.347,2.517,18.245-15.961C536.75,120.126,527.383,111.736,514.789,115.608z"/>
							<path style="fill:#EF6E4B;" d="M517.022,139.802c-2.579,5.042-11.162,13.291-18.804,9.744c0,0,1.071,8.097-2.573,10.572
								c0,0-4.21,5.672,3.638,7.475c9.817,2.256,16.302-5.124,16.302-5.124c-3.196-10.158,4.159-21.359,4.159-21.359
								C517.43,142.275,517.022,139.802,517.022,139.802z"/>
							<path style="fill:#212E42;" d="M507.007,126.254c-0.21,1.14-0.966,1.955-1.688,1.822c-0.722-0.133-1.137-1.165-0.926-2.304
								c0.21-1.139,0.966-1.955,1.687-1.822C506.802,124.083,507.217,125.115,507.007,126.254z"/>
							<path style="fill:#212E42;" d="M507.733,126.038c0,0-0.296-2.714-1.225-2.887c-0.93-0.173-2.703,1.403-2.703,1.403
								l-1.572-1.455l1.579,0.845c0,0,1.667-1.843,2.921-1.28C507.986,123.228,507.733,126.038,507.733,126.038z"/>
							<path style="fill:#212E42;" d="M496.573,123.354c-0.21,1.14-0.966,1.955-1.687,1.822c-0.722-0.133-1.137-1.165-0.926-2.304
								c0.21-1.139,0.966-1.955,1.688-1.822C496.368,121.184,496.783,122.215,496.573,123.354z"/>
							<path style="fill:#212E42;" d="M497.299,123.138c0,0-0.296-2.714-1.225-2.886c-0.93-0.173-2.703,1.402-2.703,1.402
								l-1.572-1.455l1.579,0.845c0,0,1.667-1.843,2.921-1.279C497.552,120.328,497.299,123.138,497.299,123.138z"/>
							<path style="fill:#FFFFFF;" d="M503.607,126.561l-2.324-0.618c-0.748-0.199-1.515,0.246-1.714,0.993l-0.227,0.853
								c-0.199,0.748,0.246,1.515,0.994,1.714l2.324,0.618c0.748,0.199,1.515-0.246,1.714-0.993l0.227-0.853
								C504.8,127.527,504.355,126.76,503.607,126.561z"/>
							<path style="fill:#FFFFFF;" d="M494.281,124.179l-2.324-0.618c-0.748-0.199-1.515,0.246-1.714,0.993l-0.227,0.853
								c-0.199,0.748,0.246,1.515,0.993,1.714l2.324,0.618c0.748,0.199,1.515-0.246,1.714-0.993l0.227-0.853
								C495.474,125.145,495.029,124.378,494.281,124.179z"/>
							
								<path style="fill:none;stroke:#FFFFFF;stroke-width:0.7941;stroke-linecap:round;stroke-linejoin:round;stroke-miterlimit:10;" d="
								M494.737,126.19c0,0,1.032-1.103,2.788-0.54c1.756,0.563,2.285,2.382,2.285,2.382"/>
							<g>
								<path style="fill:#DB614D;" d="M494.864,131.934l0.598-1.009c-0.184-0.111-1.772-1.125-0.902-2.69
									c0.264-0.475,0.586-0.758,0.955-0.843c0.652-0.151,1.318,0.317,1.325,0.322l0.685-0.953
									c-0.044-0.031-1.09-0.774-2.259-0.515c-0.713,0.158-1.296,0.636-1.731,1.419
									C492.38,129.741,493.899,131.365,494.864,131.934z"/>
							</g>
							
								<polyline style="fill:none;stroke:#FFFFFF;stroke-width:0.7941;stroke-linecap:round;stroke-linejoin:round;stroke-miterlimit:10;" points="
								504.222,128.507 506.34,129.062 518.531,131.261 							"/>
							<path style="fill:#212E42;" d="M508.941,109.651c0,0-6.245,19.798,9.372,23.713c0,0,6.8-8.959,13.485-1.34
								c0,0,10.584-21.021-7.829-26.754c0,0-2.667-8.846-17.632-7.899c-20.9,1.323-22.194,26.327-17.467,34.563
								C488.869,131.934,484.143,106.757,508.941,109.651z"/>
						</g>
						<g>
							<path style="fill:#FF8B66;" d="M410.84,170.722c0,0,0,0,5.956,6.322c5.976,6.314,4.601,6.926,3.806,11.545
								c-0.738,4.321-8.78,3.843-12.031,2.738c-2.755-0.914-9.839,1.145-11.91-0.23c-0.837-0.553-0.056-0.922,2.248-1.282
								c2.706-0.429,5.037-1.744,5.037-1.744c-1.855-2.42-11.488,0.099-13.08-2.788c-0.769-1.406,11.017,0.501,12.041-1.055
								c0,0-0.59-0.942-6.296-2.343c-3.274-0.809-6.653-1.611-6.901-2.681c-0.441-1.948,6.123,0.931,14.255,1.193
								c0,0-3.362-1.49-6.57-2.661c-2.933-1.056-5.785-1.74-5.19-3c0.484-1.036,5.016,0.74,7.947,1.761
								c5.466,1.894,9.877,2.093,12.159,2.029c1.093-0.018,1.696-0.122,1.696-0.122C408.463,171.458,410.84,170.722,410.84,170.722z
								"/>
							<path style="fill:#EF6E4B;" d="M414.005,178.405c0,0-0.323,3.816,1.838,5.788c0,0-4.329-0.962-3.534-5.666
								C413.402,178.509,414.005,178.405,414.005,178.405z"/>
						</g>
						<path style="fill:#FFFFFF;" d="M514.789,157.504c0,0-8.385,7.36-17.858,9.277c0,0-0.579-5.343,0.343-8.64
							c0,0-11.152,0.734-13.131,9.881h5.827l-5.827,15.852l18.09-13.185l3.418,4.906c0,0,10.613-4.103,15.093-9.735L514.789,157.504
							z"/>
						<path style="fill:#542F68;" d="M542.059,221.985c-0.874-18.372-3.132-45.105-8.929-51.778c0,0-15.714,11.02-18.34,24.52
							c-1.293,6.649,0.913,17.725,3.484,27.258H542.059z"/>
					</g>
				</g>
			</g>
		</g>
	</g>
</g>
</svg>
