<?xml version="1.0" encoding="utf-8"?>
<!-- Generator: Adobe Illustrator 27.5.0, SVG Export Plug-In . SVG Version: 6.00 Build 0)  -->
<svg version="1.1" xmlns="http://www.w3.org/2000/svg" xmlns:xlink="http://www.w3.org/1999/xlink" x="0px" y="0px"
	 viewBox="0 0 500 500" style="enable-background:new 0 0 500 500;" xml:space="preserve">
<g id="BACKGROUND">
	<g>
		<g>
			<rect style="fill:#FFFFFF;" width="500" height="500"/>
		</g>
	</g>
</g>
<g id="OBJECTS">
	<g>
		<path style="fill:#F6F6FC;" d="M69.519,467.732c0,0-29.138-39.153-24.889-89.795c2.988-35.624,31.949-51.471,43.466-84.838
			c11.517-33.367-21.491-92.453-5.563-122.477c30.881-58.209,90.036-67.882,129.491-45.102
			c39.455,22.779,46.009,51.242,67.823,38.647c21.814-12.594,45.672-42.96,101.65-25.626c44.398,13.748,80.888,55.986,72.24,115.782
			c-6.308,43.615-64.252,83.203-34.565,128.755c29.688,45.552-12.783,84.655-12.783,84.655H69.519z"/>
		<g>
			<g>
				<path style="fill:none;stroke:#B0BDFC;stroke-width:3;stroke-linecap:round;stroke-linejoin:round;" d="M123.5,336.8
					c0,0-0.712-0.787-1.942-2.283"/>
				
					<path style="fill:none;stroke:#B0BDFC;stroke-width:3;stroke-linecap:round;stroke-linejoin:round;stroke-dasharray:6.0518,10.0864;" d="
					M115.444,326.499c-11.883-16.659-32.458-51.82-29.969-92.833c2.306-38.01,16.852-103.343,71.765-123.06
					c33.934-12.184,76.189,11.769,117.641,3.414c41.452-8.355,88.881-17.069,111.365-6.771
					c28.67,13.131,79.894,84.329,20.563,150.63"/>
				<path style="fill:none;stroke:#B0BDFC;stroke-width:3;stroke-linecap:round;stroke-linejoin:round;" d="M403.376,261.582
					c-0.687,0.715-1.387,1.429-2.1,2.142"/>
			</g>
		</g>
		<g>
			<rect x="295.524" y="46.394" style="fill:#FFFFFF;" width="154.501" height="112.161"/>
			<g>
				<defs>
					<rect id="SVGID_1_" x="295.524" y="46.394" width="154.501" height="112.161"/>
				</defs>
				<clipPath id="SVGID_00000140006567734546903060000016805005666177692086_">
					<use xlink:href="#SVGID_1_"  style="overflow:visible;"/>
				</clipPath>
				<g style="clip-path:url(#SVGID_00000140006567734546903060000016805005666177692086_);">
					<g>
						<path style="fill:#F6B684;" d="M342.744,146.486c-4.2,5.07-14.138,34.412-14.138,34.412l8.636-3.165
							c0,0,21.826-35.751,17.77-36.995C350.952,139.492,346.943,141.416,342.744,146.486z"/>
					</g>
					<path style="fill:#F6B684;" d="M391.526,166.395c0.838,8.433-38.202,0.391-37.984-6.68c0.204-6.663,2.131-18.603,3.418-23.113
						c3.637-12.754,13.398-2.03,22.722-3.285C382.16,141.066,386.827,145.585,391.526,166.395z"/>
					<path style="fill:#465C85;" d="M401.327,143.582c-0.637-1.194-19.791-5.647-19.791-5.647s-13.643,7.48-24.945,0.254
						c0,0,0.504-1.19-8.486,3.487c-4.357,2.266-7.917,27.556-8.286,32.42c-0.379,5.009-7.084,47.172-6.707,64.159
						c8.655,4.91,64.896-2.307,64.896-2.307s0.582-43.185-3.143-71.202c-0.052-0.392,1.778-0.227,2.082-0.721
						C399.059,160.593,402.607,146.59,401.327,143.582z"/>
					<path style="fill:#465C85;" d="M339.741,149.438c0,0-3.867,6.629-5.109,10.496c-1.243,3.867-1.243,3.867-1.243,3.867
						l10.634,2.071l5.386-24.72C349.408,141.152,344.436,142.947,339.741,149.438z"/>
					<polygon style="opacity:0.07;fill:#070707;" points="341.398,154.317 339.877,165.064 340.932,165.064 					"/>
					<g>
						<g>
							<g>
								<g>
									<path style="fill:#F6B684;" d="M375.031,75.501c0,0,5.801,1.185,11.953,4.514c6.307,3.413,12.98,9.083,14.142,18.041
										c0.669,5.159,0.388,10.175-0.835,14.803c-2.975,11.247-11.506,20.191-25.431,23.277
										c-9.826,2.178-20.575,1.162-28.723-4.431c-8.15-5.591-13.318-17.846-11.673-28.246c1.645-10.4,6.219-16.04,13.405-21.057
										C355.055,77.384,364.469,75.074,375.031,75.501z"/>
									<g>
										<path style="fill:#FFFFFF;" d="M364.683,116.909c-3.373,0-5.735-0.025-7.237-0.391c-1.243-0.303-2.159-0.432-2.024,0.471
											c0.333,2.232,2.319,3.929,4.616,4.25c2.629,0.367,4.458-0.664,5.965-2.673
											C366.809,117.494,366.095,116.909,364.683,116.909L364.683,116.909z"/>
									</g>
									<g>
										<path style="fill:#D78A49;" d="M360.424,113.4c-0.02,0.001-0.04,0.001-0.06-0.001c-0.095-0.006-0.935-0.055-1.482-0.193
											c-1.32-0.335-1.809-1.014-1.986-1.522c-0.183-0.527-0.218-1.4,0.667-2.562c0.785-1.032,0.862-3.067,0.824-3.766
											c-0.02-0.368,0.264-0.684,0.633-0.702c0.006,0,0.01,0,0.015,0c0.363-0.012,0.669,0.268,0.69,0.632
											c0.007,0.121,0.149,3.015-1.096,4.648c-0.403,0.529-0.574,1.005-0.469,1.308c0.098,0.282,0.472,0.519,1.05,0.665
											c0.357,0.09,1.008,0.142,1.227,0.155c0.37,0.021,0.654,0.337,0.632,0.706C361.05,113.117,360.768,113.388,360.424,113.4z"
											/>
									</g>
									<path style="opacity:0.32;fill:#E59A53;" d="M336.415,119.66c0.947,0.438,2.005,0.666,3.119,0.63
										c3.807-0.125,6.792-3.312,6.667-7.118c-0.125-3.806-3.311-6.793-7.118-6.668c-1.427,0.047-2.74,0.524-3.815,1.302"/>
								</g>
								<path style="fill:#443B41;" d="M345.847,105.549c-0.051,1.416,0.719,2.593,1.719,2.629c1.001,0.037,1.855-1.082,1.908-2.496
									c0.052-1.416-0.718-2.595-1.721-2.631C346.751,103.016,345.898,104.133,345.847,105.549z"/>
							</g>
							<path style="opacity:0.32;fill:#E59A53;" d="M393.837,114.359c0.133,4.06-3.05,7.46-7.11,7.592
								c-4.06,0.133-7.459-3.051-7.592-7.111c-0.133-4.058,3.051-7.458,7.111-7.591
								C390.305,107.117,393.704,110.301,393.837,114.359z"/>
							<g>
								<path style="fill:#F6B684;" d="M393.557,119.803c0.384,0.092,1.246,0.193,1.66,0.18c2.484-0.081,4.432-2.161,4.351-4.647
									c-0.081-2.483-2.161-4.431-4.645-4.35c-0.623,0.02-1.464-0.181-1.994,0.065c0,0,0.766,2.673,0.697,5.713
									C393.557,119.803,393.557,119.803,393.557,119.803z"/>
								<g style="opacity:0.37;">
									<path style="fill:#D78A49;" d="M397.324,116.358c-0.325,0.011-0.619-0.213-0.685-0.544
										c-0.366-1.858-2.112-2.058-2.187-2.067c-0.369-0.037-0.641-0.367-0.606-0.736c0.037-0.367,0.361-0.638,0.73-0.605
										c0.974,0.084,2.937,0.853,3.389,3.148c0.072,0.365-0.168,0.72-0.533,0.791
										C397.394,116.354,397.358,116.357,397.324,116.358z"/>
								</g>
							</g>
							<path style="fill:#EFD97A;" d="M407.298,133.095c9.475-2.242,15.71-11.395,12.431-18.468
								c-3.279-7.074-5.4-21.387-14.955-36.717c-6.789-10.891-26.545-15.376-40.925-12.864c-13.722,2.397-24.664,5.087-31.62,30.836
								c-6.955,25.749-7.22,22.668-9.397,25.976c-2.177,3.307,6.569,13.282,25.731,11.339l-2.91-1.831c0,0-6.911-4.103-8.921-17.191
								c-2.01-13.088,5.778-27.37,5.778-27.37s21.999,14.366,38.998,16.389c9.275,1.104,10.592,13.173,7.51,16.993
								C383.175,127.426,391.979,136.72,407.298,133.095z"/>
						</g>
						<path style="opacity:0.07;fill:#070707;" d="M357.07,136.34c0,0,15.384,1.45,20.175-0.759c0,0-5.407,3.969-20.541,2.271
							L357.07,136.34z"/>
						<g>
							<path style="fill:#443B41;" d="M378.365,109.975c-0.085,0-0.172-0.021-0.252-0.063l-3.628-1.942
								c-0.176-0.094-0.284-0.279-0.281-0.479c0.003-0.199,0.117-0.38,0.296-0.469l3.628-1.8c0.261-0.131,0.583-0.024,0.715,0.241
								c0.131,0.264,0.023,0.584-0.24,0.714l-2.702,1.341l2.717,1.454c0.259,0.139,0.357,0.462,0.218,0.722
								C378.739,109.873,378.554,109.975,378.365,109.975z"/>
						</g>
					</g>
					<g>
						<path style="fill:#364968;" d="M399.021,145.538c0,0,1.908-2.847,2.346-1.845c0.439,1.002,0.419,1.8,0.419,1.8
							L399.021,145.538z"/>
						<path style="fill:#364968;" d="M395.392,161.217c0,0,1.768,0.091,2.937,0.297c0,0-0.231,1.594-0.671,2.033
							C395.743,165.464,395.501,162.783,395.392,161.217z"/>
						<g>
							<path style="fill:#F6B684;" d="M426.482,97.356c-0.625-0.163-1.098,0.213-1.308,0.701c-0.752,1.749-1.566,4.991-1.922,6.484
								l-0.063-0.194c0.195-1.641,0.542-4.855,0.393-5.85c-0.13-0.87-1.487-1.03-1.792,0.14c-0.349,1.336-1.044,4.288-1.607,6.594
								c-0.178,0.397-0.365,0.813-0.558,1.244c-0.118-0.013-0.256-0.096-0.428-0.276c-0.82-0.853-2.383-2.216-3.142-1.358
								c-0.475,1.226,0.73,1.528,1.863,4.008c0.111,0.244,0.126,0.694,0.085,1.239c-1.109,6.237-7.982,36.096-7.982,36.096
								c-6.95-0.948-6.274-0.66-10.988-0.66c0,0-3.641,7.129-3.62,15.702c2.879,0.511,18.3,1.296,23.966-2.979
								c3.526-2.66,6.323-36.32,6.439-43.159c0.451-1.522,1.279-3.515,1.937-4.408c0.338-0.459,2.654-4.777,3.449-7.31
								c0.348-1.108-0.153-1.826-1.157-1.301c-0.781,0.408-2.66,4.521-2.66,4.521s1.43-5.095,1.567-5.908
								c0.137-0.811-0.011-1.736-0.609-1.924c-0.905-0.085-2.019,3.059-2.651,5.121c0.414-1.483,0.984-3.62,1.307-5.247
								C427.128,97.998,426.845,97.519,426.482,97.356z"/>
						</g>
					</g>
				</g>
				
					<use xlink:href="#SVGID_1_"  style="overflow:visible;fill:none;stroke:#C9D2F9;stroke-width:6.4631;stroke-linecap:round;stroke-linejoin:round;stroke-miterlimit:10;"/>
			</g>
			<g>
				<rect x="298.736" y="49.612" style="fill:#2D2429;" width="148.073" height="5.386"/>
				<g>
					<path style="fill:#D3675E;" d="M304.079,52.193c0,0.887-0.719,1.605-1.605,1.605c-0.887,0-1.605-0.719-1.605-1.605
						c0-0.887,0.719-1.605,1.605-1.605C303.36,50.588,304.079,51.307,304.079,52.193z"/>
					<path style="fill:#EBBF54;" d="M309.157,52.193c0,0.887-0.719,1.605-1.605,1.605s-1.605-0.719-1.605-1.605
						c0-0.887,0.719-1.605,1.605-1.605S309.157,51.307,309.157,52.193z"/>
					<path style="fill:#ABDBAC;" d="M314.236,52.193c0,0.887-0.719,1.605-1.605,1.605c-0.887,0-1.605-0.719-1.605-1.605
						c0-0.887,0.719-1.605,1.605-1.605C313.517,50.588,314.236,51.307,314.236,52.193z"/>
				</g>
			</g>
		</g>
		<g>
			<g>
				<g>
					<path style="fill:#F6B684;" d="M329.942,319.511c0,0-0.534,7.157,0.257,10.553c0.791,3.396-2.977,10.001-23.257,4.822
						c-20.28-5.179-15.25-4.822-15.25-4.822s2.094-5.553,2.094-7.928S329.942,319.511,329.942,319.511z"/>
					<g>
						<path style="fill:#F6B684;" d="M237.19,339.833l-37.112-52.667c-2.828-5.234-4.566-11.38-4.434-11.945
							c1.35-5.737,2.043-9.221,0.189-10.447c-2.065-1.153-5.148,7.073-5.401,7.185c-0.623-0.714-0.857-1.391-1.432-2.276
							c-2.298-4.166-5.183-9.518-6.564-11.916c-1.209-2.1-4.117-0.803-4.004,1.017c0.13,2.08,2.371,8.204,3.555,11.317l-0.048,0.431
							c-1.469-2.704-4.75-8.545-7.208-11.471c-0.684-0.815-1.898-1.219-3.197-0.445c-0.723,0.586-1.124,1.74-0.557,2.904
							c1.46,2.993,3.695,6.82,5.287,9.462c-2.336-3.633-6.231-9.063-8.182-8.241c-1.229,0.805-1.129,2.746-0.455,4.255
							c0.676,1.512,6.162,10.584,6.162,10.584s-6.024-6.8-7.928-7.044c-2.449-0.315-3.22,1.47-1.946,3.417
							c2.914,4.451,9.992,11.341,10.945,12.006c1.858,1.296,4.593,4.651,6.285,7.343c0,0,32.975,60.647,36.53,64.862
							c5.222,6.191,41.074,11.76,41.074,11.76l2.806-29.371L237.19,339.833z"/>
					</g>
					<g>
						<g>
							<g>
								<path style="fill:#7CC6D3;" d="M359.523,460.475l2.39-76.164c0,0,13.239-17.968-2.015-37.979
									C347.685,330.31,329.585,329,329.585,329s-12.951,4.28-22.157,3.823c-13.541-0.673-15.339-3.862-15.339-3.862
									s-20.858,2.045-41.222,9.217c-2.141,9.502-2.141,33.952-2.141,33.952l20.219,6.618l-11.547,81.418"/>
							</g>
							<path style="opacity:0.05;fill:#0D0D0D;" d="M339.568,459.993c13.031-14.305,21.116-38.365,22.345-75.682l-2.508,76.16"/>
							<polygon style="opacity:0.07;fill:#0D0D0D;" points="271.231,357.112 266.33,377.892 268.944,378.748 							"/>
						</g>
					</g>
					<g>
						<g>
							<path style="fill:#EBC397;" d="M268.913,431.38c0.836-0.159,1.579-0.294,2.089-0.323"/>
						</g>
						<g>
							<path style="fill:#F6B684;" d="M268.632,432.426c9.331-0.532,31.954-8.183,38.767-12.249
								c8.025-4.79,18.772-36.222,22.186-42.134c20.082,0,25.828,12.197,25.828,12.197c-5.528,12.161-20.249,36.162-36.963,44.554
								c-14.59,7.325-34.505,8.973-46.697,9.666c-0.921,0.052-1.887,0.069-2.84,0.161"/>
						</g>
					</g>
					<path style="fill:#F6B684;" d="M269.678,444.77c4.065-0.858,2.735-10.296,1.388-11.921c-1.347-1.626-10.361-2.237-13.919-0.892
						c-3.558,1.344-8.744,2.677-14.097,8.03c-5.353,5.354,0,6.96,0,6.96S265.613,445.627,269.678,444.77"/>
					<path style="fill:#6BB7BF;" d="M292.089,328.961c0,0,1.798,3.189,15.339,3.862c9.206,0.458,22.157-3.823,22.157-3.823
						s4.466,0.734,5.648,1.064c0,0-7.95,8.744-23.131,8.854c-11.956,0.087-19.42-2.618-22.642-5.841
						c-2.486-2.486-2.798-3.37-2.798-3.37C288.057,329.458,292.089,328.961,292.089,328.961z"/>
					<polygon style="opacity:0.07;fill:#0D0D0D;" points="331.302,362.464 327.124,376.622 329.585,378.043 328.377,380.135 
						324.187,377.716 					"/>
					<polygon style="opacity:0.07;fill:#0D0D0D;" points="361.913,384.311 357.132,392.369 354.998,391.137 353.927,393.343 
						357.37,395.372 					"/>
					<g>
						<g>
							<g>
								<g>
									<path style="fill:#F6B684;" d="M327.684,207.536c0,0,11.31,2.691,23.169,9.614c12.159,7.098,24.895,18.644,26.609,36.298
										c0.987,10.165,0.114,19.992-2.58,28.993c-6.547,21.881-23.854,38.892-51.371,44.066
										c-19.419,3.651-40.447,0.977-56.083-10.512c-15.636-11.488-24.998-35.863-21.115-56.167
										c3.884-20.304,13.217-31.077,27.635-40.469C288.366,209.968,306.987,206.029,327.684,207.536z"/>
									<g>
										<path style="fill:#D78A49;" d="M296.622,280.978c-0.039,0-0.077-0.002-0.116-0.005c-0.185-0.017-1.834-0.166-2.896-0.472
											c-2.568-0.739-3.485-2.101-3.803-3.112c-0.328-1.047-0.34-2.761,1.471-4.985c1.605-1.972,1.885-5.964,1.857-7.336
											c-0.015-0.727,0.561-1.327,1.287-1.343c0.727-0.011,1.327,0.56,1.344,1.285c0.005,0.24,0.102,5.925-2.446,9.054
											c-0.824,1.014-1.189,1.939-1.002,2.538c0.176,0.56,0.894,1.047,2.02,1.37c0.696,0.201,1.967,0.343,2.398,0.38
											c0.724,0.063,1.26,0.701,1.196,1.425C297.871,280.462,297.296,280.978,296.622,280.978z"/>
									</g>
									<g>
										<g>
											<path style="fill:#4E4449;" d="M242.793,234.805c0,0-4.417-7.891,0-15.651c5.114-5.114,12.336-2.421,10.978-4.812
												c-2.174-3.827-1.081-11.257,0.879-13.636c4.486-5.443,11.497-4.294,16.352-4.294c0-4.1-0.261-8.609,5.929-10.935
												c5.832-2.192,11.77,1.645,15.309,5.183c0-6.662,12.679-18.389,23.525-2.119c2.469-4.366,22.469-15.406,31.711,6.786
												c4.08-2.027,19.299-4.797,28.681,7.281c3.335,4.293,3.769,7.751,4.1,13.178c9.664,0,20.499,17.391,12.769,27.666
												c-3.371,4.482-2.286,0.542,2.51,9.249c3.136,5.693-0.5,15.454-5.241,18.97c2.634,8.893-3.325,19.375-12.315,21.659
												c1.579,2.869,0.363,6.7-2.142,8.81c-2.504,2.11-5.96,2.754-9.232,2.628c-2.267-0.088-4.645-0.567-6.335-2.08
												c-3.38-3.024-2.531-8.475-1.04-12.759c-2.583-1.028-4.233-3.73-4.611-6.484c-0.379-2.754,0.335-5.549,1.354-8.135
												c0.555-1.409,4.505-3.087-1.55-6.673c-2.958-1.752-3.497-6.212-2.333-9.447c0.499-1.389,1.392-2.605,2.503-3.573
												c-0.33-0.146-0.584-0.261-0.725-0.336c-1.153-0.606-2.534-0.46-3.833-0.559c-4.68-0.357-8.755-4.552-8.978-9.24
												c-0.06-1.258,0.085-2.654-0.697-3.641c-0.855-1.078-2.442-1.509-3.795-1.258c-11.369,2.104-18.747,0.527-23.45-9.623
												c-1.267,4.727-10.595,7.984-15.45,7.368c-4.856-0.616-10.352-7.378-10.398-12.273
												c-2.487,4.475-7.452,16.866-20.426,7.179c-11.252,15.076-22.429,32.796-14.231,64.835
												c-7.42-6.588-16.387-23.408-14.322-33.535C227.71,244.716,242.793,234.805,242.793,234.805z"/>
										</g>
									</g>
									<path style="fill:#FFFFFF;" d="M307.272,287.66c0,0-11.559,2.717-20.927-0.963c-1.423-0.559-3.056,0.245-3.435,1.726
										c-0.055,0.214-0.093,0.445-0.111,0.693c-0.163,2.278,3.067,6.682,7.684,8.151c4.616,1.469,12.709,1.006,16.248-2.06
										C310.27,292.142,310.149,287.155,307.272,287.66z"/>
									
										<ellipse transform="matrix(0.2309 -0.973 0.973 0.2309 -18.4859 549.6517)" style="opacity:0.32;fill:#E59A53;" cx="338.418" cy="286.518" rx="11.137" ry="11.137"/>
									<path style="opacity:0.32;fill:#E59A53;" d="M249.828,275.074c2.043-2.472,5.132-4.048,8.59-4.048
										c6.151,0,11.137,4.986,11.137,11.137c0,6.151-4.986,11.137-11.137,11.137c-2.728,0-5.228-0.981-7.164-2.61"/>
									<g>
										<path style="fill:#443B41;" d="M324.915,269.176c-0.23,2.789,1.183,5.182,3.156,5.345
											c1.973,0.163,3.759-1.967,3.989-4.756c0.23-2.789-1.183-5.183-3.156-5.345
											C326.931,264.257,325.145,266.386,324.915,269.176z"/>
										<path style="fill:#443B41;" d="M267.712,264.744c-0.23,2.79,1.183,5.183,3.156,5.346c1.973,0.163,3.758-1.967,3.989-4.756
											c0.23-2.79-1.183-5.183-3.156-5.345C269.728,259.826,267.942,261.955,267.712,264.744z"/>
									</g>
								</g>
								<path style="opacity:0.07;fill:#0D0D0D;" d="M292.798,326.703c0,0,13.512,3.228,29.228-0.352
									c-1.79,1.034-12.197,6.232-29.813,2.286L292.798,326.703z"/>
							</g>
						</g>
					</g>
				</g>
				<g>
					<path style="fill:#465C85;" d="M214.954,342.87l26.322,109.608H125.367c-5,0-9.342-3.445-10.479-8.314l-21.667-92.565
						c-1.014-4.343,2.283-8.497,6.742-8.497L214.954,342.87z"/>
					<g>
						<path style="fill:#364E70;" d="M322.001,452.478H241.18c-1.895,0-3.55-1.282-4.024-3.116l-26.171-101.296
							c-0.574-2.223,0.762-4.49,2.985-5.064c2.224-0.573,4.49,0.763,5.064,2.985l25.366,98.178h77.601
							c2.296,0,4.156,1.861,4.156,4.157C326.157,450.618,324.296,452.478,322.001,452.478z"/>
					</g>
					<path style="fill:#364E70;" d="M167.875,393.919c3.264,3.972,3.324,9.317,0.134,11.938c-3.19,2.622-8.422,1.527-11.686-2.445
						c-3.264-3.972-3.324-9.317-0.134-11.938C159.379,388.853,164.611,389.947,167.875,393.919z"/>
				</g>
			</g>
			
				<rect y="452.841" transform="matrix(-1 -1.224647e-16 1.224647e-16 -1 500 952.8407)" style="fill:#B0BDFC;" width="500" height="47.159"/>
			<g>
				<path style="fill:#EFD97A;" d="M450.002,452.892h-36.245c-1.511,0-2.803-1.086-3.064-2.574l-6.097-34.787h54.566l-6.097,34.787
					C452.805,451.807,451.512,452.892,450.002,452.892z"/>
				<path style="fill:#EFD97A;" d="M456.72,424.599h-50.152c-1.148,0-2.128-0.827-2.322-1.958l-1.145-6.681
					c-0.182-1.063,0.636-2.033,1.714-2.033h53.658c1.078,0,1.897,0.971,1.714,2.033l-1.145,6.681
					C458.848,423.772,457.868,424.599,456.72,424.599z"/>
				<polygon style="opacity:0.07;fill:#0D0D0D;" points="457.212,426.661 406.547,426.661 406.186,424.599 457.573,424.599 				"/>
				<path style="fill:#4C9393;" d="M409.316,413.927c0,0-20.124-20.393-10.812-43.005s33.343-18.561,42.747-2.272
					c9.404,16.289-4.935,45.285-4.935,45.285L409.316,413.927z"/>
				<path style="fill:#539DA5;" d="M433.554,413.935c0,0-7.09-24.31,6.53-33.625c13.659-9.342,23.638,0.105,24.887,7.5
					c2.363,14-10.749,26.117-10.749,26.117L433.554,413.935z"/>
				
					<line style="fill:none;stroke:#7CC6D3;stroke-linecap:round;stroke-linejoin:round;stroke-miterlimit:10;" x1="394.501" y1="389.643" x2="397.965" y2="387.643"/>
				
					<line style="fill:none;stroke:#7CC6D3;stroke-linecap:round;stroke-linejoin:round;stroke-miterlimit:10;" x1="403.846" y1="377.364" x2="407.662" y2="378.563"/>
				
					<line style="fill:none;stroke:#7CC6D3;stroke-linecap:round;stroke-linejoin:round;stroke-miterlimit:10;" x1="430.724" y1="371.127" x2="433.985" y2="368.81"/>
				
					<line style="fill:none;stroke:#7CC6D3;stroke-linecap:round;stroke-linejoin:round;stroke-miterlimit:10;" x1="420.136" y1="377.153" x2="423.615" y2="375.179"/>
				
					<line style="fill:none;stroke:#7CC6D3;stroke-linecap:round;stroke-linejoin:round;stroke-miterlimit:10;" x1="429.624" y1="360.472" x2="431.824" y2="357.131"/>
				
					<line style="fill:none;stroke:#7CC6D3;stroke-linecap:round;stroke-linejoin:round;stroke-miterlimit:10;" x1="441.219" y1="373.995" x2="444.448" y2="371.633"/>
				
					<line style="fill:none;stroke:#7CC6D3;stroke-linecap:round;stroke-linejoin:round;stroke-miterlimit:10;" x1="449.545" y1="378.141" x2="450.171" y2="374.19"/>
				
					<line style="fill:none;stroke:#7CC6D3;stroke-linecap:round;stroke-linejoin:round;stroke-miterlimit:10;" x1="433.835" y1="395.173" x2="429.924" y2="394.333"/>
				
					<line style="fill:none;stroke:#7CC6D3;stroke-linecap:round;stroke-linejoin:round;stroke-miterlimit:10;" x1="439.439" y1="383.634" x2="436.628" y2="380.788"/>
				
					<line style="fill:none;stroke:#7CC6D3;stroke-linecap:round;stroke-linejoin:round;stroke-miterlimit:10;" x1="447.834" y1="391.948" x2="445.023" y2="389.103"/>
				
					<line style="fill:none;stroke:#7CC6D3;stroke-linecap:round;stroke-linejoin:round;stroke-miterlimit:10;" x1="458.97" y1="401.338" x2="455.015" y2="400.743"/>
				
					<line style="fill:none;stroke:#7CC6D3;stroke-linecap:round;stroke-linejoin:round;stroke-miterlimit:10;" x1="439.939" y1="401.194" x2="442.499" y2="398.121"/>
				
					<line style="fill:none;stroke:#7CC6D3;stroke-linecap:round;stroke-linejoin:round;stroke-miterlimit:10;" x1="455.304" y1="386.856" x2="458.681" y2="384.711"/>
				
					<line style="fill:none;stroke:#7CC6D3;stroke-linecap:round;stroke-linejoin:round;stroke-miterlimit:10;" x1="462.832" y1="389.979" x2="466.68" y2="391.072"/>
				
					<line style="fill:none;stroke:#7CC6D3;stroke-linecap:round;stroke-linejoin:round;stroke-miterlimit:10;" x1="458.005" y1="379.635" x2="461.381" y2="377.491"/>
				
					<line style="fill:none;stroke:#7CC6D3;stroke-linecap:round;stroke-linejoin:round;stroke-miterlimit:10;" x1="450.171" y1="403.169" x2="452.684" y2="406.281"/>
				
					<line style="fill:none;stroke:#7CC6D3;stroke-linecap:round;stroke-linejoin:round;stroke-miterlimit:10;" x1="443.191" y1="407.626" x2="445.704" y2="410.738"/>
				
					<line style="fill:none;stroke:#7CC6D3;stroke-linecap:round;stroke-linejoin:round;stroke-miterlimit:10;" x1="435.811" y1="408.367" x2="432.158" y2="409.998"/>
				
					<line style="fill:none;stroke:#7CC6D3;stroke-linecap:round;stroke-linejoin:round;stroke-miterlimit:10;" x1="459.162" y1="392.635" x2="462.6" y2="394.679"/>
				
					<line style="fill:none;stroke:#7CC6D3;stroke-linecap:round;stroke-linejoin:round;stroke-miterlimit:10;" x1="426.139" y1="382.211" x2="429.35" y2="384.597"/>
				
					<line style="fill:none;stroke:#7CC6D3;stroke-linecap:round;stroke-linejoin:round;stroke-miterlimit:10;" x1="407.064" y1="399.702" x2="404.092" y2="402.379"/>
				
					<line style="fill:none;stroke:#7CC6D3;stroke-linecap:round;stroke-linejoin:round;stroke-miterlimit:10;" x1="424.182" y1="401.04" x2="428.097" y2="401.86"/>
				
					<line style="fill:none;stroke:#7CC6D3;stroke-linecap:round;stroke-linejoin:round;stroke-miterlimit:10;" x1="415.004" y1="390.048" x2="413.28" y2="393.657"/>
				
					<line style="fill:none;stroke:#7CC6D3;stroke-linecap:round;stroke-linejoin:round;stroke-miterlimit:10;" x1="416.163" y1="404.725" x2="415.988" y2="408.721"/>
				
					<line style="fill:none;stroke:#7CC6D3;stroke-linecap:round;stroke-linejoin:round;stroke-miterlimit:10;" x1="413.931" y1="360.342" x2="416.076" y2="363.719"/>
				
					<line style="fill:none;stroke:#7CC6D3;stroke-linecap:round;stroke-linejoin:round;stroke-miterlimit:10;" x1="417.301" y1="353.181" x2="417.881" y2="357.139"/>
				
					<line style="fill:none;stroke:#7CC6D3;stroke-linecap:round;stroke-linejoin:round;stroke-miterlimit:10;" x1="399.35" y1="364.274" x2="402.646" y2="366.54"/>
			</g>
		</g>
		<g>
			<rect x="40.641" y="81.532" style="fill:#FFFFFF;" width="154.501" height="112.161"/>
			<g>
				<defs>
					
						<rect id="SVGID_00000006710350110365324740000008545442290288080533_" x="40.641" y="81.532" width="154.501" height="112.161"/>
				</defs>
				<clipPath id="SVGID_00000091694327162285142090000011313354845283912587_">
					<use xlink:href="#SVGID_00000006710350110365324740000008545442290288080533_"  style="overflow:visible;"/>
				</clipPath>
				<g style="clip-path:url(#SVGID_00000091694327162285142090000011313354845283912587_);">
					<g>
						<path style="fill:#EAC096;" d="M155.106,181.227c4.2,5.07,14.138,34.412,14.138,34.412l-8.636-3.165
							c0,0-21.826-35.751-17.77-36.995C146.898,174.233,150.907,176.157,155.106,181.227z"/>
					</g>
					<path style="fill:#88D9E2;" d="M96.523,178.323c0.637-1.194,22.97-3.292,22.97-3.292s8.795,5.352,20.098-1.874
						c0,0,1.165-1.417,10.155,3.26c4.357,2.266,7.917,27.556,8.286,32.42c0.379,5.009,7.084,47.172,6.707,64.159
						c-8.655,4.909-64.896-2.307-64.896-2.307s-0.582-43.185,3.143-71.202c0.052-0.392-1.778-0.227-2.082-0.721
						C98.79,195.333,95.243,181.331,96.523,178.323z"/>
					<path style="fill:#88D9E2;" d="M158.109,184.179c0,0,3.867,6.629,5.11,10.496c1.243,3.867,1.243,3.867,1.243,3.867
						l-10.634,2.071l-5.386-24.72C148.442,175.892,153.413,177.688,158.109,184.179z"/>
					<polygon style="opacity:0.07;fill:#070707;" points="156.452,189.058 157.973,199.805 156.918,199.805 					"/>
					<g>
						<g>
							<path style="fill:#A4755F;" d="M71.368,132.097c0.625-0.163,1.098,0.213,1.308,0.701c0.752,1.749,1.566,4.991,1.922,6.484
								l0.063-0.194c-0.195-1.641-0.542-4.855-0.393-5.85c0.13-0.87,1.487-1.03,1.792,0.14c0.349,1.337,1.044,4.288,1.607,6.594
								c0.178,0.397,0.365,0.813,0.558,1.244c0.118-0.014,0.256-0.096,0.429-0.276c0.82-0.853,2.383-2.216,3.142-1.358
								c0.475,1.226-0.731,1.528-1.863,4.008c-0.112,0.244-0.126,0.694-0.085,1.239c1.109,6.236,7.982,36.096,7.982,36.096
								c6.95-0.948,6.274-0.659,10.988-0.659c0,0,3.641,7.129,3.619,15.702c-2.879,0.511-18.3,1.296-23.965-2.979
								c-3.526-2.66-6.323-36.32-6.439-43.159c-0.451-1.522-1.279-3.515-1.937-4.408c-0.338-0.458-2.654-4.776-3.449-7.31
								c-0.348-1.108,0.153-1.826,1.157-1.301c0.781,0.407,2.66,4.521,2.66,4.521s-1.43-5.095-1.567-5.908
								c-0.137-0.811,0.011-1.736,0.609-1.924c0.905-0.085,2.019,3.059,2.65,5.121c-0.414-1.483-0.984-3.62-1.307-5.247
								C70.722,132.739,71.005,132.26,71.368,132.097z"/>
						</g>
						<path style="fill:#74CACE;" d="M98.829,180.278c0,0-1.908-2.847-2.346-1.845c-0.438,1.002-0.419,1.8-0.419,1.8L98.829,180.278
							z"/>
						<path style="fill:#97C697;" d="M102.457,195.958c0,0-1.767,0.091-2.937,0.297c0,0,0.231,1.594,0.671,2.033
							C102.107,200.205,102.349,197.524,102.457,195.958z"/>
					</g>
					<g>
						<path style="fill:#A4755F;" d="M121.44,169.488c0,0-1.064,3.273-1.948,5.542c0,0,10.725,6.152,20.098-1.874
							c0,0-0.959-0.824-1.383-3.339L121.44,169.488z"/>
						<g>
							<path style="fill:#A4755F;" d="M121.952,113.702c0,0-5.469,1.268-11.215,4.578c-5.892,3.394-12.074,8.934-12.951,17.455
								c-0.505,4.906-0.111,9.654,1.165,14.009c3.101,10.585,11.411,18.848,24.685,21.423c9.367,1.817,19.53,0.584,27.113-4.92
								c7.583-5.504,12.172-17.249,10.353-27.065c-1.819-9.816-6.296-15.045-13.233-19.62
								C140.932,114.986,131.951,113.032,121.952,113.702z"/>
							<g>
								<path style="fill:#865B49;" d="M136.747,149.255c-0.326-0.002-0.602-0.253-0.629-0.584c-0.028-0.35,0.232-0.656,0.582-0.685
									c0.209-0.017,0.824-0.082,1.158-0.177c0.546-0.154,0.894-0.387,0.98-0.657c0.092-0.289-0.081-0.736-0.477-1.228
									c-1.222-1.519-1.16-4.263-1.156-4.379c0.009-0.351,0.3-0.622,0.652-0.617c0.35,0.009,0.627,0.301,0.618,0.652
									c-0.017,0.662,0.106,2.591,0.876,3.548c0.868,1.079,0.858,1.907,0.696,2.412c-0.156,0.488-0.602,1.143-1.845,1.493
									c-0.513,0.145-1.31,0.212-1.4,0.22C136.785,149.255,136.766,149.255,136.747,149.255z"/>
							</g>
							<g>
								<g>
									<path style="fill:#4E4449;" d="M162.871,127.107c0,0,2.155-3.798,0.044-7.558c-2.455-2.484-5.951-1.204-5.288-2.354
										c1.06-1.842,0.553-5.434-0.387-6.588c-2.151-2.641-5.54-2.106-7.885-2.119c0.011-1.98,0.15-4.157-2.833-5.297
										c-2.811-1.075-5.689,0.761-7.407,2.46c0.018-3.217-6.072-8.916-11.355-1.089c-1.18-2.115-10.808-7.503-15.333,3.189
										c-1.965-0.99-9.307-2.37-13.871,3.436c-1.623,2.064-1.842,3.733-2.017,6.353c-4.667-0.027-9.948,8.341-6.244,13.325
										c1.615,2.174,1.102,0.268-1.238,4.459c-1.53,2.741,0.198,7.464,2.478,9.176c-1.297,4.287,1.552,9.366,5.886,10.494
										c-0.77,1.381-0.194,3.235,1.01,4.261c1.203,1.026,2.871,1.347,4.451,1.295c1.095-0.036,2.245-0.261,3.065-0.987
										c1.641-1.451,1.246-4.086,0.538-6.159c1.25-0.489,2.054-1.789,2.245-3.118c0.19-1.329-0.146-2.68-0.631-3.932
										c-0.264-0.682-2.167-1.503,0.767-3.218c1.433-0.838,1.706-2.99,1.153-4.555c-0.237-0.672-0.665-1.262-1.199-1.732
										c0.16-0.069,0.283-0.124,0.351-0.16c0.558-0.29,1.225-0.215,1.853-0.259c2.261-0.16,4.241-2.174,4.362-4.437
										c0.032-0.607-0.034-1.282,0.347-1.756c0.416-0.518,1.184-0.722,1.836-0.597c5.485,1.048,9.052,0.307,11.351-4.582
										c0.599,2.287,5.094,3.885,7.441,3.601c2.347-0.284,5.02-3.534,5.055-5.898c1.189,2.168,3.552,8.165,9.844,3.524
										c5.392,7.312,10.74,15.9,6.692,31.35c3.601-3.161,7.979-11.259,7.01-16.155
										C170.128,131.935,162.871,127.107,162.871,127.107z"/>
								</g>
							</g>
							<path style="opacity:0.07;fill:#0D0D0D;" d="M111.411,152.686c-0.021,3.69,2.953,6.699,6.643,6.72
								c3.69,0.021,6.699-2.953,6.72-6.643c0.021-3.69-2.953-6.699-6.643-6.72C114.441,146.021,111.432,148.996,111.411,152.686z"/>
							<path style="opacity:0.07;fill:#0D0D0D;" d="M158.379,155.882c-0.089,0.355-0.522,0.263-0.9,0.261
								c-3.69-0.021-6.664-3.03-6.643-6.72c0.021-3.69,3.03-6.664,6.72-6.643c0.542,0.003,0.996,0.077,1.5,0.202
								C159.056,142.981,160.126,148.902,158.379,155.882z"/>
							<g>
								<path style="fill:#443B41;" d="M124.617,143.895c0.103,1.348-0.586,2.499-1.539,2.572c-0.953,0.073-1.81-0.96-1.913-2.308
									c-0.103-1.348,0.586-2.5,1.539-2.573C123.657,141.514,124.513,142.547,124.617,143.895z"/>
								<path style="fill:#443B41;" d="M150.754,141.496c0.103,1.348-0.586,2.5-1.539,2.573c-0.953,0.073-1.81-0.96-1.913-2.308
									c-0.104-1.348,0.585-2.5,1.539-2.573C149.794,139.115,150.65,140.148,150.754,141.496z"/>
							</g>
							<path style="opacity:0.07;fill:#0D0D0D;" d="M138.576,171.327c0,0-6.644,1.542-14.223-0.231
								c0.862,0.504,4.439,2.429,14.487,0.905L138.576,171.327z"/>
							<g>
								<path style="fill:#F7F5EC;" d="M133.402,151.824c0.171,0.423,2.829,1.487,3.846,1.613c1.984,0.245,3.855-0.247,4.475-1.321
									c0,0,0.695,4.194-2.14,5.391c-2.217,0.937-4.242-0.063-5.219-1.27C132.911,154.444,133.402,151.824,133.402,151.824z"/>
							</g>
							<path style="fill:#4E4449;" d="M100.732,104.894c0,0-0.754-6.39-8.011-5.724c-5.986,0.549-6.78,5.971-4.991,8.503
								c0,0-8.352-2.606-10.656,5.708c-1.838,6.63,5.369,7.785,5.369,7.785s-7.987,2.088-5.747,8.938
								c3.28,10.032,12.569,3.181,12.569,3.181s-1.924,8.799,7.122,6.638c9.047-2.162,17.015-23.231,17.015-23.231l-0.976-8.939
								C112.427,107.751,106.699,97.21,100.732,104.894z"/>
							<g>
								<path style="fill:#88D9E2;" d="M88.587,134.967c0.45,0,0.827-0.351,0.854-0.806c0.051-0.85,1.495-20.88,23.168-25.573
									c0.462-0.1,0.756-0.556,0.655-1.018c-0.099-0.461-0.554-0.757-1.018-0.655c-22.966,4.973-24.502,26.925-24.515,27.146
									c-0.027,0.472,0.333,0.876,0.805,0.904C88.553,134.967,88.57,134.967,88.587,134.967z"/>
							</g>
						</g>
						<g>
							<path style="fill:none;stroke:#FFFFFF;stroke-width:1.5014;stroke-miterlimit:10;" d="M130.721,143.208
								c-0.52,5.128-5.099,8.864-10.228,8.344c-5.128-0.52-8.864-5.099-8.344-10.228c0.52-5.129,5.099-8.864,10.228-8.344
								C127.505,133.501,131.241,138.08,130.721,143.208z"/>
							<path style="fill:none;stroke:#FFFFFF;stroke-width:1.5014;stroke-miterlimit:10;" d="M159.89,140.533
								c-0.52,5.128-5.099,8.864-10.228,8.344c-5.128-0.52-8.864-5.099-8.344-10.228c0.52-5.128,5.099-8.864,10.228-8.344
								C156.675,130.826,160.41,135.405,159.89,140.533z"/>
							<path style="fill:none;stroke:#FFFFFF;stroke-width:1.5014;stroke-miterlimit:10;" d="M130.721,143.208
								c0,0,4.128-8.181,10.704-1.924"/>
							
								<line style="fill:none;stroke:#FFFFFF;stroke-width:1.5014;stroke-linecap:round;stroke-linejoin:round;stroke-miterlimit:10;" x1="111.698" y1="143.57" x2="104.267" y2="145.077"/>
						</g>
					</g>
				</g>
				
					<use xlink:href="#SVGID_00000006710350110365324740000008545442290288080533_"  style="overflow:visible;fill:none;stroke:#C9D2F9;stroke-width:6.4631;stroke-linecap:round;stroke-linejoin:round;stroke-miterlimit:10;"/>
			</g>
			<g>
				<rect x="43.853" y="84.751" style="fill:#2D2429;" width="148.073" height="5.386"/>
				<g>
					<path style="fill:#D3675E;" d="M49.196,87.332c0,0.887-0.719,1.605-1.605,1.605c-0.887,0-1.605-0.719-1.605-1.605
						c0-0.887,0.719-1.605,1.605-1.605C48.477,85.727,49.196,86.445,49.196,87.332z"/>
					<path style="fill:#EBBF54;" d="M54.275,87.332c0,0.887-0.719,1.605-1.605,1.605s-1.605-0.719-1.605-1.605
						c0-0.887,0.719-1.605,1.605-1.605S54.275,86.445,54.275,87.332z"/>
					<path style="fill:#ABDBAC;" d="M59.353,87.332c0,0.887-0.719,1.605-1.605,1.605c-0.887,0-1.605-0.719-1.605-1.605
						c0-0.887,0.719-1.605,1.605-1.605C58.634,85.727,59.353,86.445,59.353,87.332z"/>
				</g>
			</g>
		</g>
		<g>
			<g>
				<g>
					<g>
						<path style="fill:#88D9E2;" d="M224.221,56.749c3.451-4.142,5.345-9.258,5.345-14.484c0-6.404-2.732-12.419-7.692-16.936
							c-4.928-4.487-11.471-6.958-18.426-6.958c-6.954,0-13.498,2.471-18.426,6.958c-4.961,4.517-7.692,10.531-7.692,16.936
							c0,6.405,2.732,12.419,7.692,16.936c4.928,4.487,11.471,6.958,18.426,6.958c4.349,0,8.635-0.993,12.434-2.876l9.102,3.409
							c0.143,0.053,0.292,0.08,0.439,0.08c0.31,0,0.615-0.115,0.851-0.333c0.348-0.321,0.485-0.811,0.355-1.266L224.221,56.749z
							 M215.59,59.796c-0.317-0.119-0.669-0.097-0.968,0.06c-3.382,1.767-7.246,2.701-11.173,2.701
							c-12.353,0-22.403-9.103-22.403-20.292c0-11.189,10.05-20.292,22.403-20.292c12.353,0,22.403,9.103,22.403,20.292
							c0,4.656-1.695,9.036-4.903,12.667c-0.269,0.304-0.364,0.724-0.253,1.115l1.812,6.34L215.59,59.796z"/>
					</g>
				</g>
			</g>
			<g>
				<g>
					<g>
						<g>
							<path style="fill:#465C85;" d="M235.154,79.846c-0.1,0.348,0.005,0.723,0.271,0.968c0.18,0.166,0.414,0.254,0.651,0.254
								c0.113,0,0.227-0.02,0.336-0.061l6.963-2.608c2.906,1.441,6.184,2.2,9.511,2.2c5.32,0,10.326-1.89,14.095-5.322
								c3.794-3.455,5.884-8.056,5.884-12.955c0-4.899-2.09-9.5-5.884-12.955c-3.769-3.432-8.775-5.322-14.095-5.322
								c-5.32,0-10.326,1.89-14.095,5.322c-3.794,3.455-5.884,8.056-5.884,12.955c0,3.997,1.448,7.911,4.089,11.079L235.154,79.846z
								"/>
						</g>
					</g>
				</g>
			</g>
		</g>
		<g>
			<g>
				<path style="fill:#B0BDFC;" d="M239.957,165.736h-58.211c-2.503,0-4.532,2.029-4.532,4.532v35.192
					c0,2.503,2.029,4.532,4.532,4.532h0.284v7.246l10.387-7.132l-0.593-0.115h48.133c2.503,0,4.532-2.029,4.532-4.532v-35.192
					C244.489,167.765,242.46,165.736,239.957,165.736z"/>
				<g>
					
						<line style="fill:none;stroke:#FFFFFF;stroke-width:1.9781;stroke-linecap:round;stroke-linejoin:round;stroke-miterlimit:10;" x1="190.082" y1="175.95" x2="231.622" y2="175.95"/>
					
						<line style="fill:none;stroke:#FFFFFF;stroke-width:1.9781;stroke-linecap:round;stroke-linejoin:round;stroke-miterlimit:10;" x1="190.082" y1="181.963" x2="231.622" y2="181.963"/>
					
						<line style="fill:none;stroke:#FFFFFF;stroke-width:1.9781;stroke-linecap:round;stroke-linejoin:round;stroke-miterlimit:10;" x1="190.082" y1="187.976" x2="231.622" y2="187.976"/>
					
						<line style="fill:none;stroke:#FFFFFF;stroke-width:1.9781;stroke-linecap:round;stroke-linejoin:round;stroke-miterlimit:10;" x1="190.082" y1="193.989" x2="231.622" y2="193.989"/>
					
						<line style="fill:none;stroke:#FFFFFF;stroke-width:1.9781;stroke-linecap:round;stroke-linejoin:round;stroke-miterlimit:10;" x1="190.082" y1="200.002" x2="214.478" y2="200.002"/>
				</g>
			</g>
			<g>
				<path style="fill:#EFD97A;" d="M59.305,238.366h79.775c4.005,0,7.253,3.247,7.253,7.253v43.559c0,4.005-3.247,7.253-7.253,7.253
					h-0.454v11.597l-16.622-11.413l0.95-0.184H59.305c-4.005,0-7.253-3.247-7.253-7.253v-43.559
					C52.053,241.613,55.3,238.366,59.305,238.366z"/>
				<g>
					
						<line style="fill:none;stroke:#FFFFFF;stroke-width:3.1656;stroke-linecap:round;stroke-linejoin:round;stroke-miterlimit:10;" x1="71.965" y1="252.275" x2="126.421" y2="252.275"/>
					
						<line style="fill:none;stroke:#FFFFFF;stroke-width:3.1656;stroke-linecap:round;stroke-linejoin:round;stroke-miterlimit:10;" x1="71.965" y1="261.897" x2="126.421" y2="261.897"/>
					
						<line style="fill:none;stroke:#FFFFFF;stroke-width:3.1656;stroke-linecap:round;stroke-linejoin:round;stroke-miterlimit:10;" x1="71.965" y1="271.52" x2="126.421" y2="271.52"/>
					
						<line style="fill:none;stroke:#FFFFFF;stroke-width:3.1656;stroke-linecap:round;stroke-linejoin:round;stroke-miterlimit:10;" x1="71.965" y1="281.143" x2="98.986" y2="281.143"/>
				</g>
			</g>
		</g>
	</g>
</g>
</svg>
