<?xml version="1.0" encoding="utf-8"?>
<!-- Generator: Adobe Illustrator 27.5.0, SVG Export Plug-In . SVG Version: 6.00 Build 0)  -->
<svg version="1.1" id="Ñëîé_1" xmlns="http://www.w3.org/2000/svg" xmlns:xlink="http://www.w3.org/1999/xlink" x="0px" y="0px"
	 viewBox="0 0 2620 2200" style="enable-background:new 0 0 2620 2200;" xml:space="preserve">
<rect style="fill:#FFFFFF;" width="2620" height="2200"/>
<g>
	<path style="fill:#3E3B42;" d="M757.322,308.441c-1.831-2.312-4.311-4.021-7.442-5.13c-3.131-1.106-6.094-1.662-8.888-1.662
		c-1.638,0-3.322,0.194-5.058,0.578c-1.733,0.386-3.373,0.989-4.913,1.807c-1.542,0.819-2.795,1.903-3.756,3.251
		c-0.965,1.35-1.446,2.987-1.446,4.914c0,3.084,1.157,5.444,3.469,7.08c2.312,1.64,5.224,3.035,8.743,4.191
		c3.516,1.156,7.297,2.312,11.343,3.469c4.047,1.156,7.827,2.795,11.345,4.913c3.516,2.12,6.432,4.963,8.744,8.526
		c2.312,3.565,3.469,8.334,3.469,14.306c0,5.686-1.061,10.647-3.18,14.885c-2.12,4.241-4.985,7.757-8.599,10.549
		c-3.613,2.796-7.803,4.866-12.572,6.215c-4.77,1.347-9.805,2.023-15.103,2.023c-6.647,0-12.814-1.011-18.497-3.035
		c-5.685-2.023-10.983-5.297-15.896-9.826l16.041-17.631c2.312,3.084,5.226,5.468,8.744,7.153c3.516,1.688,7.153,2.529,10.911,2.529
		c1.829,0,3.684-0.216,5.564-0.65c1.878-0.434,3.563-1.084,5.058-1.951c1.493-0.867,2.695-1.973,3.611-3.323
		c0.915-1.349,1.374-2.937,1.374-4.77c0-3.082-1.18-5.514-3.541-7.297c-2.361-1.781-5.323-3.299-8.886-4.552
		c-3.567-1.251-7.42-2.504-11.562-3.757c-4.143-1.251-7.999-2.937-11.561-5.058c-3.565-2.118-6.527-4.914-8.888-8.382
		c-2.361-3.468-3.539-8.043-3.539-13.729c0-5.492,1.083-10.308,3.252-14.451c2.167-4.141,5.058-7.61,8.669-10.405
		c3.614-2.794,7.78-4.889,12.502-6.287c4.72-1.395,9.584-2.095,14.595-2.095c5.781,0,11.368,0.82,16.764,2.456
		c5.394,1.64,10.26,4.385,14.596,8.237L757.322,308.441z"/>
	<path style="fill:#3E3B42;" d="M853.424,373.616c-3.469,4.432-7.854,7.853-13.152,10.26c-5.298,2.408-10.79,3.613-16.473,3.613
		c-5.398,0-10.479-0.868-15.247-2.601c-4.768-1.734-8.911-4.214-12.427-7.443c-3.518-3.227-6.287-7.104-8.31-11.633
		c-2.023-4.527-3.035-9.586-3.035-15.174c0-5.586,1.012-10.644,3.035-15.174c2.023-4.527,4.792-8.404,8.31-11.633
		c3.516-3.227,7.659-5.708,12.427-7.443c4.768-1.733,9.85-2.601,15.247-2.601c5.007,0,9.56,0.868,13.655,2.601
		c4.094,1.734,7.563,4.216,10.406,7.443c2.84,3.229,5.032,7.106,6.574,11.633c1.54,4.53,2.312,9.588,2.312,15.174v6.792h-50.289
		c0.868,4.143,2.746,7.442,5.636,9.899c2.89,2.457,6.453,3.685,10.694,3.685c3.563,0,6.574-0.794,9.033-2.384
		c2.456-1.59,4.598-3.636,6.43-6.142L853.424,373.616z M835.07,342.691c0.096-3.66-1.108-6.792-3.612-9.393
		c-2.507-2.601-5.734-3.902-9.683-3.902c-2.41,0-4.53,0.386-6.357,1.156c-1.831,0.772-3.396,1.759-4.698,2.963
		c-1.3,1.206-2.312,2.601-3.035,4.191c-0.721,1.589-1.134,3.251-1.227,4.985H835.07z"/>
	<path style="fill:#3E3B42;" d="M869.895,315.522h21.677v11.272h0.289c2.312-4.336,5.058-7.587,8.237-9.755
		c3.18-2.167,7.176-3.252,11.995-3.252c1.251,0,2.504,0.05,3.756,0.145c1.251,0.098,2.408,0.289,3.469,0.578v19.798
		c-1.542-0.481-3.06-0.842-4.552-1.084c-1.495-0.239-3.06-0.362-4.698-0.362c-4.143,0-7.418,0.578-9.826,1.734
		c-2.41,1.156-4.264,2.77-5.564,4.841c-1.302,2.074-2.146,4.552-2.529,7.443c-0.387,2.89-0.579,6.069-0.579,9.538v29.336h-21.677
		V315.522z"/>
	<path style="fill:#3E3B42;" d="M921.341,315.522h23.41l17.776,47.689h0.289l16.473-47.689h21.822l-27.745,70.233h-22.978
		L921.341,315.522z"/>
	<path style="fill:#3E3B42;" d="M1007.615,293.412c0-3.468,1.227-6.431,3.684-8.887c2.457-2.456,5.419-3.685,8.888-3.685
		c3.469,0,6.432,1.228,8.888,3.685c2.457,2.457,3.684,5.419,3.684,8.887c0,3.469-1.227,6.431-3.684,8.888
		c-2.457,2.457-5.419,3.685-8.888,3.685c-3.469,0-6.432-1.228-8.888-3.685C1008.842,299.843,1007.615,296.881,1007.615,293.412z
		 M1009.348,315.522h21.677v70.233h-21.677V315.522z"/>
	<path style="fill:#3E3B42;" d="M1094.178,338.211c-1.063-1.54-2.554-2.818-4.481-3.829c-1.929-1.011-3.999-1.517-6.213-1.517
		c-5.492,0-9.756,1.64-12.791,4.914c-3.035,3.276-4.552,7.564-4.552,12.861c0,5.3,1.517,9.588,4.552,12.861
		c3.035,3.277,7.299,4.914,12.791,4.914c2.406,0,4.479-0.529,6.213-1.59c1.735-1.059,3.226-2.312,4.481-3.757l14.305,15.029
		c-3.373,3.468-7.346,5.902-11.921,7.297c-4.577,1.395-8.937,2.096-13.078,2.096c-5.398,0-10.479-0.868-15.247-2.601
		c-4.768-1.734-8.911-4.214-12.427-7.443c-3.518-3.227-6.287-7.104-8.31-11.633c-2.023-4.527-3.035-9.586-3.035-15.174
		c0-5.586,1.012-10.644,3.035-15.174c2.023-4.527,4.792-8.404,8.31-11.633c3.516-3.227,7.659-5.708,12.427-7.443
		c4.768-1.733,9.85-2.601,15.247-2.601c4.141,0,8.501,0.701,13.078,2.096c4.575,1.397,8.548,3.829,11.921,7.297L1094.178,338.211z"
		/>
	<path style="fill:#3E3B42;" d="M1182.764,373.616c-3.469,4.432-7.854,7.853-13.152,10.26c-5.298,2.408-10.79,3.613-16.473,3.613
		c-5.398,0-10.479-0.868-15.247-2.601c-4.768-1.734-8.911-4.214-12.427-7.443c-3.518-3.227-6.287-7.104-8.31-11.633
		c-2.023-4.527-3.035-9.586-3.035-15.174c0-5.586,1.012-10.644,3.035-15.174c2.023-4.527,4.792-8.404,8.31-11.633
		c3.516-3.227,7.659-5.708,12.427-7.443c4.769-1.733,9.85-2.601,15.247-2.601c5.007,0,9.56,0.868,13.655,2.601
		c4.094,1.734,7.563,4.216,10.406,7.443c2.84,3.229,5.032,7.106,6.574,11.633c1.54,4.53,2.312,9.588,2.312,15.174v6.792h-50.29
		c0.868,4.143,2.746,7.442,5.636,9.899c2.89,2.457,6.453,3.685,10.694,3.685c3.563,0,6.574-0.794,9.033-2.384
		c2.456-1.59,4.598-3.636,6.43-6.142L1182.764,373.616z M1164.409,342.691c0.096-3.66-1.108-6.792-3.612-9.393
		c-2.507-2.601-5.734-3.902-9.683-3.902c-2.41,0-4.53,0.386-6.357,1.156c-1.831,0.772-3.396,1.759-4.698,2.963
		c-1.3,1.206-2.312,2.601-3.035,4.191c-0.721,1.589-1.133,3.251-1.227,4.985H1164.409z"/>
	<path style="fill:#3E3B42;" d="M1245.623,283.441h68.642v20.809h-46.1v20.81h42.633v20.81h-42.633v39.885h-22.543V283.441z"/>
	<path style="fill:#3E3B42;" d="M1325.102,350.639c0-5.586,1.012-10.644,3.035-15.174c2.023-4.527,4.792-8.404,8.31-11.633
		c3.516-3.227,7.659-5.708,12.427-7.443c4.77-1.733,9.849-2.601,15.247-2.601c5.394,0,10.477,0.868,15.245,2.601
		c4.768,1.734,8.91,4.216,12.427,7.443c3.516,3.229,6.287,7.106,8.31,11.633c2.025,4.53,3.035,9.588,3.035,15.174
		c0,5.588-1.01,10.647-3.035,15.174c-2.023,4.529-4.794,8.406-8.31,11.633c-3.518,3.229-7.659,5.708-12.427,7.443
		c-4.768,1.733-9.852,2.601-15.245,2.601c-5.398,0-10.477-0.868-15.247-2.601c-4.769-1.734-8.911-4.214-12.427-7.443
		c-3.518-3.227-6.287-7.104-8.31-11.633C1326.114,361.286,1325.102,356.227,1325.102,350.639z M1346.779,350.639
		c0,5.3,1.519,9.588,4.552,12.861c3.035,3.277,7.299,4.914,12.791,4.914c5.492,0,9.754-1.637,12.789-4.914
		c3.035-3.273,4.552-7.561,4.552-12.861c0-5.297-1.516-9.585-4.552-12.861c-3.035-3.274-7.297-4.914-12.789-4.914
		c-5.491,0-9.756,1.64-12.791,4.914C1348.297,341.054,1346.779,345.342,1346.779,350.639z"/>
	<path style="fill:#3E3B42;" d="M1415.853,315.522h21.677v11.272h0.289c2.312-4.336,5.058-7.587,8.237-9.755
		c3.18-2.167,7.176-3.252,11.995-3.252c1.251,0,2.503,0.05,3.756,0.145c1.251,0.098,2.408,0.289,3.469,0.578v19.798
		c-1.542-0.481-3.061-0.842-4.552-1.084c-1.495-0.239-3.06-0.362-4.698-0.362c-4.143,0-7.418,0.578-9.826,1.734
		c-2.41,1.156-4.264,2.77-5.564,4.841c-1.302,2.074-2.146,4.552-2.529,7.443c-0.387,2.89-0.578,6.069-0.578,9.538v29.336h-21.677
		V315.522z"/>
	<path style="fill:#3E3B42;" d="M1520.19,283.441h30.637l43.498,71.1h0.289v-71.1h22.543v102.314h-29.48l-44.653-72.834h-0.289
		v72.834h-22.545V283.441z"/>
	<path style="fill:#3E3B42;" d="M1632.618,350.639c0-5.586,1.012-10.644,3.035-15.174c2.023-4.527,4.792-8.404,8.31-11.633
		c3.516-3.227,7.659-5.708,12.427-7.443c4.77-1.733,9.85-2.601,15.247-2.601c5.394,0,10.477,0.868,15.245,2.601
		c4.768,1.734,8.91,4.216,12.427,7.443c3.516,3.229,6.287,7.106,8.31,11.633c2.025,4.53,3.035,9.588,3.035,15.174
		c0,5.588-1.01,10.647-3.035,15.174c-2.023,4.529-4.794,8.406-8.31,11.633c-3.518,3.229-7.659,5.708-12.427,7.443
		c-4.769,1.733-9.852,2.601-15.245,2.601c-5.398,0-10.477-0.868-15.247-2.601c-4.768-1.734-8.911-4.214-12.427-7.443
		c-3.518-3.227-6.287-7.104-8.31-11.633C1633.63,361.286,1632.618,356.227,1632.618,350.639z M1654.295,350.639
		c0,5.3,1.518,9.588,4.552,12.861c3.035,3.277,7.299,4.914,12.791,4.914s9.754-1.637,12.789-4.914
		c3.035-3.273,4.552-7.561,4.552-12.861c0-5.297-1.516-9.585-4.552-12.861c-3.035-3.274-7.297-4.914-12.789-4.914
		s-9.756,1.64-12.791,4.914C1655.813,341.054,1654.295,345.342,1654.295,350.639z"/>
	<path style="fill:#3E3B42;" d="M1771.202,332.864h-19.074v23.411c0,1.928,0.094,3.685,0.287,5.275
		c0.194,1.59,0.625,2.963,1.302,4.119c0.672,1.156,1.71,2.048,3.107,2.673c1.395,0.627,3.252,0.939,5.564,0.939
		c1.155,0,2.673-0.119,4.552-0.362c1.878-0.238,3.299-0.794,4.262-1.661v18.063c-2.408,0.868-4.913,1.445-7.514,1.734
		c-2.601,0.289-5.155,0.434-7.659,0.434c-3.662,0-7.033-0.386-10.115-1.156c-3.084-0.77-5.781-1.999-8.093-3.686
		c-2.312-1.685-4.12-3.876-5.419-6.575c-1.301-2.696-1.95-5.972-1.95-9.827v-33.382h-13.873v-17.341h13.873v-20.81h21.677v20.81
		h19.074V332.864z"/>
	<path style="fill:#3E3B42;" d="M1848.661,373.616c-3.469,4.432-7.854,7.853-13.152,10.26c-5.298,2.408-10.79,3.613-16.473,3.613
		c-5.398,0-10.479-0.868-15.247-2.601c-4.769-1.734-8.912-4.214-12.427-7.443c-3.518-3.227-6.287-7.104-8.31-11.633
		c-2.023-4.527-3.035-9.586-3.035-15.174c0-5.586,1.012-10.644,3.035-15.174c2.023-4.527,4.792-8.404,8.31-11.633
		c3.516-3.227,7.659-5.708,12.427-7.443c4.768-1.733,9.849-2.601,15.247-2.601c5.007,0,9.56,0.868,13.654,2.601
		c4.094,1.734,7.563,4.216,10.407,7.443c2.84,3.229,5.032,7.106,6.574,11.633c1.54,4.53,2.312,9.588,2.312,15.174v6.792h-50.289
		c0.868,4.143,2.746,7.442,5.636,9.899c2.89,2.457,6.453,3.685,10.694,3.685c3.563,0,6.574-0.794,9.033-2.384
		c2.457-1.59,4.599-3.636,6.43-6.142L1848.661,373.616z M1830.307,342.691c0.096-3.66-1.108-6.792-3.611-9.393
		c-2.507-2.601-5.734-3.902-9.684-3.902c-2.41,0-4.53,0.386-6.357,1.156c-1.831,0.772-3.396,1.759-4.698,2.963
		c-1.3,1.206-2.312,2.601-3.035,4.191c-0.721,1.589-1.134,3.251-1.227,4.985H1830.307z"/>
	<path style="fill:#3E3B42;" d="M1904.875,336.188c-3.178-3.95-7.37-5.925-12.572-5.925c-1.831,0-3.614,0.434-5.347,1.301
		c-1.734,0.868-2.601,2.362-2.601,4.48c0,1.734,0.889,3.012,2.673,3.829c1.782,0.82,4.047,1.542,6.793,2.167
		c2.746,0.628,5.683,1.301,8.814,2.024c3.131,0.722,6.07,1.856,8.816,3.396c2.746,1.543,5.009,3.638,6.791,6.287
		c1.782,2.651,2.673,6.191,2.673,10.621c0,4.529-0.989,8.262-2.961,11.2c-1.976,2.939-4.505,5.299-7.589,7.08
		c-3.084,1.784-6.553,3.035-10.405,3.758c-3.854,0.722-7.659,1.084-11.417,1.084c-4.913,0-9.875-0.701-14.884-2.096
		c-5.011-1.395-9.25-3.876-12.716-7.442l13.15-14.595c2.023,2.506,4.262,4.407,6.719,5.707c2.457,1.301,5.323,1.951,8.599,1.951
		c2.505,0,4.768-0.361,6.793-1.084c2.023-0.723,3.035-2.046,3.035-3.974c0-1.829-0.893-3.202-2.674-4.119
		c-1.784-0.915-4.047-1.685-6.793-2.313c-2.746-0.625-5.685-1.301-8.816-2.023c-3.131-0.723-6.068-1.807-8.814-3.252
		s-5.011-3.49-6.793-6.141c-1.784-2.649-2.673-6.189-2.673-10.622c0-4.141,0.842-7.707,2.529-10.694
		c1.685-2.985,3.903-5.442,6.648-7.371c2.746-1.926,5.9-3.346,9.465-4.263c3.563-0.915,7.176-1.373,10.839-1.373
		c4.624,0,9.297,0.675,14.018,2.024c4.72,1.35,8.718,3.757,11.995,7.225L1904.875,336.188z"/>
</g>
<g>
	<path style="fill:#E3F3F9;" d="M462.352,1982.89c0,0-384.146-1046.867,92.824-1282.65s741.418,632.08,1190.582,441.491
		c449.164-190.589,445.024,548.166,363.033,841.159H462.352z"/>
	<path style="fill:#E3F3F9;" d="M1324.064,880.469c132.566,109.76,558.088,142.654,579.153-35.63
		c21.385-180.988-278.289-77.998-468.591-248.648C1288.214,464.899,1109.32,702.669,1324.064,880.469z"/>
	<path style="fill:#E58E91;" d="M2275.26,2030.84H412.696c-12.618,0-22.846-10.228-22.846-22.846v-2.166
		c0-12.617,10.228-22.846,22.846-22.846H2275.26c12.617,0,22.846,10.229,22.846,22.846v2.166
		C2298.106,2020.611,2287.878,2030.84,2275.26,2030.84z"/>
	<g>
		<path style="fill:#63B8AF;" d="M510.624,1982.89H457.92c0,0-44.402-33.802-75.013-88.372c0-0.027-0.027-0.027-0.027-0.054
			c-20.633-36.749-34.992-82.909-25.392-134.532c23.878-128.339-126.879-164.629-96.268-320.658
			c29.827-151.974-45.43-211.14-49.405-214.142c2.677,1.785,37.452,25.067,79.421,60.33
			c66.684,55.976,151.541,142.184,154.651,220.388c5.922,147.971,26.474,164.25,72.39,254.082
			C577.065,1874.94,510.624,1982.89,510.624,1982.89z"/>
		<path style="fill:none;stroke:#006D77;stroke-width:2.7041;stroke-miterlimit:10;" d="M487.287,1982.888
			c0,0-7.292-424.173-224.597-709.737"/>
		<path style="fill:#9DE3DC;" d="M357.487,1759.933c23.878-128.339-126.879-164.629-96.268-320.658
			c29.827-151.974-45.43-211.14-49.405-214.142c2.677,1.785,37.452,25.067,79.421,60.33c7.977,24.283,14.603,56.625,14.846,97.458
			c0.622,105.057-13.683,131.909,14.765,195.51c28.448,63.629,53.975,114.818,43.943,169.767
			c-10.033,54.921,0.433,110.005,18.091,146.268C362.247,1857.715,347.888,1811.555,357.487,1759.933z"/>
		<path style="fill:#63B8AF;" d="M381.303,1251.819c0,0-23.937-150.911-80.815-127.576
			C243.609,1147.578,381.303,1251.819,381.303,1251.819z"/>
		<path style="fill:none;stroke:#006D77;stroke-width:2.7041;stroke-miterlimit:10;" d="M505.937,1982.888
			c0,0,16.872-556.706-167.21-798.827"/>
		<path style="fill:none;stroke:#006D77;stroke-width:2.7041;stroke-miterlimit:10;" d="M475.994,1982.745
			c0,0-26.869-240.256-213.303-383.119"/>
		
			<ellipse transform="matrix(0.7071 -0.7071 0.7071 0.7071 -1054.166 654.2695)" style="fill:#FFB4A2;" cx="262.69" cy="1599.626" rx="21.756" ry="21.756"/>
		<path style="fill:none;stroke:#006D77;stroke-width:2.7041;stroke-miterlimit:10;" d="M393.316,1750.847
			c0,0-42.513-49.434-100.121-52.169"/>
		
			<ellipse transform="matrix(0.2298 -0.9732 0.9732 0.2298 -1434.1428 1585.2404)" style="fill:#FFB4A2;" cx="284.447" cy="1698.678" rx="15.222" ry="15.222"/>
		<path style="fill:none;stroke:#006D77;stroke-width:2.7041;stroke-miterlimit:10;" d="M350.214,1686.924
			c0,0-24.897-50.536-6.958-87.298"/>
		<circle style="fill:#FFB4A2;" cx="346.386" cy="1590.568" r="14.944"/>
		<path style="fill:#006D77;" d="M466.018,1982.89c0,0-24.064-131.987-143.654-175.01c0,0,26.981,102.089,131.258,175.01H466.018z"
			/>
		<path style="fill:#9DE3DC;" d="M466.018,1982.89c0,0-16.222-83.859-166.349-87.505c0,0,62.073,68.91,153.953,87.505H466.018z"/>
	</g>
	<g>
		<path style="fill:#63B8AF;" d="M2109.376,1982.89h52.704c0,0,44.402-33.802,75.013-88.372c0-0.027,0.027-0.027,0.027-0.054
			c20.633-36.749,34.992-82.909,25.392-134.532c-23.878-128.339,126.879-164.629,96.268-320.658
			c-29.827-151.974,45.43-211.14,49.405-214.142c-2.677,1.785-37.452,25.067-79.421,60.33
			c-66.684,55.976-151.541,142.184-154.651,220.388c-5.922,147.971-26.474,164.25-72.39,254.082
			C2042.935,1874.94,2109.376,1982.89,2109.376,1982.89z"/>
		<path style="fill:none;stroke:#006D77;stroke-width:2.7041;stroke-miterlimit:10;" d="M2132.713,1982.888
			c0,0,7.292-424.173,224.597-709.737"/>
		<path style="fill:#9DE3DC;" d="M2262.513,1759.933c-23.878-128.339,126.879-164.629,96.268-320.658
			c-29.827-151.974,45.43-211.14,49.405-214.142c-2.677,1.785-37.452,25.067-79.421,60.33
			c-7.977,24.283-14.603,56.625-14.846,97.458c-0.622,105.057,13.683,131.909-14.765,195.51
			c-28.448,63.629-53.975,114.818-43.943,169.767c10.033,54.921-0.432,110.005-18.091,146.268
			C2257.753,1857.715,2272.112,1811.555,2262.513,1759.933z"/>
		<path style="fill:#63B8AF;" d="M2238.697,1251.819c0,0,23.937-150.911,80.815-127.576
			C2376.391,1147.578,2238.697,1251.819,2238.697,1251.819z"/>
		<path style="fill:none;stroke:#006D77;stroke-width:2.7041;stroke-miterlimit:10;" d="M2114.063,1982.888
			c0,0-16.871-556.706,167.21-798.827"/>
		<path style="fill:none;stroke:#006D77;stroke-width:2.7041;stroke-miterlimit:10;" d="M2144.006,1982.745
			c0,0,26.869-240.256,213.303-383.119"/>
		
			<ellipse transform="matrix(0.7071 -0.7071 0.7071 0.7071 -440.6661 2135.3892)" style="fill:#FFB4A2;" cx="2357.31" cy="1599.626" rx="21.756" ry="21.756"/>
		<path style="fill:none;stroke:#006D77;stroke-width:2.7041;stroke-miterlimit:10;" d="M2226.684,1750.847
			c0,0,42.513-49.434,100.121-52.169"/>
		
			<ellipse transform="matrix(0.9732 -0.2298 0.2298 0.9732 -327.7971 582.0399)" style="fill:#FFB4A2;" cx="2335.553" cy="1698.678" rx="15.222" ry="15.222"/>
		<path style="fill:none;stroke:#006D77;stroke-width:2.7041;stroke-miterlimit:10;" d="M2269.786,1686.924
			c0,0,24.897-50.536,6.958-87.298"/>
		<circle style="fill:#FFB4A2;" cx="2273.614" cy="1590.568" r="14.944"/>
		<path style="fill:#006D77;" d="M2153.982,1982.89c0,0,24.064-131.987,143.654-175.01c0,0-26.981,102.089-131.258,175.01H2153.982z
			"/>
		<path style="fill:#9DE3DC;" d="M2153.982,1982.89c0,0,16.222-83.859,166.35-87.505c0,0-62.073,68.91-153.953,87.505H2153.982z"/>
	</g>
	<g>
		<path style="fill:none;stroke:#86DDF9;stroke-width:4.5737;stroke-miterlimit:10;" d="M2131.979,672.566
			c-0.171,0.138-0.319,0.298-0.467,0.458l0.402-0.433L2131.979,672.566z"/>
		<path style="fill:none;stroke:#86DDF9;stroke-width:4.5737;stroke-miterlimit:10;" d="M2171.283,709.078l-0.402,0.433
			c0.148-0.16,0.296-0.319,0.421-0.5L2171.283,709.078z"/>
		<path style="fill:none;stroke:#86DDF9;stroke-width:4.5737;stroke-miterlimit:10;" d="M2170.881,709.512l-140.814,151.934
			c-10.076,10.872-27.057,11.516-37.928,1.441l0,0c-10.872-10.076-11.516-27.057-1.441-37.928l140.814-151.934
			c-2.516,2.714-2.354,6.977,0.36,9.493c2.715,2.516,6.978,2.354,9.494-0.36c-2.516,2.714-2.354,6.977,0.36,9.493
			c2.715,2.516,6.955,2.333,9.471-0.381c-2.516,2.714-2.354,6.977,0.36,9.493c2.714,2.516,6.977,2.353,9.493-0.361
			c-2.516,2.714-2.377,6.956,0.361,9.494C2164.125,712.409,2168.365,712.226,2170.881,709.512z"/>
		<path style="fill:none;stroke:#86DDF9;stroke-width:4.5737;stroke-miterlimit:10;" d="M2170.881,709.512
			c-2.516,2.714-6.756,2.898-9.47,0.382c-2.738-2.537-2.877-6.779-0.361-9.494c-2.516,2.714-6.779,2.876-9.493,0.361
			c-2.714-2.516-2.876-6.779-0.36-9.493c-2.516,2.714-6.756,2.897-9.471,0.381c-2.714-2.516-2.876-6.779-0.36-9.493
			c-2.516,2.714-6.779,2.876-9.494,0.36c-2.714-2.516-2.876-6.779-0.36-9.493c0.148-0.16,0.296-0.319,0.467-0.458l5.706-1.581
			l29.791-8.262l13.719-3.822l-2.771,13.969l-5.978,30.332l-0.021,0.023l-1.101,5.764c0,0,0,0-0.021,0.023
			C2171.177,709.193,2171.029,709.352,2170.881,709.512z"/>
		<path style="fill:#E3F3F9;stroke:#86DDF9;stroke-width:4.5737;stroke-miterlimit:10;" d="M2031.995,862.978l-42.971-39.826
			c-0.958-0.888-1.015-2.384-0.127-3.341l11.308-12.201c0.888-0.958,2.384-1.015,3.341-0.127l42.971,39.826
			c0.958,0.888,1.014,2.384,0.127,3.341l-11.308,12.201C2034.448,863.809,2032.952,863.866,2031.995,862.978z"/>
		<path style="fill:#E3F3F9;stroke:#86DDF9;stroke-width:4.5737;stroke-miterlimit:10;" d="M2178.424,672.871
			c-2.527-0.476-4.926-1.639-6.933-3.5c-2.007-1.861-3.35-4.164-4.016-6.648l13.719-3.822L2178.424,672.871z"/>
		
			<line style="fill:none;stroke:#86DDF9;stroke-width:4.5737;stroke-miterlimit:10;" x1="2132.206" y1="692.037" x2="2023.323" y2="809.519"/>
		
			<line style="fill:none;stroke:#86DDF9;stroke-width:4.5737;stroke-miterlimit:10;" x1="2151.87" y1="710.263" x2="2042.987" y2="827.744"/>
		
			<line style="fill:none;stroke:#86DDF9;stroke-width:4.5737;stroke-miterlimit:10;" x1="2142.038" y1="701.15" x2="2033.155" y2="818.632"/>
	</g>
	<g>
		<path style="fill:none;stroke:#86DDF9;stroke-width:4.5737;stroke-miterlimit:10;" d="M510.539,774.599
			c0,10.049,6.754,18.541,15.988,21.13v56.511h-18.433c0,0-5.848-51.133-38.078-75.867c0,0,27.341-27.323,62.504-154.431v130.693
			C520.37,752.636,510.539,762.468,510.539,774.599z"/>
		<path style="fill:none;stroke:#86DDF9;stroke-width:4.5737;stroke-miterlimit:10;" d="M595.006,776.373
			c-32.23,24.734-38.078,75.867-38.078,75.867h-18.432v-56.511c9.234-2.589,15.988-11.063,15.988-21.13
			c0-12.131-9.832-21.963-21.964-21.963V621.943C567.665,749.051,595.006,776.373,595.006,776.373z"/>
		<path style="fill:none;stroke:#86DDF9;stroke-width:4.5737;stroke-miterlimit:10;" d="M557.813,863.958h-50.585
			c-1.667,0-3.018-1.351-3.018-3.018v-5.683c0-1.667,1.351-3.018,3.018-3.018h50.585c1.667,0,3.018,1.351,3.018,3.018v5.683
			C560.831,862.607,559.479,863.958,557.813,863.958z"/>
	</g>
	<g>
		<path style="fill:#6D6875;" d="M1518.266,556.816h-491.809c-77.972,0-141.769,63.795-141.769,141.698v1142.482
			c0,77.972,63.797,141.768,141.769,141.768h491.809c77.972,0,141.767-63.796,141.767-141.768V698.514
			C1660.033,620.611,1596.238,556.816,1518.266,556.816z M1558.712,723.532H986.011v-25.991c0-22.308,18.139-40.446,40.446-40.446
			h491.809c22.307,0,40.446,18.138,40.446,40.446V723.532z"/>
		<path style="fill:#E3F3F9;" d="M1518.266,606.434h-491.809c-50.244,0-91.107,40.862-91.107,91.107v1142.412
			c0,50.245,40.863,91.176,91.107,91.176h491.809c50.244,0,91.175-40.932,91.175-91.176V697.541
			C1609.441,647.297,1568.51,606.434,1518.266,606.434z M1558.712,723.532H986.011v-25.991c0-22.308,18.139-40.446,40.446-40.446
			h491.809c22.307,0,40.446,18.138,40.446,40.446V723.532z"/>
		<path style="fill:#C6EEFA;" d="M1558.712,697.541v25.991H986.011v-25.991c0-22.308,18.139-40.446,40.446-40.446h491.809
			C1540.573,657.096,1558.712,675.233,1558.712,697.541z"/>
		<path style="fill:#FFFFFF;" d="M1558.712,723.532v1116.421c0,22.308-18.139,40.446-40.446,40.446h-491.809
			c-22.307,0-40.446-18.138-40.446-40.446V723.532H1558.712z"/>
		<circle style="fill:#FFFFFF;" cx="1041.63" cy="690.314" r="16.506"/>
		<circle style="fill:#FFFFFF;" cx="1088.093" cy="690.314" r="16.506"/>
		<circle style="fill:#FFFFFF;" cx="1134.557" cy="690.314" r="16.506"/>
		<g>
			<rect x="1007.601" y="755.145" style="fill:#E3F3F9;" width="529.521" height="360.079"/>
			<g>
				<rect x="1042.438" y="813.038" style="fill:#FFFFFF;" width="459.846" height="19.759"/>
				<rect x="1042.438" y="857.945" style="fill:#FFFFFF;" width="459.846" height="19.759"/>
				<rect x="1042.438" y="902.851" style="fill:#FFFFFF;" width="459.846" height="19.759"/>
				<rect x="1042.438" y="947.758" style="fill:#FFFFFF;" width="459.846" height="19.759"/>
				<rect x="1042.438" y="992.665" style="fill:#FFFFFF;" width="459.846" height="19.759"/>
				<rect x="1042.438" y="1037.572" style="fill:#FFFFFF;" width="459.846" height="19.759"/>
			</g>
		</g>
		<g>
			<rect x="1007.601" y="1141.577" style="fill:#E3F3F9;" width="529.521" height="360.079"/>
			<g>
				<rect x="1042.438" y="1199.47" style="fill:#FFFFFF;" width="459.846" height="19.759"/>
				<rect x="1042.438" y="1244.377" style="fill:#FFFFFF;" width="459.846" height="19.759"/>
				<rect x="1042.438" y="1289.283" style="fill:#FFFFFF;" width="459.846" height="19.759"/>
				<rect x="1042.438" y="1334.19" style="fill:#FFFFFF;" width="459.846" height="19.759"/>
				<rect x="1042.438" y="1379.097" style="fill:#FFFFFF;" width="459.846" height="19.759"/>
				<rect x="1042.438" y="1424.004" style="fill:#FFFFFF;" width="459.846" height="19.759"/>
			</g>
		</g>
		<g>
			<rect x="1007.601" y="1528.009" style="fill:#E3F3F9;" width="529.521" height="310.989"/>
			<g>
				<rect x="1042.438" y="1585.902" style="fill:#FFFFFF;" width="459.846" height="19.759"/>
				<rect x="1042.438" y="1630.809" style="fill:#FFFFFF;" width="459.846" height="19.759"/>
				<rect x="1042.438" y="1675.716" style="fill:#FFFFFF;" width="459.846" height="19.759"/>
				<rect x="1042.438" y="1720.622" style="fill:#FFFFFF;" width="459.846" height="19.759"/>
				<rect x="1042.438" y="1765.529" style="fill:#FFFFFF;" width="459.846" height="19.759"/>
			</g>
		</g>
	</g>
	<g>
		<polyline style="fill:none;stroke:#B5707E;stroke-width:38.0267;stroke-miterlimit:10;" points="1797.337,791.837 
			2032.635,1264.136 2071.964,1945.57 		"/>
		<g>
			<polygon style="fill:#E58E91;" points="1684.316,1061.115 1472.455,882.611 1681.455,721.683 1807.452,827.843 			"/>
			<g>
				
					<ellipse transform="matrix(0.6443 -0.7647 0.7647 0.6443 -181.8518 1552.71)" style="fill:#B5707E;" cx="1578.386" cy="971.863" rx="19.473" ry="138.518"/>
			</g>
			<g>
				
					<ellipse transform="matrix(0.6443 -0.7647 0.7647 0.6443 -181.8517 1552.7101)" style="fill:#FED9B9;" cx="1578.386" cy="971.863" rx="17.576" ry="137.282"/>
			</g>
			<path style="fill:#E58E91;" d="M1835.338,794.739l-27.889,33.101l-125.983-106.148l27.889-33.101
				c29.3-34.775,81.249-39.234,116.046-9.916C1860.197,707.993,1864.637,759.964,1835.338,794.739z"/>
			
				<rect x="1737.289" y="676.983" transform="matrix(0.6443 -0.7647 0.7647 0.6443 44.348 1614.0618)" style="fill:#B5707E;" width="40.308" height="164.739"/>
			<path style="fill:#FFB4A2;" d="M1685.894,1004.162L1685.894,1004.162c-5.052-2.644-7.005-8.882-4.361-13.935l72.39-138.341
				c2.644-5.052,8.882-7.005,13.935-4.361l0,0c5.052,2.644,7.005,8.882,4.361,13.935l-72.39,138.341
				C1697.185,1004.853,1690.946,1006.805,1685.894,1004.162z"/>
		</g>
		<g>
			<circle style="fill:#E58E91;" cx="2032.635" cy="1264.136" r="65.628"/>
			<circle style="fill:#FFB4A2;" cx="2032.635" cy="1264.136" r="49.734"/>
			
				<ellipse transform="matrix(0.2298 -0.9732 0.9732 0.2298 335.3123 2951.9568)" style="fill:#E58E91;" cx="2032.635" cy="1264.136" rx="37.941" ry="37.941"/>
		</g>
		<path style="fill:#B5707E;" d="M1973.713,1935.757h200.986c24.919,0,45.119,20.201,45.119,45.119v2.105h-291.225v-2.105
			C1928.594,1955.958,1948.794,1935.757,1973.713,1935.757z"/>
		<polygon style="opacity:0.15;fill:#FEC89A;" points="1683.371,1060.319 1180.552,1981.643 506.227,1981.643 1473.4,883.407 		"/>
	</g>
	<g>
		<path style="fill:#FFBC82;" d="M952.721,1422.845v417.808c0,78.643-63.685,142.329-142.33,142.329H591.686
			c-78.644,0-142.328-63.685-142.328-142.329v-417.808c0-26.857,21.756-48.614,48.613-48.614h406.135
			C930.964,1374.231,952.721,1395.989,952.721,1422.845z"/>
		<g>
			<polygon style="fill:#FFECE3;" points="905.133,1057.129 896.149,1046.581 885.668,1055.644 876.684,1045.095 866.203,1054.158 
				857.195,1043.607 846.714,1052.67 837.705,1042.12 827.224,1051.183 818.24,1040.634 807.735,1049.695 798.726,1039.145 
				788.221,1048.206 788.595,1043.303 838.962,968.76 865.928,928.864 886.503,972.388 924.973,1053.712 924.599,1058.615 
				915.614,1048.066 			"/>
			<polygon style="fill:#63B8AF;" points="861.999,1878.757 725.621,1868.348 788.221,1048.206 798.726,1039.145 807.735,1049.695 
				818.24,1040.634 827.224,1051.183 837.705,1042.12 846.714,1052.67 857.195,1043.607 866.203,1054.158 876.684,1045.095 
				885.668,1055.644 896.149,1046.581 905.133,1057.129 915.614,1048.066 924.599,1058.615 			"/>
			<polygon style="fill:#63B8AF;" points="886.503,972.388 838.962,968.76 865.928,928.864 			"/>
			<path style="fill:#63B8AF;" d="M718.185,1887.735l6.061-79.411c0.348-4.556,4.323-7.967,8.879-7.619l131.724,10.054
				c4.556,0.348,7.967,4.323,7.619,8.879l-6.061,79.411c-0.348,4.556-4.323,7.967-8.878,7.619l-131.724-10.054
				C721.248,1896.266,717.837,1892.291,718.185,1887.735z"/>
			
				<line style="fill:none;stroke:#006D77;stroke-width:3.2453;stroke-miterlimit:10;" x1="905.155" y1="1075.507" x2="851.091" y2="1783.818"/>
			
				<line style="fill:none;stroke:#006D77;stroke-width:3.2453;stroke-miterlimit:10;" x1="859.066" y1="1121.266" x2="814.763" y2="1701.699"/>
			
				<line style="fill:none;stroke:#006D77;stroke-width:3.2453;stroke-miterlimit:10;" x1="812.983" y1="1068.471" x2="758.92" y2="1776.782"/>
		</g>
		<g>
			<polygon style="fill:#FFECE3;" points="644.67,1089.199 633.881,1080.505 625.268,1091.359 614.479,1082.665 605.867,1093.519 
				595.053,1084.828 586.441,1095.682 575.627,1086.991 567.014,1097.844 556.225,1089.151 547.588,1100.007 536.775,1091.316 
				528.138,1102.173 527.594,1097.286 563.219,1014.677 582.296,970.462 610.605,1009.401 663.528,1082.152 664.072,1087.039 
				653.283,1078.345 			"/>
			<polygon style="fill:#63B8AF;" points="755.086,1904.516 619.152,1919.65 528.138,1102.173 536.775,1091.316 547.588,1100.007 
				556.225,1089.151 567.014,1097.844 575.627,1086.991 586.441,1095.682 595.053,1084.828 605.867,1093.519 614.479,1082.665 
				625.268,1091.359 633.881,1080.505 644.67,1089.199 653.283,1078.345 664.072,1087.039 			"/>
			<polygon style="fill:#63B8AF;" points="610.605,1009.401 563.219,1014.677 582.296,970.462 			"/>
			<path style="fill:#63B8AF;" d="M615.45,1940.082l-8.812-79.153c-0.506-4.541,2.766-8.632,7.307-9.138l131.296-14.618
				c4.541-0.506,8.632,2.766,9.138,7.307l8.812,79.153c0.506,4.541-2.766,8.632-7.307,9.138l-131.296,14.618
				C620.047,1947.894,615.956,1944.623,615.45,1940.082z"/>
			
				<line style="fill:none;stroke:#006D77;stroke-width:3.2453;stroke-miterlimit:10;" x1="648.109" y1="1107.251" x2="726.713" y2="1813.261"/>
			
				<line style="fill:none;stroke:#006D77;stroke-width:3.2453;stroke-miterlimit:10;" x1="611.335" y1="1160.784" x2="675.747" y2="1739.331"/>
			
				<line style="fill:none;stroke:#006D77;stroke-width:3.2453;stroke-miterlimit:10;" x1="556.237" y1="1117.48" x2="634.841" y2="1823.489"/>
		</g>
		<g>
			<path style="fill:#FEC89A;" d="M503.236,1058.008c2.781,10.565-1.969,21.361-10.961,26.639l15.638,59.41l19.378-5.101
				c0,0-8.001-55.375,19.038-90.297c0,0-36.305-21.159-108.446-145.058l36.167,137.399
				C486.822,1037.639,499.879,1045.254,503.236,1058.008z"/>
			<path style="fill:#EA5459;" d="M717.528,1965.994L717.528,1965.994c9.781-2.575,15.622-12.59,13.048-22.371l-209.633-796.409
				l-35.419,9.323l209.633,796.409C697.731,1962.727,707.747,1968.569,717.528,1965.994z"/>
			<path style="fill:#FFBC82;" d="M414.926,1083.248c40.728,17.084,61.026,69.222,61.026,69.222l19.378-5.101l-15.638-59.41
				c-10.425-0.167-19.87-7.206-22.656-17.79c-3.357-12.754,4.259-25.811,17.013-29.168l-36.167-137.399
				C436.109,1046.957,414.926,1083.248,414.926,1083.248z"/>
			<path style="fill:#E3F3F9;" d="M478.265,1165.035l53.181-13.998c1.752-0.461,2.799-2.256,2.338-4.008l-1.573-5.974
				c-0.461-1.752-2.256-2.799-4.008-2.338l-53.181,13.998c-1.752,0.461-2.799,2.256-2.338,4.008l1.573,5.974
				C474.718,1164.449,476.512,1165.496,478.265,1165.035z"/>
		</g>
		<g>
			
				<rect x="662.875" y="917.329" transform="matrix(-1 0.0066 -0.0066 -1 1369.6364 1894.2302)" style="fill:#B5707E;" width="37.595" height="64.121"/>
			<polygon style="fill:#FFB4A2;" points="779.08,1053.217 783.692,1747.48 746.722,1747.725 737.882,1053.492 			"/>
			<polygon style="fill:#FFB4A2;" points="746.722,1747.725 711.308,1747.961 697.301,1053.761 737.882,1053.492 			"/>
			<path style="fill:#FFB4A2;" d="M736.988,865.314c26.124-0.173,47.596,21.016,47.77,47.233l1.697,255.6l-47.109,0.313
				l-3.859-303.059C735.99,865.381,736.481,865.318,736.988,865.314z"/>
			<path style="fill:#FFB4A2;" d="M735.486,865.401l3.859,303.059l-47.892,0.318l-1.698-255.601
				c-0.087-13.062,5.189-25.031,13.683-33.733C711.694,871.17,723.021,865.88,735.486,865.401z"/>
			<path style="fill:#B5707E;" d="M693.191,1178.717l91.658-0.609c2.919-0.019,5.269-2.401,5.25-5.32l-0.062-9.33
				c-0.019-2.919-2.401-5.269-5.32-5.25l-91.658,0.609c-2.919,0.019-5.269,2.401-5.25,5.32l0.062,9.33
				C687.891,1176.386,690.272,1178.736,693.191,1178.717z"/>
			<path style="fill:#FFB4A2;" d="M659.721,1180.774l19.49-0.129c0.914-0.006,1.651-0.752,1.645-1.667l-0.16-24.05
				c-0.006-0.914-0.752-1.651-1.667-1.645l-19.49,0.129c-0.914,0.006-1.651,0.752-1.645,1.667l0.16,24.05
				C658.06,1180.044,658.806,1180.78,659.721,1180.774z"/>
			<path style="fill:#FFB4A2;" d="M669.667,1180.708l-8.402,0.056c-1.76,0.012-3.21-1.419-3.222-3.179l-1.816-273.431
				c-0.012-1.76,1.419-3.21,3.18-3.222l8.402-0.056c1.76-0.012,3.21,1.419,3.222,3.18l1.816,273.431
				C672.859,1179.246,671.428,1180.696,669.667,1180.708z"/>
			<polygon style="fill:#7FACE3;" points="736.891,1841.222 748.446,1883.15 759.35,1841.072 			"/>
			<polygon style="fill:#7FACE3;" points="747.912,1841.148 736.892,1841.222 711.275,1747.983 746.723,1747.748 			"/>
			<polygon style="fill:#A6C9F1;" points="783.725,1747.502 759.349,1841.072 747.912,1841.148 746.723,1747.748 			"/>
			<path style="fill:#89A5C7;" d="M708.464,1747.979l78.071-0.518c2.016-0.013,3.654-1.673,3.64-3.689l-0.024-3.588
				c-0.013-2.016-1.673-3.654-3.689-3.64l-78.072,0.519c-2.016,0.013-3.654,1.673-3.64,3.689l0.024,3.588
				C704.789,1746.355,706.449,1747.993,708.464,1747.979z"/>
		</g>
		<path style="fill:#FEC89A;" d="M952.721,1422.845v417.808c0,78.643-63.685,142.329-142.33,142.329H653.559
			c-78.644,0-142.329-63.685-142.329-142.329v-417.808c0-26.857,21.756-48.614,48.614-48.614h344.262
			C930.964,1374.231,952.721,1395.989,952.721,1422.845z"/>
	</g>
	<g>
		<rect x="1402.767" y="1334.271" style="fill:#FFCDB2;" width="507.534" height="648.492"/>
		<rect x="1425.391" y="1334.271" style="fill:#FFDECC;" width="507.534" height="648.492"/>
		<path style="fill:#FFE8DB;" d="M1425.391,1334.271c0,0-6.558,551.344,89.206,635.779h469.378c0,0-79.02-471.877-51.049-635.779
			C1932.925,1334.271,1430.644,1334.271,1425.391,1334.271z"/>
		<path style="fill:#FFF0E8;" d="M1425.391,1334.271c0,0-5.606,514.047,138.135,618.925h476.803c0,0-100.68-147.556-107.404-618.925
			H1425.391z"/>
		<path style="fill:#FFFFFF;" d="M1425.391,1334.271c0,0,10.203,478.084,156.208,599.747h469.385
			c0,0-122.39-197.687-118.059-599.747H1425.391z"/>
		<g>
			<circle style="fill:#FFCDB2;" cx="1517.649" cy="1383.975" r="16.804"/>
			<circle style="fill:#FFCDB2;" cx="1598.403" cy="1383.975" r="16.804"/>
			<circle style="fill:#FFCDB2;" cx="1679.158" cy="1383.975" r="16.804"/>
			<circle style="fill:#FFCDB2;" cx="1759.913" cy="1383.975" r="16.804"/>
			<circle style="fill:#FFCDB2;" cx="1840.668" cy="1383.975" r="16.804"/>
		</g>
		
			<path style="fill:none;stroke:#E5989B;stroke-width:4.0213;stroke-linecap:round;stroke-linejoin:round;stroke-miterlimit:10;" d="
			M1527.112,1301.583v80.026c0,4.283-4.259,7.782-9.472,7.782c-5.19,0-9.449-3.499-9.449-7.782v-80.026"/>
		
			<path style="fill:none;stroke:#E5989B;stroke-width:4.0213;stroke-linecap:round;stroke-linejoin:round;stroke-miterlimit:10;" d="
			M1607.864,1301.583v80.026c0,4.283-4.259,7.782-9.472,7.782c-5.19,0-9.449-3.499-9.449-7.782v-80.026"/>
		
			<path style="fill:none;stroke:#E5989B;stroke-width:4.0213;stroke-linecap:round;stroke-linejoin:round;stroke-miterlimit:10;" d="
			M1688.616,1301.583v80.026c0,4.283-4.259,7.782-9.472,7.782c-5.19,0-9.449-3.499-9.449-7.782v-80.026"/>
		
			<path style="fill:none;stroke:#E5989B;stroke-width:4.0213;stroke-linecap:round;stroke-linejoin:round;stroke-miterlimit:10;" d="
			M1769.367,1301.583v80.026c0,4.283-4.259,7.782-9.472,7.782c-5.19,0-9.449-3.499-9.449-7.782v-80.026"/>
		
			<path style="fill:none;stroke:#E5989B;stroke-width:4.0213;stroke-linecap:round;stroke-linejoin:round;stroke-miterlimit:10;" d="
			M1850.119,1301.583v80.026c0,4.283-4.259,7.782-9.472,7.782c-5.19,0-9.449-3.499-9.449-7.782v-80.026"/>
		
			<line style="fill:none;stroke:#FFCDB2;stroke-width:2.2183;stroke-linecap:round;stroke-linejoin:round;stroke-miterlimit:10;" x1="1470.281" y1="1468.966" x2="1897.499" y2="1468.966"/>
		
			<line style="fill:none;stroke:#FFCDB2;stroke-width:2.2183;stroke-linecap:round;stroke-linejoin:round;stroke-miterlimit:10;" x1="1482.353" y1="1514.826" x2="1909.571" y2="1514.826"/>
		
			<line style="fill:none;stroke:#FFCDB2;stroke-width:2.2183;stroke-linecap:round;stroke-linejoin:round;stroke-miterlimit:10;" x1="1484.332" y1="1560.686" x2="1911.55" y2="1560.686"/>
		
			<line style="fill:none;stroke:#FFCDB2;stroke-width:2.2183;stroke-linecap:round;stroke-linejoin:round;stroke-miterlimit:10;" x1="1494.425" y1="1606.546" x2="1921.643" y2="1606.546"/>
		
			<line style="fill:none;stroke:#FFCDB2;stroke-width:2.2183;stroke-linecap:round;stroke-linejoin:round;stroke-miterlimit:10;" x1="1500.166" y1="1652.406" x2="1927.385" y2="1652.406"/>
		
			<line style="fill:none;stroke:#FFCDB2;stroke-width:2.2183;stroke-linecap:round;stroke-linejoin:round;stroke-miterlimit:10;" x1="1506.496" y1="1698.266" x2="1933.715" y2="1698.266"/>
		
			<line style="fill:none;stroke:#FFCDB2;stroke-width:2.2183;stroke-linecap:round;stroke-linejoin:round;stroke-miterlimit:10;" x1="1518.568" y1="1744.126" x2="1945.787" y2="1744.126"/>
		
			<line style="fill:none;stroke:#FFCDB2;stroke-width:2.2183;stroke-linecap:round;stroke-linejoin:round;stroke-miterlimit:10;" x1="1524.578" y1="1789.986" x2="1951.797" y2="1789.986"/>
		
			<line style="fill:none;stroke:#FFCDB2;stroke-width:2.2183;stroke-linecap:round;stroke-linejoin:round;stroke-miterlimit:10;" x1="1550.107" y1="1835.847" x2="1977.325" y2="1835.847"/>
		
			<line style="fill:none;stroke:#FFCDB2;stroke-width:2.2183;stroke-linecap:round;stroke-linejoin:round;stroke-miterlimit:10;" x1="1578.928" y1="1881.707" x2="2006.146" y2="1881.707"/>
	</g>
	<g>
		<path style="fill:#F7B897;" d="M1454.992,1609.803c0.043,8.786,1.313,16.111-0.825,23.756c-3.077,11.005-5.89,21.063-5.89,21.063
			l-101.696-28.438c0,0-0.276-11.968,8.425-14.434c5.241-1.495,15.891-0.252,25.725-2.018c1.211-0.223,2.38-0.483,3.54-0.797
			c1.628-0.438,3.211-0.99,4.727-1.664c1.195-0.533,2.346-1.181,3.415-1.903c1.84-1.195,3.455-2.683,4.859-4.51
			c0.6-0.776,1.264-2.147,2.032-4.076c10.959-27.786,34.618-168.813,40.374-198.794c0.219-1.878,0.546-3.777,1.075-5.67
			c5.619-20.093,26.455-31.822,46.547-26.204c20.093,5.619,29.614,26.183,30.233,47.095
			C1519.069,1465.049,1454.754,1561.229,1454.992,1609.803z"/>
		<path style="fill:#FFDECC;" d="M1346.58,1626.18l101.702,28.451c0,0,2.799-10.076,5.887-21.078
			c2.143-7.643,0.464-14.978,0.83-23.741c-9.188-2.22-14.863,6.003-20.595,8.667c-6.717,3.108-20.672-2.355-20.672-10.423
			c0.019-5.984-9.516-9.747-14.418-11.272c-0.772,1.93-1.448,3.301-2.046,4.073c-1.39,1.834-3.011,3.32-4.845,4.517
			c-0.907,0.598-1.872,1.158-2.857,1.622c-0.193,0.096-0.367,0.193-0.559,0.27c-0.985,0.444-2.008,0.83-3.05,1.177
			c-0.56,0.174-1.12,0.347-1.68,0.502c-1.042,0.27-2.104,0.502-3.185,0.714c-0.116,0.039-0.251,0.058-0.367,0.077
			c-1.081,0.193-2.162,0.347-3.262,0.483c-8.84,1.042-17.796,0.193-22.448,1.525C1346.31,1614.213,1346.58,1626.18,1346.58,1626.18z
			"/>
		<path style="fill:#FFFFFF;" d="M1377.463,1618.169l4.189,0.077c0,0,0.869-4.362-0.56-8.589c-0.116,0.039-0.251,0.058-0.367,0.077
			c-1.081,0.193-2.162,0.347-3.262,0.483C1377.908,1612.244,1378.178,1615.081,1377.463,1618.169z"/>
		<path style="fill:#FFFFFF;" d="M1387.693,1619.308l4.188,0.077c0,0-0.135-7.335-2.316-12.392c-0.193,0.096-0.367,0.193-0.559,0.27
			c-0.985,0.444-2.008,0.83-3.05,1.177C1387.134,1611.221,1388.562,1615.583,1387.693,1619.308z"/>
		
			<line style="fill:none;stroke:#FFFFFF;stroke-width:2.2355;stroke-miterlimit:10;" x1="1355.618" y1="1619.671" x2="1450.621" y2="1646.237"/>
		<path style="fill:#6D6875;" d="M1674.183,1301.666c12.13,22.356,3.839,50.313-18.517,62.442l-154.243,81.665
			c-21.494,11.662-48.371,3.691-60.033-17.802c-11.662-21.494-3.691-48.371,17.802-60.033l152.548-84.789
			C1634.097,1271.02,1662.053,1279.31,1674.183,1301.666z"/>
		<path style="fill:#6D6875;" d="M1435.929,1400.008c6.585-23.55,31.015-37.302,54.565-30.717
			c23.55,6.585,37.303,31.015,30.717,54.565c-0.268,0.958-0.575,1.892-0.901,2.817l-49.081,153.454c0,0-17.691,1.317-40.832-5.111
			c-21.778-6.05-32.795-15.478-32.795-15.478l37.636-156.654C1435.439,1401.924,1435.661,1400.965,1435.929,1400.008z"/>
		<path style="fill:#F7B897;" d="M1673.973,1587.112c5.976,6.441,11.867,10.976,15.465,18.051
			c5.18,10.186,9.914,19.495,9.914,19.495l-94.126,47.865c0,0-8.301-8.626-3.562-16.329c2.848-4.646,11.531-10.937,17.577-18.891
			c0.74-0.983,1.426-1.966,2.068-2.981c0.903-1.424,1.695-2.902,2.355-4.423c0.519-1.201,0.929-2.457,1.227-3.712
			c0.546-2.125,0.729-4.313,0.527-6.609c-0.084-0.977-0.522-2.436-1.261-4.376c-10.729-27.875-88.724-147.731-104.77-173.702
			c-1.109-1.531-2.153-3.151-3.045-4.903c-9.457-18.597-2.05-41.332,16.547-50.789c18.597-9.457,39.522-0.755,54.126,14.224
			C1623.22,1437.166,1640.934,1551.505,1673.973,1587.112z"/>
		<path style="fill:#FFDECC;" d="M1689.438,1605.163c5.18,10.186,9.914,19.495,9.914,19.495l-94.126,47.865
			c0,0-8.301-8.626-3.562-16.329c2.848-4.646,11.531-10.937,17.577-18.891c0.74-0.983,1.426-1.966,2.068-2.981
			c0.903-1.424,1.695-2.902,2.355-4.423c0.519-1.201,0.929-2.457,1.227-3.712c0.546-2.125,0.729-4.313,0.527-6.609
			c-0.084-0.977-0.522-2.436-1.261-4.376c4.645-2.197,14.215-5.877,18.256-1.454c5.447,5.942,19.423,0.517,22.268-6.306
			c2.422-5.863,1.036-15.745,9.291-20.329C1679.646,1593.822,1685.84,1598.088,1689.438,1605.163z"/>
		<path style="fill:#3E3B42;" d="M1528.683,1386.481l110.095-84.916l-41.999-10.345l-10.203,5.916c0,0,13.061,6.771,8.412,22.387
			C1590.338,1335.138,1528.683,1386.481,1528.683,1386.481z"/>
		<path style="fill:#FFFFFF;" d="M1628.697,1639.579l-2.748,3.162c-2.129-2.832-4.811-4.528-6.708-5.439
			c0.74-0.983,1.426-1.966,2.068-2.981C1625.704,1635.863,1628.697,1639.579,1628.697,1639.579z"/>
		<path style="fill:#FFFFFF;" d="M1636.134,1632.462l-2.748,3.162c-2.373-3.149-6.836-4.877-9.721-5.726
			c0.519-1.201,0.929-2.457,1.227-3.712C1630.243,1627.71,1636.134,1632.462,1636.134,1632.462z"/>
		
			<line style="fill:none;stroke:#FFFFFF;stroke-width:2.2355;stroke-miterlimit:10;" x1="1607.473" y1="1661.613" x2="1695.405" y2="1616.898"/>
		<path style="fill:#6D6875;" d="M1731.386,1288.888c15.328,20.297,11.3,49.177-8.997,64.506l-140.339,103.755
			c-19.514,14.737-47.28,10.864-62.017-8.65c-14.737-19.514-10.864-47.28,8.65-62.017l138.197-106.591
			C1687.177,1264.562,1716.058,1268.59,1731.386,1288.888z"/>
		<path style="fill:#6D6875;" d="M1517.992,1445.522c-11.084-21.797-2.4-48.453,19.398-59.537
			c21.797-11.084,48.453-2.4,59.537,19.397c0.451,0.886,0.857,1.783,1.242,2.684l67.682,146.206c0,0-10.413,13.886-28.259,22.658
			c-17.043,8.377-39.888,11.996-39.888,11.996l-78.275-140.819C1518.928,1447.265,1518.443,1446.409,1517.992,1445.522z"/>
		<path style="fill:#006D77;" d="M1745.057,1326.549c0,0-1.562,12.232-9.109,15.094c0,0-12.232-2.603-23.162-13.533
			c-10.931-10.931-26.546-28.107-43.722-25.505c-17.176,2.603-62.755,1.811-74.059-10.155c0,0-0.503-8.063,3.921-13.137
			c4.424-5.075,112.819-1.171,114.38,0C1714.868,1280.485,1745.057,1326.549,1745.057,1326.549z"/>
		<path style="fill:#63B8AF;" d="M1815.841,1257.826L1815.841,1257.826c17.161-8.466,24.276-29.434,15.81-46.595l-48.218-97.743
			c-8.466-17.161-29.434-24.276-46.595-15.81l0,0c-17.161,8.466-24.276,29.433-15.81,46.595l48.218,97.743
			C1777.713,1259.177,1798.68,1266.292,1815.841,1257.826z"/>
		<path style="fill:#63B8AF;" d="M1465.634,1034.211L1465.634,1034.211c-6.676,17.934,2.535,38.069,20.468,44.745l102.142,38.023
			c17.933,6.676,38.068-2.535,44.744-20.468l0,0c6.676-17.933-2.535-38.068-20.468-44.744l-102.142-38.023
			C1492.444,1007.067,1472.309,1016.277,1465.634,1034.211z"/>
		<path style="fill:#63B8AF;" d="M1598.528,1233.25c0.135,27.737-2.065,26.115-2.065,43.063c0,7.643,1.428,17.468,28.355,19.784
			c13.511,1.158,23.876,1.235,48.158-0.251c33.817-2.085,55.57,34.473,65.839,33.817c29.957-1.872,27.582-35.901,21.599-52.096
			c-0.463-1.274-0.907-2.586-1.332-3.938c-5.076-16.561-6.485-40.052-6.061-64.488c0.811-46.634,8.358-96.722,9.883-108.863
			l0.56-4.266l-69.139-30.806h-26.714l-16.117,0.483l-40.457-14.612c0,0-21.328,41.769-16.793,85.353
			C1598.528,1177.757,1598.432,1211.014,1598.528,1233.25z"/>
		<path style="fill:#F7B897;" d="M1651.49,1065.681c6.969,9.466,15.289,17.469,15.289,17.469l27.542-17.951l-2.683-37.658
			l-26.926,3.05c0,0,0,0-0.019,0l-10.211,1.158l-0.599,6.138l-1.139,11.562l-0.753,7.373L1651.49,1065.681z"/>
		<path style="fill:#DE8759;" d="M1651.809,1060.048c0,0,20.78,0.159,28.516-13.256l-27.529-0.923L1651.809,1060.048z"/>
		<path style="fill:#F7B897;" d="M1643.487,1033.042c-0.023,13.517,3.782,21.847,29.487,16.278
			c13.21-2.862,20.402-11.873,19.627-25.367l-1.611-28.021c-0.658-11.45-10.466-20.192-21.916-19.533
			c-11.428,0.657-22.282,10.705-21.624,22.155c0.121,7.093-0.489,11.16-1.657,16.501
			C1644.72,1019.957,1643.494,1028.987,1643.487,1033.042z"/>
		<path style="fill:#3E3B42;" d="M1666.067,980.773c0,0-4.29,11.809,6.25,15.42c14.893,5.102,12.066,24.397,12.637,36.403
			c0.571,12.006,7.99,13.273,7.99,13.273s-0.202-13.624,7.61-19.961c11.338-9.197,8.927-33.488,0.39-43.15
			s-29.744-9.792-34.895-5.205C1660.899,982.14,1666.067,980.773,1666.067,980.773z"/>
		<path style="fill:#F7B897;" d="M1683.128,1033.604c2.654,2.82,7.691,2.391,11.25-0.958c3.559-3.349,4.293-8.351,1.638-11.171
			c-2.654-2.82-7.691-2.392-11.25,0.958C1681.207,1025.783,1680.474,1030.784,1683.128,1033.604z"/>
		<path style="fill:#89601F;" d="M1457.22,940.467c-4.294-2.082-37.346,9.369-32.401,18.738c4.945,9.369,21.601,0,21.601,0
			l10.8-10.931V940.467z"/>
		
			<line style="fill:none;stroke:#DE8759;stroke-width:1.179;stroke-linecap:round;stroke-linejoin:round;stroke-miterlimit:10;" x1="1684.954" y1="1029.804" x2="1692.573" y2="1024.484"/>
		<path style="fill:#16142A;" d="M1671.86,1006.765c-0.238,0.407-1.871-0.104-3.647-1.141c-1.776-1.038-3.023-2.209-2.785-2.617
			c0.238-0.407,1.871,0.104,3.647,1.141C1670.851,1005.185,1672.098,1006.357,1671.86,1006.765z"/>
		<path style="fill:#16142A;" d="M1653.202,1001.757c0.262,0.392-0.814,1.571-2.403,2.632c-1.589,1.061-3.09,1.603-3.352,1.211
			c-0.262-0.393,0.814-1.571,2.403-2.632C1651.439,1001.906,1652.94,1001.364,1653.202,1001.757z"/>
		<path style="fill:none;stroke:#DE8759;stroke-width:1.179;stroke-linecap:round;stroke-linejoin:round;stroke-miterlimit:10;" d="
			M1657.629,1011.567c0,0-2.075,8.279-6.13,11.239c0,0,1.85,3.529,7.11,3.058"/>
		<path style="fill:#16142A;" d="M1664.849,1012.279c0,1.437,0.583,2.602,1.301,2.602c0.719,0,1.301-1.165,1.301-2.602
			c0-1.437-0.583-2.603-1.301-2.603C1665.431,1009.676,1664.849,1010.841,1664.849,1012.279z"/>
		<ellipse style="fill:#16142A;" cx="1650.866" cy="1012.279" rx="1.301" ry="2.602"/>
		<path style="fill:#F7B897;" d="M1400.452,886.535c3.277-2.331,26.258,28.443,26.258,28.443
			c-1.553-3.369-18.08-29.362-15.261-31.346c1.958-1.378,5.826,3.697,12.429,12.022c8.229,10.376,13.254,21.079,15.098,19.901
			c3.511-2.243-0.902-20.154,1.265-20.915c3.617-1.271,5.883,6.366,6.841,10.394c0.809,3.404,4.527,15.373,5.125,23.315
			c0.38,5.044,1.468,11.241,5.938,17.879c3.703,5.5,13.371,19.02,33.05,42.429c20.804,24.747,31.765,37.3,32.195,37.891
			c0,0-0.022,0.022-0.026,0.025c10.312,12.353,9.413,30.741-2.421,41.976c-12.319,11.696-31.787,11.191-43.483-1.128
			c-2.871-3.023-4.997-6.481-6.403-10.145c-0.008-0.017-0.02-0.027-0.028-0.044c-5.907-12.735-34.142-80.935-38.66-88.918
			c-6.129-10.831-12.296-19.697-16.838-25.201c-3.351-4.062-20.913-29.115-19.945-31.536c1.226-3.067,21.054,18.07,21.054,18.07
			s-22.329-31.741-21.547-32.436c3.278-2.912,20.474,19.997,26.279,25.308C1421.373,922.522,1397.682,888.505,1400.452,886.535z"/>
		<path style="fill:#F7B897;" d="M1973.266,1121.839c-1.948-3.519-35.971,14.304-35.971,14.304
			c2.856-2.367,28.993-18.667,27.308-21.674c-1.17-2.088-6.851,0.816-16.404,5.471c-11.905,5.801-21.062,13.282-22.215,11.423
			c-2.197-3.54,9.523-17.785,7.897-19.408c-2.713-2.709-8.056,3.198-10.661,6.418c-2.2,2.72-10.726,11.908-14.697,18.812
			c-2.522,4.384-6.182,9.503-13.081,13.558c-5.716,3.36-20.278,11.375-48.14,23.982c-29.455,13.328-44.764,19.911-45.408,20.259
			c0,0,0.01,0.03,0.012,0.034c-14.637,6.684-21.772,23.656-15.955,38.901c6.055,15.871,23.831,23.828,39.701,17.772
			c3.895-1.486,7.307-3.685,10.158-6.382c0.015-0.012,0.03-0.016,0.044-0.028c10.83-8.932,65.764-58.234,73.288-63.482
			c10.208-7.119,19.6-12.449,26.074-15.45c4.777-2.215,31.441-17.22,31.614-19.821c0.219-3.295-26.796,7.198-26.796,7.198
			s33.852-18.976,33.448-19.94c-1.697-4.043-27.105,9.187-34.635,11.467C1938.848,1145.253,1974.912,1124.813,1973.266,1121.839z"/>
		<path style="fill:#FFFFFF;" d="M1654.16,1034.692c0,0,6.299,0.113,9.785-3.122c0,0-0.128,5.315-3.682,5.928
			C1656.709,1038.111,1654.16,1034.692,1654.16,1034.692z"/>
		<path style="fill:#006D77;" d="M1666.78,1083.158c0,0,43.661-8.686,47.309-17.797c2.49-6.234-2.625-11.118-5.25-16.252
			c-1.178-2.316-1.834-4.69-1.042-7.257c0-0.058,0.019-0.097,0.039-0.154c2.741-8.319-12.952-6.698-15.075,1.718
			C1690.657,1051.85,1681.141,1075.148,1666.78,1083.158z"/>
		<path style="fill:#006D77;" d="M1666.779,1083.15c0,0-13.116-14.868-14.524-28.905c0,0-7.991-4.794-9.726,8.201
			C1642.529,1062.445,1646.309,1075.44,1666.779,1083.15z"/>
		
			<line style="fill:none;stroke:#006D77;stroke-width:1.9302;stroke-linecap:round;stroke-linejoin:round;stroke-miterlimit:10;" x1="1672.321" y1="1080.985" x2="1670.199" y2="1152.782"/>
		
			<line style="fill:none;stroke:#006D77;stroke-width:1.9302;stroke-linecap:round;stroke-linejoin:round;stroke-miterlimit:10;" x1="1662.682" y1="1080.249" x2="1660.56" y2="1152.046"/>
		<path style="fill:#006D77;" d="M1898.065,1148.613c0,0,20.163,9.591,22.515,26.153l-8.274,7.726c0,0-5.448-27.106-19.937-30.107
			L1898.065,1148.613z"/>
		<path style="fill:#63B8AF;" d="M1814.999,1257.827c20.029-7.917,36.606-7.987,48.534-23.711
			c11.928-15.724,22.411-21.105,32.221-28.35s17.453-13.897,19.078-25.633s-5.815-13.801-11.291-22.661
			c-5.476-8.859-13.144-7.028-25.385-2.793c-12.241,4.235-21.898,13.314-40.985,18.712c-19.087,5.397-49.495,20.439-49.495,20.439
			l-5.564,51.515L1814.999,1257.827z"/>
		<path style="fill:#006D77;" d="M1742.579,1219.584c-4.247,11.118,7.913,40.245,16.503,54.045
			c-5.076-16.561-6.485-40.052-6.061-64.488l-13.936-34.01C1739.471,1176.579,1747.54,1206.632,1742.579,1219.584z"/>
		<path style="fill:#006D77;" d="M1457.22,940.467c0,0-7.417,18.153-32.401,18.738l3.904,8.588c0,0,12.13,0.847,22.837-7.417
			c10.707-8.265,11.23-13.273,11.23-13.273L1457.22,940.467z"/>
		<path style="fill:#63B8AF;" d="M1462.789,947.103c12.323,7.039,6.044,10.93,16.292,17.274
			c10.247,6.344,12.882,12.394,20.397,24.496c7.515,12.102,17.438,27.303,27.301,30.974c9.863,3.672,13.591,45.735,2.27,53.152
			c-11.321,7.417-35.847,9.564-53.155,0c-17.308-9.564-14.966-33.377-22.968-52.115c-8.003-18.738-24.53-41.453-24.725-54.238
			c0,0,1.4,0.269,8.231-0.317c6.832-0.586,12.102-3.416,16.396-9.076C1457.122,951.593,1460.453,947.787,1462.789,947.103z"/>
		<path style="fill:#63B8AF;" d="M1688.032,1067.234c0,0,11.716-2.336,15.326-10.037c1.737-3.725,3.822-6.37,5.482-8.088
			c-1.178-2.316-1.834-4.69-1.042-7.257c-1.679,0.502-5.463,2.374-7.18,9.226
			C1698.377,1060.015,1688.032,1067.234,1688.032,1067.234z"/>
		<path style="fill:#3E3B42;" d="M1696.167,982.313c3.057,3.789,8.836,4.198,12.909,0.913c4.073-3.285,4.896-9.02,1.84-12.81
			c-3.057-3.79-8.836-4.198-12.909-0.913C1693.934,972.788,1693.111,978.523,1696.167,982.313z"/>
		<path style="fill:#3E3B42;" d="M1669.381,975.815c0,0-6.824-4.053-13.851,1.478c-5.558,4.374-8.566,13.35-8.057,18.939
			c0,0,2.946-4.964,7.871-4.378c10.343,1.23,15.229-4.671,15.229-4.671L1669.381,975.815z"/>
	</g>
	<g>
		<path style="fill:#F7B897;" d="M959.682,1939.908c-2.307,8.096-5.368,14.527-5.368,22.132c0,10.948,0,20.954,0,20.954h101.169
			c0,0,3.343-10.971-4.049-15.492c-4.45-2.731-14.597-4.332-23.215-8.5c-1.059-0.518-2.072-1.06-3.061-1.648
			c-1.389-0.824-2.708-1.742-3.932-2.755c-0.965-0.8-1.86-1.695-2.66-2.637c-1.389-1.577-2.496-3.367-3.32-5.415
			c-0.353-0.871-0.612-2.307-0.824-4.285c-2.943-28.465,11.614-164.692,14.039-193.839c0.282-1.789,0.471-3.626,0.471-5.509
			c0-19.989-16.198-36.188-36.188-36.188s-34.08,16.518-40.046,35.653C937.908,1789.813,972.434,1895.151,959.682,1939.908z"/>
		<path style="fill:#FFECE3;" d="M954.314,1962.04c0,10.948,0,20.954,0,20.954h101.169c0,0,3.343-10.971-4.049-15.492
			c-4.45-2.731-14.597-4.332-23.215-8.5c-1.059-0.518-2.072-1.06-3.061-1.648c-1.389-0.824-2.708-1.742-3.932-2.755
			c-0.965-0.8-1.86-1.695-2.66-2.637c-1.389-1.577-2.496-3.367-3.32-5.415c-0.353-0.871-0.612-2.307-0.824-4.285
			c-4.921,0.141-14.692,1.154-16.222,6.687c-2.072,7.44-16.363,8.876-21.755,4.285c-4.615-3.955-7.722-12.996-16.763-13.326
			C957.752,1948.101,954.314,1954.435,954.314,1962.04z"/>
		<path style="fill:#F3D7C9;" d="M1021.132,1965.053l3.72,1.507c0.589-3.343,2.142-5.957,3.367-7.558
			c-1.059-0.518-2.072-1.06-3.061-1.648C1022.074,1960.58,1021.132,1965.053,1021.132,1965.053z"/>
		<path style="fill:#F3D7C9;" d="M1011.691,1962.204l3.72,1.507c0.659-3.72,3.72-7.134,5.815-9.112
			c-0.965-0.8-1.86-1.695-2.66-2.637C1014.658,1955.588,1011.691,1962.204,1011.691,1962.204z"/>
		
			<line style="fill:none;stroke:#F3D7C9;stroke-width:2.1417;stroke-miterlimit:10;" x1="1048.827" y1="1974.652" x2="954.314" y2="1974.652"/>
		
			<ellipse transform="matrix(0.226 -0.9741 0.9741 0.226 -940.4974 2318.7783)" style="fill:none;stroke:#F7B897;stroke-width:1.7695;stroke-miterlimit:10;" cx="988.98" cy="1751.253" rx="38.294" ry="38.294"/>
		
			<ellipse style="fill:none;stroke:#F7B897;stroke-width:1.77;stroke-miterlimit:10;" cx="989.833" cy="1751.253" rx="39.146" ry="37.477"/>
		<path style="fill:#63B8AF;" d="M988.98,1539.928c-24.369,0-44.123,19.755-44.123,44.123l1.702,167.202
			c0,23.428,18.992,42.421,42.421,42.421c23.428,0,42.421-18.992,42.421-42.421l1.703-167.202
			C1033.104,1559.683,1013.349,1539.928,988.98,1539.928z"/>
		<path style="fill:#63B8AF;" d="M1031.401,1751.253c0-23.428-18.992-42.421-42.421-42.421c-23.428,0-42.421,18.992-42.421,42.421
			c0,0.953,0.043,1.895,0.105,2.832l5.693,154.251h73.246l5.693-154.252C1031.358,1753.147,1031.401,1752.205,1031.401,1751.253z"/>
		<path style="fill:#A3D6D1;" d="M1027.572,1923.172h-75.458c-3.055,0-5.531-2.476-5.531-5.531v-18.609
			c0-3.055,2.476-5.531,5.531-5.531h75.458c3.055,0,5.531,2.476,5.531,5.531v18.609
			C1033.103,1920.695,1030.627,1923.172,1027.572,1923.172z"/>
		<path style="fill:#F7B897;" d="M860.928,1939.908c-0.289,8.413,5.368,14.527,5.368,22.132c0,10.948,0,20.954,0,20.954H765.126
			c0,0-3.343-10.971,4.05-15.492c4.45-2.731,14.597-4.332,23.215-8.5c1.059-0.518,2.072-1.06,3.061-1.648
			c1.389-0.824,2.708-1.742,3.932-2.755c0.965-0.8,1.86-1.695,2.66-2.637c1.389-1.577,2.496-3.367,3.32-5.415
			c0.353-0.871,0.612-2.307,0.824-4.285c2.943-28.465,35.42-197.465,35.42-199.349c0-19.989,16.198-36.188,36.187-36.188
			c19.989,0,26.972,14.9,32.939,34.035C925.525,1788.195,862.366,1897.969,860.928,1939.908z"/>
		<path style="fill:#FFECE3;" d="M866.296,1962.04c0,10.948,0,20.954,0,20.954H765.126c0,0-3.343-10.971,4.05-15.492
			c4.45-2.731,14.597-4.332,23.215-8.5c1.059-0.518,2.072-1.06,3.061-1.648c1.389-0.824,2.708-1.742,3.932-2.755
			c0.965-0.8,1.86-1.695,2.66-2.637c1.389-1.577,2.496-3.367,3.32-5.415c0.353-0.871,0.612-2.307,0.824-4.285
			c4.921,0.141,14.692,1.154,16.222,6.687c2.072,7.44,16.363,8.876,21.755,4.285c4.615-3.955,7.723-12.996,16.763-13.326
			C862.858,1948.101,866.296,1954.435,866.296,1962.04z"/>
		<path style="fill:#F3D7C9;" d="M799.477,1965.053l-3.72,1.507c-0.589-3.343-2.142-5.957-3.367-7.558
			c1.059-0.518,2.072-1.06,3.061-1.648C798.535,1960.58,799.477,1965.053,799.477,1965.053z"/>
		<path style="fill:#F3D7C9;" d="M808.919,1962.204l-3.72,1.507c-0.659-3.72-3.72-7.134-5.815-9.112
			c0.965-0.8,1.86-1.695,2.66-2.637C805.952,1955.588,808.919,1962.204,808.919,1962.204z"/>
		
			<line style="fill:none;stroke:#F3D7C9;stroke-width:2.1417;stroke-miterlimit:10;" x1="771.783" y1="1974.652" x2="866.296" y2="1974.652"/>
		
			<ellipse transform="matrix(0.2145 -0.9767 0.9767 0.2145 -1013.9255 2231.4795)" style="fill:none;stroke:#F7B897;stroke-width:1.7695;stroke-miterlimit:10;" cx="880.432" cy="1746.135" rx="38.294" ry="38.294"/>
		
			<ellipse transform="matrix(0.2419 -0.9703 0.9703 0.2419 -1027.2614 2177.0144)" style="fill:none;stroke:#F7B897;stroke-width:1.77;stroke-miterlimit:10;" cx="879.604" cy="1745.929" rx="37.477" ry="39.146"/>
		<path style="fill:#63B8AF;" d="M931.556,1541.088c23.645,5.895,38.033,29.842,32.138,53.487l-42.102,161.823
			c-5.668,22.732-28.691,36.566-51.423,30.898s-36.566-28.691-30.898-51.423l38.798-162.647
			C883.964,1549.581,907.911,1535.192,931.556,1541.088z"/>
		<path style="fill:#63B8AF;" d="M839.271,1735.873c5.668-22.732,28.691-36.566,51.423-30.898
			c22.732,5.668,36.566,28.691,30.898,51.423c-0.231,0.924-0.5,1.828-0.786,2.722l-42.841,148.292l-71.071-17.72l31.793-151.047
			C838.854,1737.721,839.041,1736.797,839.271,1735.873z"/>
		<path style="fill:#A3D6D1;" d="M799.53,1911.092l73.217,18.255c2.964,0.739,5.966-1.065,6.705-4.029l4.502-18.056
			c0.739-2.964-1.065-5.966-4.029-6.705l-73.217-18.255c-2.964-0.739-5.966,1.065-6.705,4.029l-4.502,18.056
			C794.762,1907.351,796.566,1910.353,799.53,1911.092z"/>
		<polygon style="fill:#63B8AF;" points="1033.104,1584.051 1034.904,1530.194 890.163,1530.194 876.44,1580.054 		"/>
		<path style="fill:#EA5459;" d="M1044.047,1347.865l-66.246-29.515h-15.444h-25.582l-66.247,29.515l0.526,4.094
			c2.756,21.642,15.257,122.533,11.255,141.209c-4.488,20.944-5.499,33.661-5.499,33.661s18.854,22.441,85.108,24.311
			c66.255,1.87,77.475-6.732,77.475-6.732s1.122-16.83,1.87-31.043c0.748-14.212-3.74-29.547-4.114-43.759
			C1036.775,1455.392,1044.047,1347.865,1044.047,1347.865z"/>
		<path style="fill:#F7B897;" d="M863.273,1556.286c0,0,9.569,17.414,20.305,24.659s21.645,10.997,24.502,11.271
			c2.857,0.275,4.429-1.141,4.429-1.141s8.34,2.792,11.172,1.21c2.832-1.583,3.02-2.838,3.02-2.838s3.224,0.419,3.964-1.79
			c0.74-2.208-1.869-4.842-7.085-7.737c0,0,9.017,4.218,10.543,1.302c1.526-2.916-8.572-7.94-14.163-13.226
			c-5.59-5.287-11.768-14.443-11.768-14.443l6.619-6.426c0,0-13.912-6.097-23.689-7.733
			C881.347,1537.758,863.273,1556.286,863.273,1556.286z"/>
		<polyline style="fill:none;stroke:#EFECDB;stroke-width:1.1096;stroke-miterlimit:10;" points="945.67,1663.852 955.059,1627.763 
			972.071,1613.598 982.543,1568.717 		"/>
		<path style="fill:#F7B897;" d="M936.774,1318.349c0,0,19.774,11.724,41.026,0.463l-0.471-8.488l-0.717-7.067l-1.104-11.09
			l-0.572-5.875l-9.782-1.114c-0.022,0.004-0.022,0.004-0.022,0.004l-25.783-2.924L936.774,1318.349z"/>
		<path style="fill:#C87447;" d="M954.404,1300.703c8.283,8.623,18.96,9.605,22.925,9.621l-0.717-7.067l-1.104-11.09l-5.581-1.767
			c-0.022,0.004-0.022,0.004-0.022,0.004C958.871,1292.257,949.344,1295.422,954.404,1300.703z"/>
		<path style="fill:#F7B897;" d="M985.472,1287.533c0.022,12.95-3.624,20.931-28.251,15.596
			c-12.656-2.742-19.547-11.375-18.804-24.304l1.543-26.847c0.631-10.97,10.027-19.345,20.997-18.714
			c10.949,0.63,21.348,10.256,20.717,21.226c-0.116,6.796,0.469,10.692,1.588,15.809
			C984.291,1274.996,985.466,1283.648,985.472,1287.533z"/>
		<path style="fill:#3E3B42;" d="M953.01,1245.573c0,0,3.914,6.171,2.605,11.594c-1.309,5.423-13.441,8.839-12.985,20.408
			c0.456,11.569-4.826,26.34-4.826,26.34s-9.679-3.176-11.362-8.038c-1.683-4.862-1.122-9.286-1.122-9.286
			s-10.098-3.056-9.724-13.902c0.374-10.846,8.415-14.586,8.415-14.586s-6.171-4.675-5.236-13.464
			c0.935-8.789,13.838-15.334,22.628-14.399c0,0,9.76-13.464,23.767-13.277c14.008,0.187,12.16,9.35,12.16,9.35
			s11.759,0,15.499,8.415c3.74,8.415-2.992,14.025-2.992,14.025s2.431,6.335-1.122,10.647c-3.553,4.313-6.867,1.918-6.867,1.918
			s0.322-8.264-1.363-9.012c-6.258-2.777-8.338-8.976-8.338-8.976S962.6,1249.27,953.01,1245.573z"/>
		<path style="fill:#F7B897;" d="M944.379,1283.766c-2.543,2.702-7.368,2.291-10.778-0.918c-3.41-3.209-4.113-8-1.57-10.703
			c2.543-2.702,7.368-2.291,10.778,0.918C946.219,1276.272,946.922,1281.063,944.379,1283.766z"/>
		
			<line style="fill:none;stroke:#DE8759;stroke-width:1.1296;stroke-linecap:round;stroke-linejoin:round;stroke-miterlimit:10;" x1="942.629" y1="1280.124" x2="935.33" y2="1275.027"/>
		<path style="fill:#16142A;" d="M956.44,1262.357c0.228,0.39,1.792-0.099,3.494-1.093c1.702-0.994,2.896-2.117,2.668-2.507
			c-0.228-0.39-1.792,0.099-3.494,1.093S956.212,1261.967,956.44,1262.357z"/>
		<path style="fill:#16142A;" d="M974.315,1257.559c-0.251,0.376,0.78,1.505,2.302,2.522c1.523,1.017,2.961,1.536,3.212,1.16
			c0.251-0.376-0.78-1.505-2.302-2.521C976.004,1257.702,974.566,1257.183,974.315,1257.559z"/>
		<path style="fill:#FFFFFF;" d="M972.146,1286.707c0,0-6.035,0.108-9.375-2.991c0,0,0.122,5.092,3.528,5.68
			C969.704,1289.984,972.146,1286.707,972.146,1286.707z"/>
		
			<path style="fill:none;stroke:#DE8759;stroke-width:1.1296;stroke-linecap:round;stroke-linejoin:round;stroke-miterlimit:10;" d="
			M970.074,1266.958c0,0,1.988,7.932,5.873,10.768c0,0-1.772,3.381-6.812,2.93"/>
		<path style="fill:#EA5459;" d="M914.212,1379.988c0,6.847-2.109,13.724-6.419,19.623l-27.326,37.26l-23.964,32.645l-4.279,5.838
			l-4.616,6.297l-1.589,2.17c-0.244,0.336-0.519,0.673-0.764,1.009c-11.065,13.908-31.392,16.75-45.819,6.144
			c-8.773-6.419-13.449-16.353-13.602-26.471v-0.122c-0.061-6.969,2.017-13.969,6.419-19.99l61.775-84.21
			c10.851-14.763,31.789-18.003,46.583-7.152C909.505,1359.539,914.212,1369.717,914.212,1379.988z"/>
		<path style="fill:#F7B897;" d="M1170.271,1399.266c0,0,19.954-14,26.001-22.888c6.856-10.077,22.628-11.409,30.286-16.234
			c9.431-5.942,16.626-13.368,20.16-9.226c3.615,4.239-20.16,20.772-20.16,20.772s11.979-5.499,13.303,0
			c1.324,5.499-6.917,7.934-6.917,7.934s2.775,3.716-0.919,8.097c0,0,2.383,2.664-0.011,5.323c0,0,2.44,3.799-0.096,6.884
			s-6.059,4.781-8.495,7.984c-2.436,3.202-6.983,5.877-6.304-0.051c0,0-3.009,5.893-6.624,8.311c-3.615,2.418-25,9.22-25,9.22
			L1170.271,1399.266z"/>
		
			<path style="fill:none;stroke:#DE8759;stroke-width:1.1296;stroke-linecap:round;stroke-linejoin:round;stroke-miterlimit:10;" d="
			M1217.118,1407.861c0,0,0.705-3.446,4.455-6.437c3.363-2.682,8.009-6.654,8.009-6.654"/>
		
			<path style="fill:none;stroke:#DE8759;stroke-width:1.1296;stroke-linecap:round;stroke-linejoin:round;stroke-miterlimit:10;" d="
			M1218.063,1405.493c0,0-2.237,1.174-2.398-1.464c-0.252-4.157,7.229-12.348,13.95-15.328"/>
		
			<path style="fill:none;stroke:#DE8759;stroke-width:1.1296;stroke-linecap:round;stroke-linejoin:round;stroke-miterlimit:10;" d="
			M1226.558,1371.691c0,0-5.57,2.777-8.719,3.846"/>
		
			<path style="fill:none;stroke:#DE8759;stroke-width:1.1296;stroke-linecap:round;stroke-linejoin:round;stroke-miterlimit:10;" d="
			M1199.797,1397.986c0,0,11.048-1.405,16.573-9.181s16.573-9.181,16.573-9.181"/>
		
			<path style="fill:none;stroke:#DE8759;stroke-width:1.1296;stroke-linecap:round;stroke-linejoin:round;stroke-miterlimit:10;" d="
			M1216.937,1400.048c0,0-3.547,0.396-3.167-3.559c0.379-3.955,7.453-11.413,12.386-13.963"/>
		<path style="fill:#FFFFFF;" d="M1123.705,1478.069L1123.705,1478.069c-13.351,12.565-34.554,11.923-47.119-1.428l-71.566-76.039
			c-12.565-13.35-11.922-34.554,1.428-47.119l0,0c13.35-12.565,34.554-11.923,47.119,1.428l71.566,76.038
			C1137.698,1444.301,1137.056,1465.504,1123.705,1478.069z"/>
		<path style="fill:#EA5459;" d="M1123.714,1478.075c-0.49,0.459-0.978,0.887-1.498,1.345c-0.153,0.092-0.275,0.214-0.428,0.336
			c-3.943,3.179-8.436,5.319-13.113,6.419c-0.061,0.031-0.092,0.031-0.153,0.031c-4.524,1.07-9.231,1.161-13.785,0.305
			c-0.398-0.061-0.764-0.153-1.162-0.245c-6.297-1.376-12.257-4.616-16.995-9.628l-37.902-40.256v-0.03l-33.654-35.763
			c-12.563-13.327-11.921-34.54,1.436-47.103c6.389-6.021,14.611-9.017,22.802-9.017c8.895,0,17.759,3.515,24.3,10.454
			l58.137,61.744l13.419,14.274C1137.713,1444.299,1137.071,1465.512,1123.714,1478.075z"/>
		<path style="fill:#FFB4A2;" d="M932.02,1320.467c0,0-0.417-4.786,4.95-4.87c0,0,21.237,10.463,40.651,0
			c0,0,4.28-0.019,4.273,4.577c0,0-8.162,6.746-24.608,6.466C940.841,1326.359,932.02,1320.467,932.02,1320.467z"/>
		<path style="fill:#EA5459;" d="M897.828,1535.6l-33.042,28.366c-4.952-4.768-25.553-25.951-46.889-49.303
			c-13.082-14.275-20.54-23.75-24.361-28.916c-5.196-5.655-8.1-13.266-7.703-21.244v-0.122c0.092-1.467,0.306-2.965,0.611-4.463
			c3.332-15.833,19.685-26.256,35.518-22.925c8.039,1.712,16.292,5.288,20.357,11.738c1.192,1.406,4.463,6.113,8.834,12.685
			c1.65,2.476,3.454,5.196,5.349,8.1c2.69,4.096,5.593,8.558,8.558,13.174C878.969,1504.27,894.558,1529.151,897.828,1535.6z"/>
		<path style="fill:#EA5459;" d="M1204.867,1422.077c-5.38,4.249-29.16,21.763-55.233,39.736
			c-12.349,8.498-21.396,14.091-27.418,17.606c-0.214,0.122-0.428,0.214-0.612,0.336c-1.498,0.856-2.812,1.589-3.913,2.201
			c-2.751,1.926-5.808,3.332-9.017,4.218c-0.061,0.031-0.092,0.031-0.153,0.031c-4.432,1.192-9.139,1.345-13.785,0.305
			c-0.398-0.061-0.764-0.153-1.162-0.245c-0.825-0.214-1.651-0.489-2.445-0.764c-12.44-4.463-20.143-17.086-19.501-29.863
			c0.092-2.843,0.611-5.716,1.62-8.467c2.781-7.733,7.458-15.405,14.397-18.554c2.262-1.437,11.799-6.144,24.056-11.951
			c25.095-11.89,61.469-28.396,69.569-31.178c0,0,7.635,4.237,15.82,16.929C1204.046,1413.203,1204.867,1422.077,1204.867,1422.077z
			"/>
		<g>
			<defs>
				<path id="SVGID_1_" d="M1044.047,1347.865l-66.246-29.515h-15.444h-25.582l-66.247,29.515l0.526,4.094
					c2.756,21.642,15.257,122.533,11.255,141.209c-4.488,20.944-5.499,33.661-5.499,33.661s18.854,22.441,85.108,24.311
					c66.255,1.87,77.475-6.732,77.475-6.732s1.122-16.83,1.87-31.043c0.748-14.212-3.74-29.547-4.114-43.759
					C1036.775,1455.392,1044.047,1347.865,1044.047,1347.865z"/>
			</defs>
			<clipPath id="SVGID_00000094589989996654204250000014522256117300461500_">
				<use xlink:href="#SVGID_1_"  style="overflow:visible;"/>
			</clipPath>
			<g style="clip-path:url(#SVGID_00000094589989996654204250000014522256117300461500_);">
				<path style="fill:#FFFFFF;" d="M872.944,1469.21c70.475-0.936,140.965-1.223,211.451-0.86c14.171,0.073,14.186-14.954,0-15.027
					c-70.486-0.363-140.976-0.076-211.451,0.86C858.794,1454.37,858.746,1469.398,872.944,1469.21L872.944,1469.21z"/>
			</g>
			<g style="clip-path:url(#SVGID_00000094589989996654204250000014522256117300461500_);">
				<path style="fill:#FFFFFF;" d="M872.944,1506.478c70.475-0.936,140.965-1.223,211.451-0.861
					c14.171,0.073,14.186-14.955,0-15.028c-70.486-0.363-140.976-0.076-211.451,0.861
					C858.794,1491.638,858.746,1506.666,872.944,1506.478L872.944,1506.478z"/>
			</g>
		</g>
		<ellipse style="fill:#16142A;" cx="961.91" cy="1267.64" rx="1.247" ry="2.493"/>
		<ellipse style="fill:#16142A;" cx="976.553" cy="1267.64" rx="1.247" ry="2.493"/>
		<path style="fill:#9E292D;" d="M1121.788,1479.756c-3.943,3.179-8.436,5.319-13.113,6.419c-0.061,0.031-0.092,0.031-0.153,0.031
			c-4.432,1.192-9.139,1.345-13.785,0.305c-0.398-0.061-0.764-0.153-1.162-0.245c-6.297-1.376-12.257-4.616-16.995-9.628
			l-37.902-40.256v-0.03l1.804-33.47c0,0,1.039,15.619,13.694,33.5c5.288,7.458,11.493,13.785,17.453,19.257
			c8.314,7.672,16.109,13.663,20.265,18.706c4.524,5.502,18.523,6.969,29.711,5.41H1121.788z"/>
		<path style="fill:none;stroke:#9E292D;stroke-width:1.5283;stroke-miterlimit:10;" d="M1111.701,1416.667
			c0,0,6.673,4.922,6.054,18.21"/>
		<path style="fill:none;stroke:#9E292D;stroke-width:1.5283;stroke-miterlimit:10;" d="M1113.587,1418.674
			c0,0,2.262,12.233-6.084,19.651"/>
		
			<path style="fill:none;stroke:#DE8759;stroke-width:1.1296;stroke-linecap:round;stroke-linejoin:round;stroke-miterlimit:10;" d="
			M912.509,1591.076c0,0-18.437-6.548-22.301-13.039"/>
		
			<path style="fill:none;stroke:#DE8759;stroke-width:1.1296;stroke-linecap:round;stroke-linejoin:round;stroke-miterlimit:10;" d="
			M926.702,1589.447c0,0-22.217-8.474-27.926-15.506"/>
		
			<path style="fill:none;stroke:#DE8759;stroke-width:1.1296;stroke-linecap:round;stroke-linejoin:round;stroke-miterlimit:10;" d="
			M923.581,1579.921c0,0-15.702-5.027-18.999-9.766"/>
		<path style="fill:#9E292D;" d="M856.503,1469.516c2.69,4.096,5.593,8.558,8.558,13.174c-2.873-3.148-6.816-6.816-10.24-7.611
			c-0.947-0.214-1.834-0.092-2.598,0.275c-2.048,0.978-3.576,3.699-4.616,6.297c-1.192,2.996-1.742,5.869-1.742,5.869
			c-0.305-0.917-0.489-1.834-0.611-2.69c-1.406-9.445,5.838-15.742,5.838-15.742c-7.397-3.485-21.916,0.611-21.916,0.611
			c8.651-10.82,20.846-5.563,20.846-5.563s0.397-0.978,1.131-2.72c2.414-5.807,8.497-19.99,15.405-32.92
			c8.956-16.781,9.659-33.379,9.659-33.379l4.249,41.754L856.503,1469.516z"/>
	</g>
	<g>
		<path style="fill:none;stroke:#86DDF9;stroke-width:4.5737;stroke-miterlimit:10;" d="M764.498,586.539
			c4.535,8.575,68.668,131.348,72.814,284.169c1.63-15.945,4.216-49.499,1.878-84.507c-2.835,1.099-5.669,1.878-5.669,1.878
			c2.445-1.382,4.181-4.5,5.279-7.051c-0.992-12.26-2.622-24.555-5.138-36.318c-1.701-7.831-4.146-16.37-7.086-25.263
			c-2.551,3.791-5.35,7.122-5.528,7.299c1.382-3.047,2.197-9.567,2.658-15.519c-3.898-10.807-8.433-22.004-13.252-33.059
			c-1.346,3.862-2.941,6.732-3.047,6.909c0.921-2.516,1.169-7.228,1.205-11.126C789.585,630.936,767.227,591.322,764.498,586.539z"
			/>
		<path style="fill:none;stroke:#86DDF9;stroke-width:4.5737;stroke-miterlimit:10;" d="M783.738,671.081
			c-1.169-0.39-14.031-4.677-24.448-10.807c0.673,14.421,2.232,30.862,5.032,49.251c8.397,8.752,20.126,18.85,31.57,21.401
			c-0.638-0.036-15.448-0.638-28.523-3.508c1.346,6.98,2.835,14.208,4.535,21.685c1.276,5.669,2.587,11.09,3.969,16.299
			c7.299,7.937,18.318,18.177,27.531,19.736c0,0-10.488,3.65-21.33,1.63c3.224,10.098,6.59,19.204,9.992,27.354
			c4.181,2.551,13.358,7.441,24.413,8.929c0,0-11.834,0.39-21.011-1.063c16.228,36.07,32.421,51.696,38.373,56.621
			c-5.705-59.633-22.393-179.607-69.554-292.424c-0.036-0.106-0.071-0.142-0.071-0.142s-5.386,19.169-5.386,55.558v1.736
			C764.605,652.55,774.136,665.837,783.738,671.081z"/>
		<path style="fill:none;stroke:#86DDF9;stroke-width:4.5737;stroke-miterlimit:10;" d="M764.286,586.185
			c47.161,112.817,63.849,232.791,69.554,292.424c2.303,24.059,2.835,38.267,2.835,38.267c0.886-15.626,1.063-31.039,0.638-46.168
			c-4.146-152.82-68.279-275.594-72.814-284.169C764.392,586.362,764.321,586.255,764.286,586.185z"/>
	</g>
	<g>
		<g>
			<path style="fill:#E3F3F9;" d="M2199.831,1097.086h-112.711c-7.156,0-13.024-6.879-13.024-15.309v-46.094h112.711v46.094
				C2186.806,1090.207,2192.675,1097.086,2199.831,1097.086z"/>
			<path style="fill:#E3F3F9;" d="M2238.904,933.094v39.677h-26.049v-39.677c0-4.194,1.467-8.011,3.828-10.779
				c2.362-2.768,5.618-4.488,9.196-4.488C2233.072,917.827,2238.904,924.706,2238.904,933.094z"/>
			<path style="fill:#E3F3F9;" d="M2225.879,917.827c-3.578,0-6.834,1.72-9.196,4.488c-2.361,2.768-3.828,6.585-3.828,10.779
				v148.683c0,8.43-5.833,15.309-13.024,15.309c-7.156,0-13.024-6.879-13.024-15.309v-46.094h-86.662V933.094
				c0-4.194,1.467-8.011,3.828-10.779s5.618-4.488,9.196-4.488H2225.879z"/>
			
				<line style="fill:none;stroke:#FFFFFF;stroke-width:3.9783;stroke-linecap:round;stroke-miterlimit:10;" x1="2115.731" y1="947.765" x2="2190.741" y2="947.765"/>
			
				<line style="fill:none;stroke:#FFFFFF;stroke-width:3.9783;stroke-linecap:round;stroke-miterlimit:10;" x1="2115.731" y1="966.326" x2="2190.741" y2="966.326"/>
			
				<line style="fill:none;stroke:#FFFFFF;stroke-width:3.9783;stroke-linecap:round;stroke-miterlimit:10;" x1="2115.731" y1="984.132" x2="2190.741" y2="984.132"/>
			
				<line style="fill:none;stroke:#FFFFFF;stroke-width:3.9783;stroke-linecap:round;stroke-miterlimit:10;" x1="2115.731" y1="1001.938" x2="2190.741" y2="1001.938"/>
			
				<line style="fill:none;stroke:#FFFFFF;stroke-width:3.9783;stroke-linecap:round;stroke-miterlimit:10;" x1="2115.731" y1="1019.743" x2="2190.741" y2="1019.743"/>
			<path style="fill:none;stroke:#FFFFFF;stroke-width:1.9892;stroke-linejoin:round;stroke-miterlimit:10;" d="M2074.553,1034.738
				h112.253c0,0-7.972,64.349,13.024,63.531"/>
		</g>
		<path style="fill:none;stroke:#FFFFFF;stroke-width:1.9892;stroke-linejoin:round;stroke-miterlimit:10;" d="M2213.696,978.084
			c0,0,0-39.547,0-44.99s2.826-15.267,12.184-15.267c9.357,0,29.879-1.31,29.879-1.31"/>
	</g>
</g>
</svg>
