<?xml version="1.0" encoding="utf-8"?>
<!-- Generator: Adobe Illustrator 27.5.0, SVG Export Plug-In . SVG Version: 6.00 Build 0)  -->
<svg version="1.1" xmlns="http://www.w3.org/2000/svg" xmlns:xlink="http://www.w3.org/1999/xlink" x="0px" y="0px"
	 viewBox="0 0 500 500" style="enable-background:new 0 0 500 500;" xml:space="preserve">
<g id="BACKGROUND">
	<rect style="fill:#FEFEFE;" width="500" height="500"/>
</g>
<g id="OBJECTS">
	<g>
		<path style="opacity:0.38;fill:#E5DAEF;" d="M73.014,311.283c18.131-24.66-3.671-56.542-12.804-87.41
			C37.798,148.123,113.615,103.525,196.597,86.49c196.13-40.263,275.139,153.714,242.986,254.932
			c-31.6,99.477-188.975,68.641-257.409,87.065C77.468,456.676,21.18,381.787,73.014,311.283z"/>
		<g>
			<g>
				<g>
					<path style="fill:#A5B4D6;" d="M302.847,436.591h123.679c7.536,0,13.645-6.109,13.645-13.645V169.408
						c0-7.536-6.109-13.645-13.645-13.645H304.015c-7.536,0-13.645,6.109-13.645,13.645v254.706
						C290.37,431.005,295.956,436.591,302.847,436.591z"/>
					<path style="fill:#B7C3E5;" d="M290.822,436.591h123.679c7.536,0,13.645-6.109,13.645-13.645V169.408
						c0-7.536-6.109-13.645-13.645-13.645H291.99c-7.536,0-13.645,6.109-13.645,13.645v254.706
						C278.345,431.005,283.931,436.591,290.822,436.591z"/>
					<g>
						
							<rect x="287.2" y="170.738" transform="matrix(-1 -1.224647e-16 1.224647e-16 -1 706.4913 579.2098)" style="fill:#FFFEFF;" width="132.092" height="237.734"/>
					</g>
					<rect x="287.2" y="170.738" style="fill:#4E4E7F;" width="132.092" height="25.56"/>
					<path style="fill:none;stroke:#A1AED3;stroke-width:1.3836;stroke-miterlimit:10;" d="M342.096,422.207
						c0,4.797,3.888,8.685,8.685,8.685c4.797,0,8.685-3.889,8.685-8.685s-3.888-8.685-8.685-8.685
						C345.984,413.522,342.096,417.41,342.096,422.207z"/>
					<g>
						<path style="fill:#A1AED3;" d="M358.475,164.277c0,1.172,0.95,2.122,2.122,2.122c1.172,0,2.122-0.95,2.122-2.122
							c0-1.172-0.95-2.122-2.122-2.122C359.425,162.156,358.475,163.106,358.475,164.277z"/>
						<path style="fill:#A1AED3;" d="M334.031,162.156c0.02,0,0.038,0.005,0.057,0.006v-0.006h19.102
							c1.172,0,2.122,0.95,2.122,2.122c0,1.172-0.95,2.122-2.122,2.122h-19.102v-0.006c-0.019,0.001-0.037,0.006-0.057,0.006
							c-1.172,0-2.122-0.95-2.122-2.122C331.909,163.106,332.859,162.156,334.031,162.156z"/>
					</g>
					<g>
						<g>
							<g>
								<path style="fill:#62B155;" d="M396.579,186.951h-2.565c-0.167,0-0.302-0.135-0.302-0.302v-6.525
									c0-0.167,0.135-0.302,0.302-0.302h2.565c0.167,0,0.302,0.135,0.302,0.302v6.525
									C396.88,186.816,396.745,186.951,396.579,186.951z"/>
							</g>
							<g>
								<path style="fill:#62B155;" d="M401.034,186.951h-2.565c-0.167,0-0.302-0.135-0.302-0.302v-6.525
									c0-0.167,0.135-0.302,0.302-0.302h2.565c0.167,0,0.302,0.135,0.302,0.302v6.525
									C401.336,186.816,401.201,186.951,401.034,186.951z"/>
							</g>
							<g>
								<path style="fill:#62B155;" d="M405.49,186.951h-2.565c-0.167,0-0.302-0.135-0.302-0.302v-6.525
									c0-0.167,0.135-0.302,0.302-0.302h2.565c0.167,0,0.302,0.135,0.302,0.302v6.525
									C405.792,186.816,405.656,186.951,405.49,186.951z"/>
							</g>
						</g>
						<g>
							<path style="fill:#62B155;" d="M410.468,188.338h-16.977c-0.731,0-1.326-0.595-1.326-1.326v-7.249
								c0-0.731,0.595-1.326,1.326-1.326h16.977c0.731,0,1.326,0.595,1.326,1.326v7.249
								C411.794,187.743,411.199,188.338,410.468,188.338z M393.491,179.031c-0.404,0-0.732,0.328-0.732,0.732v7.249
								c0,0.404,0.328,0.732,0.732,0.732h16.977c0.404,0,0.732-0.328,0.732-0.732v-7.249c0-0.404-0.328-0.732-0.732-0.732H393.491z"
								/>
						</g>
						<g>
							<path style="fill:#62B155;" d="M412.47,185.342h-0.671c-0.167,0-0.302-0.135-0.302-0.302v-2.862
								c0-0.167,0.135-0.302,0.302-0.302h0.671c0.167,0,0.302,0.135,0.302,0.302v2.862
								C412.772,185.207,412.637,185.342,412.47,185.342z"/>
						</g>
					</g>
					<g>
						<defs>
							
								<rect id="SVGID_1_" x="287.2" y="170.738" transform="matrix(-1 -1.224647e-16 1.224647e-16 -1 706.4913 579.2098)" width="132.092" height="237.734"/>
						</defs>
						<clipPath id="SVGID_00000047046390348520264590000006096715224767664769_">
							<use xlink:href="#SVGID_1_"  style="overflow:visible;"/>
						</clipPath>
						<g style="clip-path:url(#SVGID_00000047046390348520264590000006096715224767664769_);">
							<g>
								<path style="fill:#A5614C;" d="M371.036,269.998c0,0-1.316,7.086,0.037,8.894c-14.925,12.513-21.63,1.457-22.839,0.247
									c0,0,2.209-2.724,1.944-7.425C350.177,271.715,369.705,270.767,371.036,269.998z"/>
								<path style="opacity:0.07;fill:#030303;" d="M349.701,276.054c0,0,8.885,1.896,14.426,0.76c0,0-5.659,2.481-15.374,1.524
									L349.701,276.054z"/>
								<g>
									<g>
										<g>
											<path style="fill:#A5614C;" d="M370.16,219.125c0,0,5.485,1.305,11.237,4.662c5.897,3.444,12.072,9.042,12.904,17.604
												c0.48,4.93,0.055,9.696-1.251,14.063c-3.175,10.611-11.568,18.862-24.913,21.372c-9.419,1.771-19.616,0.473-27.202-5.099
												c-7.583-5.571-12.123-17.392-10.24-27.24c1.885-9.847,6.411-15.072,13.404-19.627
												C351.089,220.304,360.122,218.394,370.16,219.125z"/>
											<g>
												<path style="opacity:0.21;fill:#030303;" d="M355.096,254.744c-0.02,0-0.039,0-0.057-0.002
													c-0.09-0.01-0.888-0.082-1.404-0.229c-1.247-0.359-1.69-1.02-1.844-1.51c-0.161-0.509-0.165-1.339,0.712-2.418
													c0.778-0.957,0.914-2.892,0.902-3.558c-0.01-0.352,0.271-0.644,0.622-0.65c0.006,0,0.012,0,0.016,0
													c0.345,0,0.628,0.276,0.637,0.623c0.002,0.117,0.049,2.873-1.186,4.392c-0.4,0.491-0.578,0.939-0.486,1.229
													c0.086,0.273,0.433,0.509,0.98,0.665c0.335,0.098,0.953,0.167,1.163,0.186c0.349,0.029,0.61,0.339,0.581,0.69
													C355.702,254.493,355.423,254.744,355.096,254.744z"/>
											</g>
											<path style="fill:#352A30;" d="M341.451,248.239c-0.047,1.304,0.661,2.387,1.583,2.419
												c0.92,0.034,1.704-0.994,1.753-2.296c0.047-1.304-0.663-2.387-1.583-2.42S341.5,246.937,341.451,248.239z"/>
											<path style="fill:#352A30;" d="M367.146,249.231c-0.045,1.302,0.661,2.386,1.583,2.419
												c0.92,0.033,1.706-0.996,1.755-2.298c0.045-1.301-0.663-2.385-1.585-2.418
												C367.978,246.9,367.193,247.927,367.146,249.231z"/>
											<path style="opacity:0.07;fill:#030303;" d="M369.137,257.888c0.057,3.183,2.685,5.714,5.865,5.658
												c3.183-0.059,5.717-2.685,5.658-5.867c-0.059-3.183-2.685-5.715-5.868-5.657
												C371.61,252.079,369.078,254.705,369.137,257.888z"/>
											<path style="opacity:0.07;fill:#030303;" d="M333.403,261.249c0.5,0.132,1.026,0.196,1.567,0.186
												c3.183-0.058,5.715-2.685,5.658-5.866c-0.059-3.182-2.685-5.714-5.866-5.658c-0.735,0.014-1.435,0.164-2.075,0.426
												c0,0-0.33,3.806,0.027,6.474C333.069,259.479,333.403,261.249,333.403,261.249z"/>
											<g>
												<path style="fill:#FBFDFF;" d="M351.044,257.699c0.394,1.616,1.61,2.946,3.293,3.239
													c1.926,0.333,3.626-0.765,4.785-2.206C359.739,257.962,350.807,256.74,351.044,257.699z"/>
											</g>
										</g>
									</g>
									<g>
										<path style="fill:#352A30;" d="M343.118,219.399c0.396-0.395,1.112,0.121,1.671,0.121c6.721,0,24.598-4.746,35.132-0.547
											c10.537,4.2,17.373,15.375,17.373,25.987c0,10.612-7.125,20.094-9.872,21.102c2.553-4.424,4.451-8.893,1.547-9.518
											c-4.047-0.87-4.875,8.847-4.875,8.847s-6.207-0.522-4.173-2.554c2.034-2.033,4.538-16.633-1.604-18.181
											c-16.406-4.131-31.877-18.654-41.727-5.516c-8.077,10.771-2.1,25.229-2.1,25.229c-9.333-9.899-1.941-27.9-1.941-27.9
											S337.052,225.464,343.118,219.399z"/>
										<path style="fill:#352A30;" d="M397.293,240.76c0,0,4.597-5.272,1.81-10.098c-2.787-4.826-8.368-3.602-8.368-3.602
											s2.765-4.752-1.206-8.723c-3.971-3.971-9.609,0.635-9.609,0.635s1.196-6.136-5.022-9.726
											c-4.791-2.766-10.501,0.578-12.872,2.258c-2.975-2.179-6.375-3.976-9.523-3.976c-7.989,0-9.385,6.843-9.385,6.843
											c-9.444,0-10.578,7.65-9.562,12.128c-0.647,0.301-1.355,0.713-2.118,1.288c-3.489,2.629-5.355,8.589-2.479,13.575
											c2.879,4.987,3.589,2.255,3.589,2.255l11.119-15.291l-0.347-0.136l24.225-8.182l10.321,11.885l14.81,22.27
											c0,0,6.62-1.524,7.197-7.231C400.347,242.248,397.293,240.76,397.293,240.76z"/>
									</g>
								</g>
							</g>
							<g>
								<g>
									<g>
										<path style="fill:#B7205D;" d="M354.539,423.261c0,0,3.638,7.807,4.52,12.92c0.345,2.001,21.844,1.778,23.131-0.555
											l-2.213-23.671c0,0,4.883-36.32,1.647-53.801c0-2.088-43.119-7.226-44.4-2.668c-3.261,11.594-7.788,39.392-6.84,52.659
											c0.696,9.745,4.938,22.24,5.432,24.022c3.566,3.899,17.443,7.417,17.43,5.5"/>
										<path style="opacity:0.13;fill:#11232C;" d="M353.543,409.132l-0.724-28.358c0,0-1.264,24.375-1.264,26.634
											c0,0.923,1.958,8.464,2.775,10.355c0.471,1.092,0-2.893,0-2.893L353.543,409.132z"/>
									</g>
								</g>
								<polygon style="opacity:0.1;fill:#2C2526;" points="339.776,300.945 340.183,311.169 339.004,313.17 								"/>
								<polygon style="opacity:0.43;fill:#11232C;" points="377.965,312.329 377.813,315.911 375.809,305.578 								"/>
								<g>
									<path style="opacity:0.13;fill:#11232C;" d="M335.816,361.347l1.408-10.101l11.723,2.862
										c0.173-2.373,0.262-3.868,0.262-3.868l32.462,5.079l0.632,7.89C371.773,367.924,347.084,370.055,335.816,361.347z"/>
									<path style="fill:#FDD539;" d="M392.973,308.748c-0.803-8.017-1.635-13.612-6.535-19.877
										c-1.145-1.464-2.814-2.867-4.63-4.14c-0.007-0.006-0.011-0.015-0.018-0.021c-2.455-2.02-7.33-4.313-9.557-5.309
										c-0.722-0.326-1.161-0.508-1.161-0.508c-4.578,2.777-8.798,5.141-16.312,3.271c-4.244-1.056-6.125-3.759-6.125-3.759
										s-4.517,0.191-11.006,5.507c-7.547,6.183-9.757,25.122-9.456,26.834c1.195,6.797,9.279,1.774,9.279,1.774
										s-3.804,44.054-3.428,47.056c16.96,11.517,51.866,5.428,51.954-1.349c0.127-9.788-0.344-20.025-0.692-27.16
										c-0.348-7.135-4.063-10.187,0.39-6.659C389.71,327.602,394.909,328.075,392.973,308.748z"/>
								</g>
								<g>
									<path style="fill:#E5322E;" d="M313.936,288.625c0,0-5.539,2.78-6.102,9.398
										C307.834,298.023,314.087,294.812,313.936,288.625z"/>
									<path style="fill:#FDD539;" d="M333.428,289.457l-5.346,11.931c0,0-13.534-12.151-14.146-12.763
										c-0.336,5.99-6.102,9.398-6.102,9.398s10.098,13.841,13.74,17.483c4.122,4.122,10.604,8.3,15.122,4.482
										c4.518-3.818,6.952-15.03,6.952-15.03L333.428,289.457z"/>
									<g>
										<path style="fill:#965645;" d="M300.09,286.579c-0.872-0.213-2.693-0.1-3.598-0.004c-0.906,0.097-1.192,0.318-1.115,0.743
											c0.077,0.425,0.665,0.69,1.202,0.671c0.537-0.019,5.143,0.56,7.074,1.478c0,0,0.61-4.508-1.212-5.275
											c-0.714-0.301-6.551,0.023-7.373,0.206c-0.822,0.183-0.8,0.738-0.556,1.092c0.367,0.531,2.246,0.115,4.018,0.266
											c1.829,0.156,2.955,1.134,2.955,1.134S300.962,286.792,300.09,286.579"/>
										<path style="fill:#A5614C;" d="M313.6,290.788c-0.278-0.482-5.719-6.485-7.361-7.432s-8.283-1.957-10.164-0.778
											c-0.996,0.624-0.678,1.455,0.923,1.455c1.601,0,4.365,0.073,5.42,1.92c0.43,0.753,1.137,2.742-0.127,3.314
											c-0.604,0.273-2.306,0.417-3.329,0.329c-1.305-0.113-1.688,0.577-1.243,1.251c0.642,0.97,4.07,0.549,5.38,1.413
											c2.925,1.929,7.074,3.91,7.074,3.91S313.144,293.324,313.6,290.788z"/>
									</g>
									<polygon style="fill:#EABC2A;" points="337.629,304.604 336.847,319.832 335.943,320.537 									"/>
								</g>
								<g>
									<path style="fill:#EABC2A;" d="M375.809,305.578c0,0,1.213,16.028-2.093,17.937c-2.42,1.397-25.809-1.163-25.809-1.163
										l-2.23,10.374c0,0,29.59,8.2,35.773,8.2c2.912,0,3.736-0.108,4.253-0.366c-0.095-1.618-0.931-4.118-0.205-4.968
										c4.602-5.391,7.919-16.051,6.68-24.145C391.281,305.578,375.809,305.578,375.809,305.578z"/>
									<path style="fill:#A5614C;" d="M340.634,320.775c0.373,0.491-0.472,1.715-1.083,1.626
										c-1.785-0.261-4.116-1.457-4.707-1.674c-0.785-0.287-1.48-0.919-1.97-0.636c-0.687,0.397-0.08,1.497,1.334,2.367
										c1.661,1.023,3.65,1.656,3.65,1.656s-0.234,0.437-1.845,0.014c-1.61-0.423-3.854-1.74-4.363-2.028
										c-0.51-0.288-1.211-0.328-1.499,0.044c-0.288,0.372-0.122,0.729,0.704,1.278c0.827,0.549,3.474,2.152,4.423,2.56
										c0.898,0.385,1.697,0.807,1.697,0.807s-2.003-0.319-3.85-1.087c-1.789-0.744-2.079-1.145-2.457-1.03
										c-0.43,0.13-0.714,0.744-0.011,1.335c0.703,0.59,3.107,1.595,3.87,1.957c0.727,0.344,1.794,0.589,1.794,0.589
										s-1.962-0.006-3.986-0.82c-0.641-0.258-1.021,0.297-0.538,0.777c0.483,0.48,4.612,2.005,6.591,2.005
										c1.271,0,4.993-0.642,4.993-0.642l3.98,0.313c0,0,3.674-2.671,2.658-5.592c-0.107-0.306-3.37-0.887-3.513-1.19
										c0,0-0.901-1.601-1.89-2.351c-0.159-0.12-0.68-0.504-1.002-0.739c0,0-2.988-2.788-3.479-2.963
										c-0.49-0.176-1.705,0.189-0.97,1.412C339.36,319.091,340.053,320.009,340.634,320.775z"/>
									<path style="fill:#FDD539;" d="M375.402,303.588c0,0,2.578,19.653,0.157,21.05c-2.42,1.397-26.249-2.286-27.652-2.286
										c0.471,4.298-1.934,9.63-1.934,9.63s32.162,7.913,38.345,7.913c6.183,0,12.52-9.38,7.985-36.741
										C390.611,292.938,375.402,303.588,375.402,303.588z"/>
								</g>
							</g>
						</g>
					</g>
					<g>
						<circle style="fill:none;stroke:#384392;stroke-width:2.7699;stroke-miterlimit:10;" cx="353.246" cy="306.473" r="18.596"/>
						<path style="fill:#384392;" d="M364.242,304.254l-15.221-8.788c-1.708-0.986-3.843,0.246-3.843,2.219v17.576
							c0,1.972,2.135,3.205,3.843,2.219l15.221-8.788C365.95,307.706,365.95,305.241,364.242,304.254z"/>
					</g>
				</g>
				<g>
					<g>
						<g>
							<g>
								<path style="fill:#B7205D;" d="M439.997,88.81h-68.411c-2.941,0-5.326,2.384-5.326,5.326v41.359
									c0,2.941,2.384,5.326,5.326,5.326h0.334v6.195c0,0.989,1.104,1.576,1.924,1.024l10.712-7.219h55.441
									c2.941,0,5.326-2.385,5.326-5.326V94.136C445.323,91.194,442.938,88.81,439.997,88.81z"/>
								<g>
									<g>
										<path style="fill:#FFFFFF;" d="M430.2,101.976h-48.818c-0.642,0-1.162-0.521-1.162-1.162s0.521-1.162,1.162-1.162H430.2
											c0.642,0,1.162,0.52,1.162,1.162S430.842,101.976,430.2,101.976z"/>
									</g>
									<g>
										<path style="fill:#FFFFFF;" d="M430.2,109.042h-48.818c-0.642,0-1.162-0.521-1.162-1.162c0-0.642,0.521-1.162,1.162-1.162
											H430.2c0.642,0,1.162,0.521,1.162,1.162C431.362,108.522,430.842,109.042,430.2,109.042z"/>
									</g>
									<g>
										<path style="fill:#FFFFFF;" d="M430.2,116.11h-48.818c-0.642,0-1.162-0.521-1.162-1.162c0-0.642,0.521-1.162,1.162-1.162
											H430.2c0.642,0,1.162,0.521,1.162,1.162C431.362,115.589,430.842,116.11,430.2,116.11z"/>
									</g>
									<g>
										<path style="fill:#FFFFFF;" d="M430.2,123.176h-48.818c-0.642,0-1.162-0.521-1.162-1.162c0-0.642,0.521-1.162,1.162-1.162
											H430.2c0.642,0,1.162,0.521,1.162,1.162C431.362,122.655,430.842,123.176,430.2,123.176z"/>
									</g>
									<g>
										<path style="fill:#FFFFFF;" d="M410.228,130.242h-28.671c-0.642,0-1.162-0.521-1.162-1.162
											c0-0.642,0.521-1.162,1.162-1.162h28.671c0.642,0,1.162,0.521,1.162,1.162
											C411.39,129.722,410.869,130.242,410.228,130.242z"/>
									</g>
								</g>
							</g>
						</g>
					</g>
				</g>
				<g>
					<path style="fill:#C5D0EA;" d="M312.54,96.353c10.757,0,19.478,8.721,19.478,19.478c0,5.915-2.64,11.21-6.802,14.783v5.945
						c0,1.046-1.168,1.667-2.035,1.083l-4.79-3.228c-1.847,0.581-3.812,0.896-5.851,0.896c-10.757,0-19.478-8.72-19.478-19.478
						C293.063,105.074,301.783,96.353,312.54,96.353z"/>
					<g>
						<path style="fill:#4B6FC6;" d="M324.083,113.546c-0.001-0.758-0.243-0.998-1.007-0.999c-1.545-0.002-3.089-0.002-4.634-0.001
							c-0.716,0.001-0.98,0.268-0.98,0.988c-0.001,3.044-0.001,6.088,0,9.132c0,0.805,0.245,1.049,1.055,1.049
							c1.53,0.001,3.06,0.002,4.59,0c0.722-0.001,0.976-0.257,0.977-0.99C324.086,121.195,324.085,115.076,324.083,113.546z"/>
						<path style="fill:#4B6FC6;" d="M300.996,117.062c0-0.707,0.338-1.334,0.859-1.733c0.022-0.028,0.041-0.058,0.064-0.085
							c0.014-0.017,0.022-0.032,0.035-0.048c-0.205-0.318-0.325-0.695-0.325-1.101c0-1.126,0.913-2.039,2.039-2.039
							c0.057,0,2.289-0.026,3.143-0.014c0.793,0.011,1.054,0.05,0.876-1.073c-0.005-0.029-0.016-0.057-0.022-0.085
							c-0.293-1.373-0.455-2.758-0.387-4.164c0.031-0.661,0.164-1.288,0.614-1.803c0.754-0.863,1.818-0.691,2.232,0.374
							c0.176,0.451,0.3,0.923,0.425,1.392c0.332,1.245,0.785,2.439,1.51,3.51c0.998,1.475,2.266,2.547,4.141,2.669
							c0.346,0.022,0.478,0.201,0.476,0.549c-0.011,1.56-0.007,7.8,0.006,9.361c0.003,0.395-0.131,0.552-0.537,0.638
							c-0.887,0.188-1.755,0.464-2.632,0.697c-0.862,0.229-1.718,0.594-2.592,0.646c-1.893,0.113-5.931,0.081-5.985,0.081
							c-1.126,0-2.039-0.913-2.039-2.038c0-0.365,0.097-0.708,0.266-1.004c-0.009-0.007-0.02-0.013-0.03-0.02
							c-0.779-0.287-1.335-1.033-1.335-1.911c0-0.318,0.075-0.617,0.204-0.885c-0.047-0.054-0.09-0.111-0.132-0.168
							C301.339,118.407,300.996,117.775,300.996,117.062z"/>
					</g>
				</g>
			</g>
			<g>
				<g>
					<path style="fill:#E65C8F;" d="M188.247,325.953H61.119c-3.552,0-6.442,2.889-6.442,6.441v13.557
						c0,3.552,2.89,6.441,6.442,6.441h127.128c0.972,0,1.759-0.787,1.759-1.759v-22.922
						C190.005,326.741,189.218,325.953,188.247,325.953z"/>
					<g>
						<path style="fill:#FEFEFE;" d="M306.677,350.634H179.964c-4.623,0-8.37-3.747-8.37-8.37v-6.182c0-4.623,3.747-8.37,8.37-8.37
							h126.713"/>
						<path style="fill:#E65C8F;" d="M306.677,352.392H179.964c-5.585,0-10.128-4.543-10.128-10.128v-6.182
							c0-5.585,4.543-10.129,10.128-10.129h126.713c0.972,0,1.759,0.787,1.759,1.759c0,0.972-0.787,1.759-1.759,1.759H179.964
							c-3.645,0-6.611,2.966-6.611,6.611v6.182c0,3.645,2.966,6.611,6.611,6.611h126.713c0.972,0,1.759,0.787,1.759,1.759
							C308.436,351.605,307.649,352.392,306.677,352.392z"/>
					</g>
					<g>
						
							<line style="fill:none;stroke:#E4E9F7;stroke-width:1.4072;stroke-linecap:round;stroke-linejoin:round;stroke-miterlimit:10;" x1="178.281" y1="332.112" x2="303.522" y2="332.112"/>
						
							<line style="fill:none;stroke:#E4E9F7;stroke-width:1.4072;stroke-linecap:round;stroke-linejoin:round;stroke-miterlimit:10;" x1="178.281" y1="335.543" x2="303.522" y2="335.543"/>
						
							<line style="fill:none;stroke:#E4E9F7;stroke-width:1.4072;stroke-linecap:round;stroke-linejoin:round;stroke-miterlimit:10;" x1="178.281" y1="338.973" x2="303.522" y2="338.973"/>
						
							<line style="fill:none;stroke:#E4E9F7;stroke-width:1.4072;stroke-linecap:round;stroke-linejoin:round;stroke-miterlimit:10;" x1="178.281" y1="342.403" x2="303.522" y2="342.403"/>
						
							<line style="fill:none;stroke:#E4E9F7;stroke-width:1.4072;stroke-linecap:round;stroke-linejoin:round;stroke-miterlimit:10;" x1="178.281" y1="345.833" x2="303.522" y2="345.833"/>
					</g>
				</g>
				<g>
					<path style="fill:#4E4E7F;" d="M192.57,390.208H67.429c-4.648,0-8.429,3.78-8.429,8.428v29.116
						c0,4.648,3.781,8.428,8.429,8.428H192.57c0.972,0,1.759-0.787,1.759-1.759v-42.455
						C194.329,390.996,193.541,390.208,192.57,390.208z"/>
					<g>
						<path style="fill:#FEFEFE;" d="M311,434.422H184.287c-4.622,0-8.37-3.747-8.37-8.37v-25.715c0-4.622,3.747-8.37,8.37-8.37H311
							"/>
						<path style="fill:#4E4E7F;" d="M311,436.181H184.287c-5.585,0-10.129-4.543-10.129-10.129v-25.715
							c0-5.585,4.543-10.129,10.129-10.129H311c0.972,0,1.759,0.787,1.759,1.759c0,0.972-0.787,1.759-1.759,1.759H184.287
							c-3.645,0-6.611,2.966-6.611,6.612v25.715c0,3.645,2.966,6.611,6.611,6.611H311c0.972,0,1.759,0.787,1.759,1.759
							S311.972,436.181,311,436.181z"/>
					</g>
					<g>
						
							<line style="fill:none;stroke:#E4E9F7;stroke-width:1.4072;stroke-linecap:round;stroke-linejoin:round;stroke-miterlimit:10;" x1="181.194" y1="397.854" x2="307.845" y2="397.854"/>
						
							<line style="fill:none;stroke:#E4E9F7;stroke-width:1.4072;stroke-linecap:round;stroke-linejoin:round;stroke-miterlimit:10;" x1="181.194" y1="401.284" x2="307.845" y2="401.284"/>
						
							<line style="fill:none;stroke:#E4E9F7;stroke-width:1.4072;stroke-linecap:round;stroke-linejoin:round;stroke-miterlimit:10;" x1="181.194" y1="404.714" x2="307.845" y2="404.714"/>
						
							<line style="fill:none;stroke:#E4E9F7;stroke-width:1.4072;stroke-linecap:round;stroke-linejoin:round;stroke-miterlimit:10;" x1="181.194" y1="408.144" x2="307.845" y2="408.144"/>
						
							<line style="fill:none;stroke:#E4E9F7;stroke-width:1.4072;stroke-linecap:round;stroke-linejoin:round;stroke-miterlimit:10;" x1="181.194" y1="411.574" x2="307.845" y2="411.574"/>
						
							<line style="fill:none;stroke:#E4E9F7;stroke-width:1.4072;stroke-linecap:round;stroke-linejoin:round;stroke-miterlimit:10;" x1="181.194" y1="415.004" x2="307.845" y2="415.004"/>
						
							<line style="fill:none;stroke:#E4E9F7;stroke-width:1.4072;stroke-linecap:round;stroke-linejoin:round;stroke-miterlimit:10;" x1="181.194" y1="418.435" x2="307.845" y2="418.435"/>
						
							<line style="fill:none;stroke:#E4E9F7;stroke-width:1.4072;stroke-linecap:round;stroke-linejoin:round;stroke-miterlimit:10;" x1="181.194" y1="421.865" x2="307.845" y2="421.865"/>
						
							<line style="fill:none;stroke:#E4E9F7;stroke-width:1.4072;stroke-linecap:round;stroke-linejoin:round;stroke-miterlimit:10;" x1="181.194" y1="425.106" x2="307.845" y2="425.106"/>
						
							<line style="fill:none;stroke:#E4E9F7;stroke-width:1.4072;stroke-linecap:round;stroke-linejoin:round;stroke-miterlimit:10;" x1="181.194" y1="428.536" x2="307.845" y2="428.536"/>
					</g>
				</g>
				<g>
					<path style="fill:#62B155;" d="M202.532,352.394H77.391c-4.647,0-8.428,3.78-8.428,8.428v20.894
						c0,4.648,3.781,8.429,8.428,8.429h125.141c0.972,0,1.759-0.787,1.759-1.759v-34.234
						C204.29,353.181,203.503,352.394,202.532,352.394z"/>
					<g>
						<path style="fill:#FEFEFE;" d="M320.963,388.386H194.25c-4.623,0-8.37-3.747-8.37-8.37v-17.493c0-4.623,3.747-8.37,8.37-8.37
							h126.713"/>
						<path style="fill:#62B155;" d="M320.963,390.145H194.249c-5.585,0-10.128-4.544-10.128-10.129v-17.493
							c0-5.585,4.543-10.128,10.128-10.128h126.714c0.972,0,1.759,0.787,1.759,1.759c0,0.972-0.787,1.759-1.759,1.759H194.249
							c-3.645,0-6.611,2.966-6.611,6.611v17.493c0,3.646,2.966,6.612,6.611,6.612h126.714c0.972,0,1.759,0.787,1.759,1.759
							C322.722,389.358,321.935,390.145,320.963,390.145z"/>
					</g>
					<g>
						
							<line style="fill:none;stroke:#E4E9F7;stroke-width:1.4072;stroke-linecap:round;stroke-linejoin:round;stroke-miterlimit:10;" x1="191.027" y1="359.574" x2="317.807" y2="359.574"/>
						
							<line style="fill:none;stroke:#E4E9F7;stroke-width:1.4072;stroke-linecap:round;stroke-linejoin:round;stroke-miterlimit:10;" x1="191.027" y1="363.004" x2="317.807" y2="363.004"/>
						
							<line style="fill:none;stroke:#E4E9F7;stroke-width:1.4072;stroke-linecap:round;stroke-linejoin:round;stroke-miterlimit:10;" x1="191.027" y1="366.434" x2="317.807" y2="366.434"/>
						
							<line style="fill:none;stroke:#E4E9F7;stroke-width:1.4072;stroke-linecap:round;stroke-linejoin:round;stroke-miterlimit:10;" x1="191.027" y1="369.865" x2="317.807" y2="369.865"/>
						
							<line style="fill:none;stroke:#E4E9F7;stroke-width:1.4072;stroke-linecap:round;stroke-linejoin:round;stroke-miterlimit:10;" x1="191.027" y1="373.295" x2="317.807" y2="373.295"/>
						
							<line style="fill:none;stroke:#E4E9F7;stroke-width:1.4072;stroke-linecap:round;stroke-linejoin:round;stroke-miterlimit:10;" x1="191.027" y1="376.725" x2="317.807" y2="376.725"/>
						
							<line style="fill:none;stroke:#E4E9F7;stroke-width:1.4072;stroke-linecap:round;stroke-linejoin:round;stroke-miterlimit:10;" x1="191.027" y1="380.155" x2="317.807" y2="380.155"/>
						
							<line style="fill:none;stroke:#E4E9F7;stroke-width:1.4072;stroke-linecap:round;stroke-linejoin:round;stroke-miterlimit:10;" x1="191.027" y1="383.585" x2="317.807" y2="383.585"/>
					</g>
				</g>
			</g>
			<g>
				<g>
					<g>
						<g>
							<g>
								<path style="fill:#803528;" d="M267.163,381.473c0,0,0.914,2.383,3.124,3.92c1.076,0.748,3.194,1.17,4.873,1.663
									c1.005,0.295-0.175,2.279-1.76,2.377c-3.632,0.225-10.73-0.598-13.055-2.242c-1.908-1.418,0.529-5.805,0.529-5.805
									L267.163,381.473z"/>
								<path style="fill:#803528;" d="M243.552,382.487c0,0,1.124,2.291,3.463,3.624c1.139,0.649,2.98,0.97,4.696,1.31
									c1.027,0.204,1.143,1.684-0.329,2.28c-5.936,2.403-10.895,0.027-13.358-1.403c-2.027-1.241-0.743-5.335-0.743-5.335
									L243.552,382.487z"/>
								<path style="fill:#803528;" d="M258.431,334.132c1.453,3.114,1.044,7.923,2.892,11.679c0,0-1.426,23.841-1.099,36.988
									l7.808,0.261c0,0,8.301-30.092,8.941-34.998c0.307-2.359-1.888-8.888-2.888-17.329L258.431,334.132z"/>
								<g>
									<path style="fill:#803528;" d="M242.206,338.151c1.275,4.661,1.75,7.547,1.06,10.043
										c-5.29,19.14-5.568,27.319-6.056,34.938l7.396,0.992c0,0,14.216-29.894,16.077-34.479
										c0.975-2.401-2.355-3.556-3.347-14.395L242.206,338.151z"/>
								</g>
							</g>
						</g>
						<path style="fill:#4E4E7F;" d="M193.223,304.317c0,0-5.65,12.611,5.466,20.859c4.865,3.61,30.418,2.352,35.967,5.556
							c5.549,3.204,6.178,14.325,6.178,18.174c20.026,8.514,37.738,0,37.738,0s9.034-20.803-5.01-34.847
							c-11.396-11.396-23.276-12.613-30.417-12.613C236.003,301.446,193.223,304.317,193.223,304.317z"/>
					</g>
					<path style="fill:#282024;" d="M249.69,211.995c0,0-2.877,23.589,2.665,32.985c2.157,3.657,6.681,17.885-8.618,23.043
						c-9.816,3.309-14.957-5.169-19.797-10.01c-4.841-4.841-4.187-13.079,1.061-32.732c5.248-19.653,13.128-27.173,13.128-27.173
						L249.69,211.995z"/>
					<path style="opacity:0.32;fill:#FA8A3D;" d="M234.655,288.754c0,0-0.723,9.182-0.723,10.736c0,0-9.268-0.919-17.919-5.913
						c-7.316-4.224-10.289-9.614-10.289-9.614l21.947,0.318C227.672,284.28,229.644,287.672,234.655,288.754z"/>
					<path style="fill:#62B155;" d="M236.318,261.669c0,0,1.707,2.405,2.325,6.702c0.777,5.406-6.262,15.591-3.89,33.976
						c0.185,1.436-20.302,10.741-42.932,5.382c5.665-18.251,2.658-30.319,3.179-35.818c0.454-4.795-5.098-5.658-5.157-6.043
						c-1.066-6.942,2.868-12.267,4.256-14.879c5.269-9.914,12.629-10.786,12.629-10.786s7.269,4.771,12.092,4.531
						c7.094-0.353,7.371-2.154,7.371-2.154s2.018,0.017,2.029,0.03C242.484,257.336,236.318,261.669,236.318,261.669"/>
					<g>
						<path style="fill:#59A04A;" d="M212.657,260.749c0,0-3.397,10.133-4.362,10.133c-0.966,0-1.814-0.918-1.814-0.918
							l-0.557,1.427c0,0,2.375,1.325,3.505,0.195C210.351,270.663,212.657,263.221,212.657,260.749z"/>
					</g>
					<g>
						<g>
							<g>
								<path style="fill:#803528;" d="M228.219,242.611c-0.448-1.187-0.637-2.783-0.859-4.093
									c-8.345,1.127-18.037-10.763-18.031,1.11c0.001,1.029,0.571,2.092-0.726,3.172c0,0,5.595,2.403,11.472,2.4
									C225.953,245.197,228.219,242.611,228.219,242.611"/>
							</g>
							<path style="opacity:0.07;fill:#070707;" d="M227.9,240.808c0,0-12.52,1.413-16.367-0.361c0,0,4.538,3.528,16.686,2.164
								L227.9,240.808z"/>
							<g>
								<g>
									<path style="fill:#803528;" d="M210.031,183.921c0,0-5.41,1.29-11.081,4.605c-5.815,3.398-11.905,8.925-12.721,17.371
										c-0.47,4.863-0.05,9.564,1.241,13.87c3.137,10.466,11.421,18.6,24.585,21.068c9.291,1.742,19.35,0.458,26.827-5.042
										c7.477-5.499,11.951-17.162,10.088-26.874c-1.863-9.712-6.33-14.864-13.23-19.353
										C228.841,185.076,219.932,183.196,210.031,183.921z"/>
									<g>
										<path style="fill:#FFFEFF;" d="M228.623,222.465c-0.403,1.649-1.645,3.008-3.364,3.306
											c-1.965,0.341-3.703-0.781-4.885-2.252c-0.631-0.785,0.001-1.35,0.85-1.406
											C221.225,222.112,228.862,221.484,228.623,222.465z"/>
									</g>
									<g>
										<path style="opacity:0.21;fill:#030303;" d="M224.908,219.048c0.018,0,0.037-0.001,0.055-0.003
											c0.089-0.008,0.877-0.08,1.385-0.226c1.229-0.355,1.667-1.006,1.819-1.491c0.156-0.501,0.161-1.321-0.705-2.384
											c-0.768-0.943-0.903-2.853-0.89-3.509c0.007-0.347-0.269-0.635-0.616-0.642c-0.005,0-0.009,0-0.013,0
											c-0.341,0-0.622,0.273-0.629,0.615c-0.002,0.115-0.047,2.834,1.172,4.331c0.395,0.484,0.569,0.927,0.479,1.214
											c-0.084,0.268-0.427,0.501-0.966,0.657c-0.331,0.096-0.94,0.164-1.147,0.182c-0.346,0.031-0.602,0.336-0.572,0.682
											C224.311,218.802,224.585,219.048,224.908,219.048z"/>
									</g>
									<path style="fill:#282024;" d="M210.412,213.173c0.043,1.381,0.87,2.475,1.846,2.445c0.977-0.031,1.733-1.175,1.69-2.555
										c-0.043-1.381-0.87-2.476-1.846-2.445C211.126,210.648,210.369,211.792,210.412,213.173z"/>
									<path style="fill:#282024;" d="M236.608,212.268c0.043,1.381,0.87,2.475,1.846,2.445c0.977-0.03,1.733-1.175,1.69-2.555
										c-0.043-1.381-0.87-2.475-1.846-2.445C237.322,209.743,236.565,210.887,236.608,212.268z"/>
									<path style="opacity:0.07;fill:#030303;" d="M199.885,219.568c0,3.037,2.462,5.499,5.499,5.499
										c3.037,0,5.499-2.462,5.499-5.499c0-3.037-2.462-5.499-5.499-5.499C202.347,214.07,199.885,216.531,199.885,219.568z"/>
									<path style="opacity:0.07;fill:#030303;" d="M248.533,213.056c-0.631-0.252-1.319-0.391-2.04-0.391
										c-3.037,0-5.499,2.462-5.499,5.499c0,3.037,2.462,5.499,5.499,5.499c0.37,0,0.731-0.036,1.081-0.106"/>
								</g>
							</g>
						</g>
						<path style="fill:#282024;" d="M245.987,227.351c6.045-8.51,5.188-34.399-6.191-45.778
							c-11.38-11.38-34.951-7.427-34.951-7.427c-21.622,4.496-28.697,17.046-28.697,36.631c0,12.558,3.825,16.403,1.002,38.303
							c-1.23,9.543-1.882,14.904,3.998,19.844c1.184,0.995,6.168,3.582,10.037,4.183c0.305-1.958,0.655-4.345,0.958-6.251
							c-0.303-0.093-1.342-0.463-1.363-0.861c-0.351-6.519,0.76-12.479,6.517-18.236c4.298-4.298,19.212-1.287,12.056-8.14
							c-7.636-7.314-10.822-16.457-9.264-23.451c0.723-3.247,1.558-6.993,1.558-6.993c20.255-0.906,39.254-15.641,39.254-15.641
							c5.89,5.756,7.105,25.187,5.785,31.638C246.52,225.995,246.212,226.827,245.987,227.351z"/>
					</g>
					<polygon style="fill:#59A04A;" points="232.381,253.002 237.124,260.823 236.318,261.669 					"/>
					<g>
						<path style="fill:#803528;" d="M192.144,266.857c0,0-3.012,20.297-4.355,24.991c-1.343,4.694-1.037,27.47-1.037,27.47
							s-7.048,2.205-8.246,3.363c-2.028,1.96-1.708,3.178-1.708,3.178s7.193,0,10.124,0.467c0.558,0.441,0.601,1.279,0.153,1.83
							c0,0-1.225,1.009-1.379,1.697c-0.154,0.688,2.008,1.088,4.718-2.194c1.2-1.452,0.884-3.037,0.884-3.037l7.736-35.585
							l7.446-19.074L192.144,266.857z"/>
					</g>
				</g>
				<g>
					<g>
						<g>
							<g>
								<path style="fill:#FDD539;" d="M75.936,119.741h89.572c3.851,0,6.973,3.122,6.973,6.974v54.153
									c0,3.851-3.122,6.973-6.973,6.973h-0.437v8.112c0,1.294-1.446,2.064-2.519,1.34l-14.025-9.452H75.936
									c-3.851,0-6.974-3.122-6.974-6.973v-54.153C68.963,122.863,72.085,119.741,75.936,119.741z"/>
								<g>
									<g>
										<path style="fill:#FFFFFF;" d="M88.763,136.98h63.918c0.84,0,1.522-0.682,1.522-1.522c0-0.84-0.682-1.522-1.522-1.522
											H88.763c-0.84,0-1.522,0.682-1.522,1.522C87.241,136.298,87.923,136.98,88.763,136.98z"/>
									</g>
									<g>
										<path style="fill:#FFFFFF;" d="M88.763,146.232h63.918c0.84,0,1.522-0.682,1.522-1.522c0-0.84-0.682-1.522-1.522-1.522
											H88.763c-0.84,0-1.522,0.682-1.522,1.522C87.241,145.55,87.923,146.232,88.763,146.232z"/>
									</g>
									<g>
										<path style="fill:#FFFFFF;" d="M88.763,155.485h63.918c0.84,0,1.522-0.682,1.522-1.522c0-0.84-0.682-1.522-1.522-1.522
											H88.763c-0.84,0-1.522,0.682-1.522,1.522C87.241,154.803,87.923,155.485,88.763,155.485z"/>
									</g>
									<g>
										<path style="fill:#FFFFFF;" d="M88.763,164.737h63.918c0.84,0,1.522-0.682,1.522-1.522s-0.682-1.522-1.522-1.522H88.763
											c-0.84,0-1.522,0.682-1.522,1.522S87.923,164.737,88.763,164.737z"/>
									</g>
									<g>
										<path style="fill:#FFFFFF;" d="M88.763,173.989h37.539c0.84,0,1.522-0.682,1.522-1.522c0-0.84-0.682-1.522-1.522-1.522
											H88.763c-0.84,0-1.522,0.682-1.522,1.522C87.241,173.308,87.923,173.989,88.763,173.989z"/>
									</g>
								</g>
							</g>
						</g>
					</g>
				</g>
				<g>
					
						<path style="fill:none;stroke:#62B155;stroke-width:3.6932;stroke-linecap:round;stroke-linejoin:round;stroke-miterlimit:10;" d="
						M261.094,115.504h-52.682c-2.645,0-4.79,2.144-4.79,4.79v28.766c0,2.645,2.144,4.79,4.79,4.79h0.3v7.658l10.977-7.537
						l-0.627-0.121h42.032c2.645,0,4.789-2.144,4.789-4.79v-28.766C265.883,117.649,263.739,115.504,261.094,115.504z"/>
					<g>
						<path style="fill:#B7205D;" d="M226.583,134.677c0,1.904-1.543,3.447-3.447,3.447c-1.904,0-3.447-1.543-3.447-3.447
							c0-1.904,1.543-3.447,3.447-3.447C225.04,131.23,226.583,132.773,226.583,134.677z"/>
						<path style="fill:#B7205D;" d="M238.366,134.677c0,1.904-1.543,3.447-3.447,3.447c-1.904,0-3.447-1.543-3.447-3.447
							c0-1.904,1.543-3.447,3.447-3.447C236.823,131.23,238.366,132.773,238.366,134.677z"/>
						<path style="fill:#B7205D;" d="M250.15,134.677c0,1.904-1.543,3.447-3.447,3.447c-1.904,0-3.447-1.543-3.447-3.447
							c0-1.904,1.543-3.447,3.447-3.447C248.606,131.23,250.15,132.773,250.15,134.677z"/>
					</g>
				</g>
			</g>
			<g>
				<g>
					<g>
						<path style="fill:#B7205D;" d="M84.715,331.324c0,0-9.123,3.952-9.496,16.754c-0.372,12.802,4.118,21.275,4.118,27.596
							c0,5.183,4.827-4.213,8.997-10.307c11.104-16.231,2.973-30.117,2.973-30.117S85.894,333.034,84.715,331.324z"/>
						<g>
							<path style="fill:#FDD539;" d="M90.834,340.034c0.618-0.07,0.99-0.172,1.047-0.188c0.497-0.143,0.784-0.663,0.641-1.16
								c-0.142-0.496-0.656-0.782-1.155-0.642c-0.204,0.056-4.823,1.26-10.065-3.22c-0.394-0.337-0.986-0.29-1.321,0.103
								c-0.336,0.393-0.291,0.985,0.104,1.321C84.656,340.157,88.922,340.251,90.834,340.034z"/>
						</g>
					</g>
					<path style="fill:#A5B4D6;" d="M84.754,412.517c0,0-5.038,8.328-1.294,17.011c4.698,10.895,36.276,5.241,36.276,5.241
						l-7.768-19.563L84.754,412.517z"/>
					<path style="fill:#F9BBB9;" d="M138.962,366.53c0,0,3.95,19.785,4.714,23.053c1.396,5.968,8.381,19.93,13.544,21.439
						c1.252,0.366,2.348,1.131,3.114,2.187c0.932,1.285,1.8,3.068,0.946,4.547c-1.529,2.647-17.89-6.27-24.865-22.023
						c-1.712-3.866-6.343-26.083-6.343-26.083L138.962,366.53z"/>
					<g>
						<g>
							<path style="fill:#FDD539;" d="M82.35,415.462l0.817-39.009c0,0-5.981-12.998,2.659-22.516
								c7.231-7.966,16.349-8.358,16.349-8.358s4.182,3.202,10.662,3.882c4.901,0.409,8.757-1.069,10.619-3.152
								c4.749,0.685,14.873,7.906,17.894,19.451c-2.905,3.89-6.592,3.89-6.592,3.89l7.673,45.734c0,0-7.343,2.625-21.885,5.204
								C106.002,423.165,82.35,415.462,82.35,415.462"/>
						</g>
					</g>
					<path style="fill:#B7C3E5;" d="M145.658,416.608c0,0-45.277-11.635-56.316-5.713c-11.03,5.917-9.311,15.342-2.25,20.255
						c10.342,7.196,46.972,4.873,46.972,4.873L145.658,416.608z"/>
					<path style="fill:#B7C3E5;" d="M113.391,427.15c0,0,29.791-24.292,48.472-17.366c14.473,5.365,12.66,19.281,4.526,23.977
						c-6.997,4.04-52.998,2.42-52.998,2.42V427.15z"/>
					<path style="fill:#3F3238;" d="M113.905,429.528l-0.814,6.653c0,0-10.58,0.384-12.919,0.384c-2.035,0-5.956-5.337-2.068-8.591
						C100.551,425.927,113.905,429.528,113.905,429.528z"/>
					<path style="fill:#A5B4D6;" d="M136.906,412.829c-10.708,4.907-22.913,14.277-22.913,14.277l-0.088,2.422l-1.455-0.37v-3.969
						l18.752-12.672L136.906,412.829z"/>
					<path style="opacity:0.07;fill:#070707;" d="M99.952,370.592c1.92-0.595,3.1-1.399,3.1-1.399l-0.652-4.098
						c0,0,1.638,4.429,1.853,4.958c0.215,0.529-4.101,1.738-4.101,1.738S100.063,371.166,99.952,370.592z"/>
					<path style="opacity:0.07;fill:#070707;" d="M133.457,363.41l1.3,6.239c0,0,1.145-0.128,1.658-0.3L133.457,363.41z"/>
					<path style="fill:#FDD539;" d="M120.786,345.942c0,0-0.885,1.569-7.547,1.9c-4.529,0.225-11.064-2.263-11.064-2.263
						s-2.407,0.25-3.033,0.488c0,0,5.676,4.831,13.144,4.885c5.882,0.043,8.207-1.4,9.792-2.985
						c1.223-1.223,1.377-1.658,1.377-1.658C122.769,346.187,120.786,345.942,120.786,345.942z"/>
					<g>
						<path style="fill:#F9BBB9;" d="M102.303,340.28c0,0,0.447,2.912-0.182,5.379c0,0,12.781,5.318,18.711,0.368
							c0,0-1.096-1.975,1.658-6.618L102.303,340.28z"/>
						<g>
							<path style="opacity:0.81;fill:#EFA5A5;" d="M120.548,344.333c0,0-12.881,0.562-16.683-1.52c0,0,4.384,3.921,16.881,3.383
								L120.548,344.333z"/>
							<g>
								<path style="fill:#F9BBB9;" d="M106.856,285.71c0,0-5.613,0.937-11.636,3.921c-6.175,3.059-12.78,8.273-14.206,16.837
									c-0.822,4.931-0.725,9.758,0.29,14.244c2.467,10.905,10.351,19.789,23.616,23.235c9.362,2.431,19.72,1.829,27.739-3.26
									c8.021-5.087,13.407-16.678,12.189-26.723c-1.219-10.045-5.416-15.619-12.145-20.687
									C125.975,288.21,117.014,285.666,106.856,285.71z"/>
								<g>
									<path style="fill:#E59A9A;" d="M116.008,326.043c1.395,2.005,4.638,2.827,5.573-0.1c0.311-0.978,1.855-0.566,1.543,0.418
										c-0.528,1.654-1.891,2.956-3.666,3.139c-2.03,0.21-3.725-1.058-4.827-2.644
										C114.041,326.009,115.423,325.204,116.008,326.043L116.008,326.043z"/>
								</g>
								<g>
									<path style="fill:#E59A9A;" d="M119.571,322.612c0.02,0.001,0.039,0.003,0.057,0.002c0.092-0.003,0.901-0.02,1.429-0.134
										c1.279-0.277,1.772-0.911,1.96-1.394c0.195-0.499,0.258-1.337-0.552-2.483c-0.718-1.017-0.721-2.975-0.661-3.645
										c0.032-0.352-0.23-0.666-0.584-0.696c-0.006,0-0.01-0.001-0.014-0.001c-0.348-0.024-0.652,0.234-0.685,0.584
										c-0.011,0.117-0.248,2.89,0.892,4.502c0.368,0.522,0.516,0.985,0.405,1.273c-0.104,0.268-0.472,0.482-1.031,0.602
										c-0.346,0.074-0.973,0.102-1.184,0.106c-0.356,0.007-0.64,0.301-0.632,0.655
										C118.98,322.319,119.242,322.589,119.571,322.612z"/>
								</g>
								<path style="fill:#EFA5A5;" d="M142.534,328.496c-0.853,0.358-1.799,0.527-2.785,0.459
									c-3.371-0.232-5.915-3.152-5.683-6.523c0.232-3.37,3.152-5.915,6.523-5.683c1.264,0.087,2.411,0.552,3.339,1.277"/>
							</g>
							<path style="fill:#001913;" d="M133.842,315.578c0,1.361-0.78,2.466-1.742,2.466c-0.963,0.001-1.745-1.103-1.746-2.463
								c0-1.361,0.779-2.467,1.743-2.467C133.062,313.113,133.842,314.216,133.842,315.578z"/>
							<path style="fill:#001913;" d="M106.03,316.451c0.001,1.363-0.779,2.467-1.742,2.467c-0.964,0-1.745-1.103-1.745-2.465
								c-0.001-1.361,0.78-2.465,1.742-2.466C105.251,313.989,106.029,315.091,106.03,316.451z"/>
						</g>
						<path style="fill:#B7205D;" d="M140.506,332.569c11.81-14.416,7.715-34.748-3.102-47.164
							c-10.817-12.416-35.156-10.039-35.156-10.039c-22.386,3.069-30.492,15.382-31.869,35.375
							c-0.883,12.818,6.89,27.477,22.645,27.774c-7.282-8.002-6.644-12.626-4.561-19.656c0.966-3.263,5.085-6.504,5.085-6.504
							c20.74,0.498,44.147-14.663,44.147-14.663c5.606,6.29,5.48,26.21,3.681,32.702
							C141.146,331.224,140.773,332.049,140.506,332.569z"/>
						<path style="fill:#EFA5A5;" d="M90.532,322.113c-0.233,3.385,2.321,6.319,5.706,6.552c3.385,0.233,6.319-2.322,6.552-5.707
							c0.233-3.384-2.322-6.318-5.707-6.551C93.697,316.173,90.765,318.728,90.532,322.113z"/>
						<g>
							<path style="fill:#F9BBB9;" d="M87.531,327.615c-0.372,0.074-1.204,0.142-1.601,0.115c-2.382-0.164-4.182-2.229-4.018-4.613
								c0.164-2.382,2.229-4.182,4.612-4.018c0.597,0.041,1.169,0.429,1.67,0.684c0,0-0.585,1.988-0.625,4.91
								C87.531,327.615,87.531,327.615,87.531,327.615z"/>
							<g>
								<path style="fill:#EFA5A5;" d="M84.032,324.176c0.311,0.021,0.602-0.184,0.676-0.498c0.416-1.772,2.101-1.904,2.172-1.909
									c0.356-0.023,0.628-0.331,0.607-0.686c-0.023-0.354-0.325-0.626-0.68-0.607c-0.939,0.047-2.85,0.718-3.364,2.906
									c-0.081,0.348,0.136,0.697,0.485,0.78C83.964,324.169,83.999,324.174,84.032,324.176z"/>
							</g>
						</g>
					</g>
					<path style="fill:#F9BBB9;" d="M99.944,370.49c0,0,4.131,14.208,5.124,16.423c0.993,2.215,4.653,13.195,13.077,14.529
						c8.423,1.333,12.05,2.609,14.922,5.013c2.925,2.448,4.81,3.601,1.523,2.936c-2.567-0.519-5.744-0.898-5.744-0.898
						s-19.326,3.035-28.417-4.359c-5.276-4.291-14.167-22.392-15.282-27.081C90.102,372.098,99.944,370.49,99.944,370.49z"/>
					<g>
						<path style="fill:#4A4A75;" d="M123.537,411.461l10.007-36.642c0.377-1.38,1.631-2.337,3.061-2.337h50.03l0,0l-7.93,38.98
							H123.537z"/>
						<path style="fill:#4A4A75;" d="M150.867,413.183H87.37v-0.56c0-1.753,1.421-3.174,3.174-3.174h60.323V413.183z"/>
						<path style="fill:#2D2D59;" d="M126.904,413.155l10.511-38.34c0.378-1.379,1.631-2.334,3.061-2.334h47.377
							c2.085,0,3.604,1.976,3.066,3.991l-9.24,34.654c-0.319,1.196-1.402,2.029-2.641,2.029H126.904z"/>
						<path style="fill:#4A4A75;" d="M163.576,392.552c-0.622,1.904-2.318,3.057-3.789,2.577c-1.471-0.48-2.16-2.413-1.538-4.316
							c0.621-1.904,2.318-3.057,3.789-2.577C163.509,388.716,164.197,390.648,163.576,392.552z"/>
					</g>
				</g>
				<g>
					<path style="fill:#E65C8F;" d="M129.853,211.521H68.864c-3.062,0-5.545,2.482-5.545,5.545v33.301
						c0,3.062,2.482,5.545,5.545,5.545h45.672c1.241,0,2.454,0.373,3.481,1.07l8.88,6.026c1.109,0.753,2.609-0.042,2.609-1.383
						v-5.713h0.347c3.062,0,5.545-2.482,5.545-5.545v-33.302C135.397,214.003,132.915,211.521,129.853,211.521z"/>
					<g>
						<path style="fill:#FEFEFE;" d="M108.816,233.717c0,2.204,1.787,3.991,3.991,3.991c2.204,0,3.991-1.787,3.991-3.991
							c0-2.204-1.787-3.991-3.991-3.991C110.602,229.726,108.816,231.513,108.816,233.717z"/>
						<path style="fill:#FEFEFE;" d="M95.174,233.717c0,2.204,1.787,3.991,3.991,3.991c2.204,0,3.991-1.787,3.991-3.991
							c0-2.204-1.787-3.991-3.991-3.991C96.961,229.726,95.174,231.513,95.174,233.717z"/>
						<path style="fill:#FEFEFE;" d="M81.533,233.717c0,2.204,1.787,3.991,3.991,3.991s3.991-1.787,3.991-3.991
							c0-2.204-1.787-3.991-3.991-3.991S81.533,231.513,81.533,233.717z"/>
					</g>
				</g>
			</g>
		</g>
		<g>
			<path style="fill:#A5B4D6;" d="M461,440.092H39c-1.933,0-3.5-1.567-3.5-3.5c0-1.933,1.567-3.5,3.5-3.5h422
				c1.933,0,3.5,1.567,3.5,3.5C464.5,438.524,462.933,440.092,461,440.092z"/>
		</g>
	</g>
</g>
</svg>
